G04 #@! TF.GenerationSoftware,KiCad,Pcbnew,(5.1.8)-1*
G04 #@! TF.CreationDate,2021-11-11T09:43:21+02:00*
G04 #@! TF.ProjectId,controller,636f6e74-726f-46c6-9c65-722e6b696361,rev?*
G04 #@! TF.SameCoordinates,Original*
G04 #@! TF.FileFunction,Legend,Bot*
G04 #@! TF.FilePolarity,Positive*
%FSLAX46Y46*%
G04 Gerber Fmt 4.6, Leading zero omitted, Abs format (unit mm)*
G04 Created by KiCad (PCBNEW (5.1.8)-1) date 2021-11-11 09:43:21*
%MOMM*%
%LPD*%
G01*
G04 APERTURE LIST*
%ADD10C,0.300000*%
G04 APERTURE END LIST*
D10*
X112428571Y-86892857D02*
X112428571Y-87821428D01*
X113000000Y-87321428D01*
X113000000Y-87535714D01*
X113071428Y-87678571D01*
X113142857Y-87750000D01*
X113285714Y-87821428D01*
X113642857Y-87821428D01*
X113785714Y-87750000D01*
X113857142Y-87678571D01*
X113928571Y-87535714D01*
X113928571Y-87107142D01*
X113857142Y-86964285D01*
X113785714Y-86892857D01*
X112428571Y-88250000D02*
X113928571Y-88750000D01*
X112428571Y-89250000D01*
X112428571Y-89607142D02*
X112428571Y-90535714D01*
X113000000Y-90035714D01*
X113000000Y-90250000D01*
X113071428Y-90392857D01*
X113142857Y-90464285D01*
X113285714Y-90535714D01*
X113642857Y-90535714D01*
X113785714Y-90464285D01*
X113857142Y-90392857D01*
X113928571Y-90250000D01*
X113928571Y-89821428D01*
X113857142Y-89678571D01*
X113785714Y-89607142D01*
X112500000Y-72107142D02*
X112428571Y-71964285D01*
X112428571Y-71750000D01*
X112500000Y-71535714D01*
X112642857Y-71392857D01*
X112785714Y-71321428D01*
X113071428Y-71250000D01*
X113285714Y-71250000D01*
X113571428Y-71321428D01*
X113714285Y-71392857D01*
X113857142Y-71535714D01*
X113928571Y-71750000D01*
X113928571Y-71892857D01*
X113857142Y-72107142D01*
X113785714Y-72178571D01*
X113285714Y-72178571D01*
X113285714Y-71892857D01*
X113928571Y-72821428D02*
X112428571Y-72821428D01*
X113928571Y-73678571D01*
X112428571Y-73678571D01*
X113928571Y-74392857D02*
X112428571Y-74392857D01*
X112428571Y-74750000D01*
X112500000Y-74964285D01*
X112642857Y-75107142D01*
X112785714Y-75178571D01*
X113071428Y-75250000D01*
X113285714Y-75250000D01*
X113571428Y-75178571D01*
X113714285Y-75107142D01*
X113857142Y-74964285D01*
X113928571Y-74750000D01*
X113928571Y-74392857D01*
X53521428Y-84414285D02*
X53521428Y-85271428D01*
X53521428Y-84842857D02*
X55021428Y-84842857D01*
X54807142Y-84985714D01*
X54664285Y-85128571D01*
X54592857Y-85271428D01*
X53950000Y-83842857D02*
X53950000Y-83128571D01*
X53521428Y-83985714D02*
X55021428Y-83485714D01*
X53521428Y-82985714D01*
X44621428Y-82100000D02*
X44621428Y-81957142D01*
X44550000Y-81814285D01*
X44478571Y-81742857D01*
X44335714Y-81671428D01*
X44050000Y-81600000D01*
X43692857Y-81600000D01*
X43407142Y-81671428D01*
X43264285Y-81742857D01*
X43192857Y-81814285D01*
X43121428Y-81957142D01*
X43121428Y-82100000D01*
X43192857Y-82242857D01*
X43264285Y-82314285D01*
X43407142Y-82385714D01*
X43692857Y-82457142D01*
X44050000Y-82457142D01*
X44335714Y-82385714D01*
X44478571Y-82314285D01*
X44550000Y-82242857D01*
X44621428Y-82100000D01*
X43264285Y-80957142D02*
X43192857Y-80885714D01*
X43121428Y-80957142D01*
X43192857Y-81028571D01*
X43264285Y-80957142D01*
X43121428Y-80957142D01*
X44478571Y-80314285D02*
X44550000Y-80242857D01*
X44621428Y-80100000D01*
X44621428Y-79742857D01*
X44550000Y-79600000D01*
X44478571Y-79528571D01*
X44335714Y-79457142D01*
X44192857Y-79457142D01*
X43978571Y-79528571D01*
X43121428Y-80385714D01*
X43121428Y-79457142D01*
X44621428Y-78100000D02*
X44621428Y-78814285D01*
X43907142Y-78885714D01*
X43978571Y-78814285D01*
X44050000Y-78671428D01*
X44050000Y-78314285D01*
X43978571Y-78171428D01*
X43907142Y-78100000D01*
X43764285Y-78028571D01*
X43407142Y-78028571D01*
X43264285Y-78100000D01*
X43192857Y-78171428D01*
X43121428Y-78314285D01*
X43121428Y-78671428D01*
X43192857Y-78814285D01*
X43264285Y-78885714D01*
X43550000Y-77457142D02*
X43550000Y-76742857D01*
X43121428Y-77600000D02*
X44621428Y-77100000D01*
X43121428Y-76600000D01*
X81178571Y-75964285D02*
X81178571Y-75250000D01*
X79678571Y-75250000D01*
X81178571Y-85571428D02*
X79678571Y-85571428D01*
X81178571Y-86428571D01*
X79678571Y-86428571D01*
X104214285Y-33178571D02*
X104214285Y-34178571D01*
X104571428Y-32607142D02*
X104928571Y-33678571D01*
X104000000Y-33678571D01*
X84928571Y-32821428D02*
X84857142Y-32750000D01*
X84714285Y-32678571D01*
X84357142Y-32678571D01*
X84214285Y-32750000D01*
X84142857Y-32821428D01*
X84071428Y-32964285D01*
X84071428Y-33107142D01*
X84142857Y-33321428D01*
X85000000Y-34178571D01*
X84071428Y-34178571D01*
X144642857Y-33321428D02*
X144785714Y-33250000D01*
X144857142Y-33178571D01*
X144928571Y-33035714D01*
X144928571Y-32964285D01*
X144857142Y-32821428D01*
X144785714Y-32750000D01*
X144642857Y-32678571D01*
X144357142Y-32678571D01*
X144214285Y-32750000D01*
X144142857Y-32821428D01*
X144071428Y-32964285D01*
X144071428Y-33035714D01*
X144142857Y-33178571D01*
X144214285Y-33250000D01*
X144357142Y-33321428D01*
X144642857Y-33321428D01*
X144785714Y-33392857D01*
X144857142Y-33464285D01*
X144928571Y-33607142D01*
X144928571Y-33892857D01*
X144857142Y-34035714D01*
X144785714Y-34107142D01*
X144642857Y-34178571D01*
X144357142Y-34178571D01*
X144214285Y-34107142D01*
X144142857Y-34035714D01*
X144071428Y-33892857D01*
X144071428Y-33607142D01*
X144142857Y-33464285D01*
X144214285Y-33392857D01*
X144357142Y-33321428D01*
X165035714Y-34178571D02*
X165892857Y-34178571D01*
X165464285Y-34178571D02*
X165464285Y-32678571D01*
X165607142Y-32892857D01*
X165750000Y-33035714D01*
X165892857Y-33107142D01*
X164107142Y-32678571D02*
X163964285Y-32678571D01*
X163821428Y-32750000D01*
X163750000Y-32821428D01*
X163678571Y-32964285D01*
X163607142Y-33250000D01*
X163607142Y-33607142D01*
X163678571Y-33892857D01*
X163750000Y-34035714D01*
X163821428Y-34107142D01*
X163964285Y-34178571D01*
X164107142Y-34178571D01*
X164250000Y-34107142D01*
X164321428Y-34035714D01*
X164392857Y-33892857D01*
X164464285Y-33607142D01*
X164464285Y-33250000D01*
X164392857Y-32964285D01*
X164321428Y-32821428D01*
X164250000Y-32750000D01*
X164107142Y-32678571D01*
X114142857Y-32678571D02*
X114857142Y-32678571D01*
X114928571Y-33392857D01*
X114857142Y-33321428D01*
X114714285Y-33250000D01*
X114357142Y-33250000D01*
X114214285Y-33321428D01*
X114142857Y-33392857D01*
X114071428Y-33535714D01*
X114071428Y-33892857D01*
X114142857Y-34035714D01*
X114214285Y-34107142D01*
X114357142Y-34178571D01*
X114714285Y-34178571D01*
X114857142Y-34107142D01*
X114928571Y-34035714D01*
X74071428Y-34178571D02*
X74928571Y-34178571D01*
X74500000Y-34178571D02*
X74500000Y-32678571D01*
X74642857Y-32892857D01*
X74785714Y-33035714D01*
X74928571Y-33107142D01*
X154785714Y-34178571D02*
X154500000Y-34178571D01*
X154357142Y-34107142D01*
X154285714Y-34035714D01*
X154142857Y-33821428D01*
X154071428Y-33535714D01*
X154071428Y-32964285D01*
X154142857Y-32821428D01*
X154214285Y-32750000D01*
X154357142Y-32678571D01*
X154642857Y-32678571D01*
X154785714Y-32750000D01*
X154857142Y-32821428D01*
X154928571Y-32964285D01*
X154928571Y-33321428D01*
X154857142Y-33464285D01*
X154785714Y-33535714D01*
X154642857Y-33607142D01*
X154357142Y-33607142D01*
X154214285Y-33535714D01*
X154142857Y-33464285D01*
X154071428Y-33321428D01*
X135000000Y-32678571D02*
X134000000Y-32678571D01*
X134642857Y-34178571D01*
X124214285Y-32678571D02*
X124500000Y-32678571D01*
X124642857Y-32750000D01*
X124714285Y-32821428D01*
X124857142Y-33035714D01*
X124928571Y-33321428D01*
X124928571Y-33892857D01*
X124857142Y-34035714D01*
X124785714Y-34107142D01*
X124642857Y-34178571D01*
X124357142Y-34178571D01*
X124214285Y-34107142D01*
X124142857Y-34035714D01*
X124071428Y-33892857D01*
X124071428Y-33535714D01*
X124142857Y-33392857D01*
X124214285Y-33321428D01*
X124357142Y-33250000D01*
X124642857Y-33250000D01*
X124785714Y-33321428D01*
X124857142Y-33392857D01*
X124928571Y-33535714D01*
X95000000Y-32678571D02*
X94071428Y-32678571D01*
X94571428Y-33250000D01*
X94357142Y-33250000D01*
X94214285Y-33321428D01*
X94142857Y-33392857D01*
X94071428Y-33535714D01*
X94071428Y-33892857D01*
X94142857Y-34035714D01*
X94214285Y-34107142D01*
X94357142Y-34178571D01*
X94785714Y-34178571D01*
X94928571Y-34107142D01*
X95000000Y-34035714D01*
X161785714Y-34178571D02*
X162500000Y-34178571D01*
X162500000Y-32678571D01*
X167678571Y-34178571D02*
X167678571Y-32678571D01*
X166821428Y-34178571D01*
X166821428Y-32678571D01*
X151535714Y-34178571D02*
X152250000Y-34178571D01*
X152250000Y-32678571D01*
X157428571Y-34178571D02*
X157428571Y-32678571D01*
X156571428Y-34178571D01*
X156571428Y-32678571D01*
X141535714Y-34178571D02*
X142250000Y-34178571D01*
X142250000Y-32678571D01*
X147428571Y-34178571D02*
X147428571Y-32678571D01*
X146571428Y-34178571D01*
X146571428Y-32678571D01*
X131535714Y-34178571D02*
X132250000Y-34178571D01*
X132250000Y-32678571D01*
X137428571Y-34178571D02*
X137428571Y-32678571D01*
X136571428Y-34178571D01*
X136571428Y-32678571D01*
X121535714Y-34178571D02*
X122250000Y-34178571D01*
X122250000Y-32678571D01*
X127428571Y-34178571D02*
X127428571Y-32678571D01*
X126571428Y-34178571D01*
X126571428Y-32678571D01*
X111535714Y-34178571D02*
X112250000Y-34178571D01*
X112250000Y-32678571D01*
X117428571Y-34178571D02*
X117428571Y-32678571D01*
X116571428Y-34178571D01*
X116571428Y-32678571D01*
X107428571Y-34178571D02*
X107428571Y-32678571D01*
X106571428Y-34178571D01*
X106571428Y-32678571D01*
X101535714Y-34178571D02*
X102250000Y-34178571D01*
X102250000Y-32678571D01*
X91535714Y-34178571D02*
X92250000Y-34178571D01*
X92250000Y-32678571D01*
X97428571Y-34178571D02*
X97428571Y-32678571D01*
X96571428Y-34178571D01*
X96571428Y-32678571D01*
X81535714Y-34178571D02*
X82250000Y-34178571D01*
X82250000Y-32678571D01*
X87428571Y-34178571D02*
X87428571Y-32678571D01*
X86571428Y-34178571D01*
X86571428Y-32678571D01*
X71535714Y-34178571D02*
X72250000Y-34178571D01*
X72250000Y-32678571D01*
X77428571Y-34178571D02*
X77428571Y-32678571D01*
X76571428Y-34178571D01*
X76571428Y-32678571D01*
X50535714Y-34428571D02*
X51250000Y-34428571D01*
X51250000Y-32928571D01*
X56928571Y-34428571D02*
X56928571Y-32928571D01*
X56071428Y-34428571D01*
X56071428Y-32928571D01*
M02*
