G04 #@! TF.GenerationSoftware,KiCad,Pcbnew,(5.1.8)-1*
G04 #@! TF.CreationDate,2021-11-11T09:43:21+02:00*
G04 #@! TF.ProjectId,controller,636f6e74-726f-46c6-9c65-722e6b696361,rev?*
G04 #@! TF.SameCoordinates,Original*
G04 #@! TF.FileFunction,Profile,NP*
%FSLAX46Y46*%
G04 Gerber Fmt 4.6, Leading zero omitted, Abs format (unit mm)*
G04 Created by KiCad (PCBNEW (5.1.8)-1) date 2021-11-11 09:43:21*
%MOMM*%
%LPD*%
G01*
G04 APERTURE LIST*
G04 #@! TA.AperFunction,Profile*
%ADD10C,0.050000*%
G04 #@! TD*
G04 APERTURE END LIST*
D10*
X152000000Y-109500000D02*
G75*
G02*
X149500000Y-112000000I-2500000J0D01*
G01*
X152000000Y-105000000D02*
X182000000Y-105000000D01*
X152000000Y-109500000D02*
X152000000Y-105000000D01*
X93500000Y-72700000D02*
X93500000Y-83300000D01*
X94300000Y-83300000D02*
X94300000Y-72700000D01*
X93500000Y-72700000D02*
G75*
G02*
X94300000Y-72700000I400000J0D01*
G01*
X94300000Y-83300000D02*
G75*
G02*
X93500000Y-83300000I-400000J0D01*
G01*
X91000000Y-78200000D02*
G75*
G02*
X91800000Y-78200000I400000J0D01*
G01*
X91800000Y-88800000D02*
X91800000Y-78200000D01*
X91800000Y-88800000D02*
G75*
G02*
X91000000Y-88800000I-400000J0D01*
G01*
X91000000Y-78200000D02*
X91000000Y-88800000D01*
X182000000Y-32000000D02*
G75*
G02*
X184500000Y-34500000I0J-2500000D01*
G01*
X184500000Y-102500000D02*
G75*
G02*
X182000000Y-105000000I-2500000J0D01*
G01*
X40000000Y-112000000D02*
G75*
G02*
X37500000Y-109500000I0J2500000D01*
G01*
X37500000Y-34500000D02*
G75*
G02*
X40000000Y-32000000I2500000J0D01*
G01*
X89300000Y-83300000D02*
X89300000Y-72700000D01*
X88500000Y-72700000D02*
G75*
G02*
X89300000Y-72700000I400000J0D01*
G01*
X89300000Y-83300000D02*
G75*
G02*
X88500000Y-83300000I-400000J0D01*
G01*
X88500000Y-72700000D02*
X88500000Y-83300000D01*
X86000000Y-78200000D02*
G75*
G02*
X86800000Y-78200000I400000J0D01*
G01*
X86800000Y-88800000D02*
X86800000Y-78200000D01*
X86800000Y-88800000D02*
G75*
G02*
X86000000Y-88800000I-400000J0D01*
G01*
X86000000Y-78200000D02*
X86000000Y-88800000D01*
X83500000Y-72700000D02*
G75*
G02*
X84300000Y-72700000I400000J0D01*
G01*
X84300000Y-83300000D02*
X84300000Y-72700000D01*
X84300000Y-83300000D02*
G75*
G02*
X83500000Y-83300000I-400000J0D01*
G01*
X83500000Y-72700000D02*
X83500000Y-83300000D01*
X105500000Y-78200000D02*
G75*
G02*
X106300000Y-78200000I400000J0D01*
G01*
X106300000Y-88800000D02*
X106300000Y-78200000D01*
X106300000Y-88800000D02*
G75*
G02*
X105500000Y-88800000I-400000J0D01*
G01*
X105500000Y-78200000D02*
X105500000Y-88800000D01*
X103000000Y-72700000D02*
G75*
G02*
X103800000Y-72700000I400000J0D01*
G01*
X103800000Y-83300000D02*
X103800000Y-72700000D01*
X103800000Y-83300000D02*
G75*
G02*
X103000000Y-83300000I-400000J0D01*
G01*
X103000000Y-72700000D02*
X103000000Y-83300000D01*
X100500000Y-78200000D02*
X100500000Y-88800000D01*
X100500000Y-78200000D02*
G75*
G02*
X101300000Y-78200000I400000J0D01*
G01*
X101300000Y-88800000D02*
X101300000Y-78200000D01*
X101300000Y-88800000D02*
G75*
G02*
X100500000Y-88800000I-400000J0D01*
G01*
X98000000Y-72700000D02*
G75*
G02*
X98800000Y-72700000I400000J0D01*
G01*
X98800000Y-83300000D02*
X98800000Y-72700000D01*
X98800000Y-83300000D02*
G75*
G02*
X98000000Y-83300000I-400000J0D01*
G01*
X98000000Y-72700000D02*
X98000000Y-83300000D01*
X95500000Y-78200000D02*
G75*
G02*
X96300000Y-78200000I400000J0D01*
G01*
X96300000Y-88800000D02*
X96300000Y-78200000D01*
X96300000Y-88800000D02*
G75*
G02*
X95500000Y-88800000I-400000J0D01*
G01*
X95500000Y-78200000D02*
X95500000Y-88800000D01*
X87300000Y-70600000D02*
X76700000Y-70600000D01*
X87300000Y-70600000D02*
G75*
G02*
X87300000Y-71400000I0J-400000D01*
G01*
X76700000Y-71400000D02*
X87300000Y-71400000D01*
X76700000Y-71400000D02*
G75*
G02*
X76700000Y-70600000I0J400000D01*
G01*
X74200000Y-70600000D02*
G75*
G02*
X74200000Y-71400000I0J-400000D01*
G01*
X63600000Y-71400000D02*
X74200000Y-71400000D01*
X63600000Y-71400000D02*
G75*
G02*
X63600000Y-70600000I0J400000D01*
G01*
X74200000Y-70600000D02*
X63600000Y-70600000D01*
X60600000Y-70600000D02*
G75*
G02*
X60600000Y-71400000I0J-400000D01*
G01*
X60600000Y-70600000D02*
X59100000Y-70600000D01*
X58800000Y-71400000D02*
X60600000Y-71400000D01*
X54600000Y-66100000D02*
X59100000Y-70600000D01*
X54600000Y-65600000D02*
X54600000Y-66100000D01*
X53800000Y-66400000D02*
X58800000Y-71400000D01*
X53800000Y-63800000D02*
X53800000Y-66400000D01*
X55500000Y-62400000D02*
X53800000Y-63800000D01*
X54600000Y-64200000D02*
X54600000Y-65600000D01*
X55800000Y-63200000D02*
X54600000Y-64200000D01*
X183400000Y-62400000D02*
G75*
G02*
X183400000Y-63200000I0J-400000D01*
G01*
X183400000Y-62400000D02*
X172800000Y-62400000D01*
X172800000Y-63200000D02*
G75*
G02*
X172800000Y-62400000I0J400000D01*
G01*
X172800000Y-63200000D02*
X183400000Y-63200000D01*
X66100000Y-62400000D02*
G75*
G02*
X66100000Y-63200000I0J-400000D01*
G01*
X55800000Y-63200000D02*
X66100000Y-63200000D01*
X66100000Y-62400000D02*
X55500000Y-62400000D01*
X79100000Y-62400000D02*
G75*
G02*
X79100000Y-63200000I0J-400000D01*
G01*
X68500000Y-63200000D02*
X79100000Y-63200000D01*
X68500000Y-63200000D02*
G75*
G02*
X68500000Y-62400000I0J400000D01*
G01*
X79100000Y-62400000D02*
X68500000Y-62400000D01*
X81500000Y-63200000D02*
X92100000Y-63200000D01*
X92100000Y-62400000D02*
G75*
G02*
X92100000Y-63200000I0J-400000D01*
G01*
X92100000Y-62400000D02*
X81500000Y-62400000D01*
X81500000Y-63200000D02*
G75*
G02*
X81500000Y-62400000I0J400000D01*
G01*
X94500000Y-63200000D02*
G75*
G02*
X94500000Y-62400000I0J400000D01*
G01*
X94500000Y-63200000D02*
X105100000Y-63200000D01*
X105100000Y-62400000D02*
X94500000Y-62400000D01*
X105100000Y-62400000D02*
G75*
G02*
X105100000Y-63200000I0J-400000D01*
G01*
X118100000Y-62400000D02*
X107500000Y-62400000D01*
X107500000Y-63200000D02*
G75*
G02*
X107500000Y-62400000I0J400000D01*
G01*
X118100000Y-62400000D02*
G75*
G02*
X118100000Y-63200000I0J-400000D01*
G01*
X107500000Y-63200000D02*
X118100000Y-63200000D01*
X120750000Y-63200000D02*
G75*
G02*
X120750000Y-62400000I0J400000D01*
G01*
X120750000Y-63200000D02*
X131350000Y-63200000D01*
X131350000Y-62400000D02*
X120750000Y-62400000D01*
X131350000Y-62400000D02*
G75*
G02*
X131350000Y-63200000I0J-400000D01*
G01*
X144350000Y-62400000D02*
X133750000Y-62400000D01*
X133750000Y-63200000D02*
G75*
G02*
X133750000Y-62400000I0J400000D01*
G01*
X133750000Y-63200000D02*
X144350000Y-63200000D01*
X144350000Y-62400000D02*
G75*
G02*
X144350000Y-63200000I0J-400000D01*
G01*
X157350000Y-62400000D02*
X146750000Y-62400000D01*
X146750000Y-63200000D02*
X157350000Y-63200000D01*
X157350000Y-62400000D02*
G75*
G02*
X157350000Y-63200000I0J-400000D01*
G01*
X146750000Y-63200000D02*
G75*
G02*
X146750000Y-62400000I0J400000D01*
G01*
X170350000Y-62400000D02*
G75*
G02*
X170350000Y-63200000I0J-400000D01*
G01*
X159750000Y-63200000D02*
X170350000Y-63200000D01*
X159750000Y-63200000D02*
G75*
G02*
X159750000Y-62400000I0J400000D01*
G01*
X170350000Y-62400000D02*
X159750000Y-62400000D01*
X149500000Y-112000000D02*
X40000000Y-112000000D01*
X184500000Y-102500000D02*
X184500000Y-34500000D01*
X37500000Y-34500000D02*
X37500000Y-109500000D01*
X182000000Y-32000000D02*
X40000000Y-32000000D01*
M02*
