G04 #@! TF.GenerationSoftware,KiCad,Pcbnew,(5.1.8)-1*
G04 #@! TF.CreationDate,2021-12-10T10:53:11+02:00*
G04 #@! TF.ProjectId,controller,636f6e74-726f-46c6-9c65-722e6b696361,rev?*
G04 #@! TF.SameCoordinates,Original*
G04 #@! TF.FileFunction,Soldermask,Bot*
G04 #@! TF.FilePolarity,Negative*
%FSLAX46Y46*%
G04 Gerber Fmt 4.6, Leading zero omitted, Abs format (unit mm)*
G04 Created by KiCad (PCBNEW (5.1.8)-1) date 2021-12-10 10:53:11*
%MOMM*%
%LPD*%
G01*
G04 APERTURE LIST*
%ADD10C,2.500000*%
%ADD11R,2.500000X2.500000*%
%ADD12O,1.600000X1.600000*%
%ADD13C,1.600000*%
%ADD14O,1.700000X1.700000*%
%ADD15R,1.700000X1.700000*%
%ADD16C,1.700000*%
%ADD17C,2.200000*%
%ADD18C,1.800000*%
%ADD19C,2.300000*%
%ADD20R,2.300000X2.000000*%
%ADD21C,2.000000*%
%ADD22C,3.200000*%
%ADD23C,3.000000*%
G04 APERTURE END LIST*
D10*
G04 #@! TO.C,J6*
X51000000Y-36500000D03*
D11*
X56000000Y-36500000D03*
G04 #@! TD*
D10*
G04 #@! TO.C,J5*
X122000000Y-36500000D03*
X127000000Y-36500000D03*
X132000000Y-36500000D03*
X137000000Y-36500000D03*
X142000000Y-36500000D03*
X147000000Y-36500000D03*
X152000000Y-36500000D03*
X157000000Y-36500000D03*
X162000000Y-36500000D03*
D11*
X167000000Y-36500000D03*
G04 #@! TD*
D10*
G04 #@! TO.C,J4*
X72000000Y-36500000D03*
X77000000Y-36500000D03*
X82000000Y-36500000D03*
X87000000Y-36500000D03*
X92000000Y-36500000D03*
X97000000Y-36500000D03*
X102000000Y-36500000D03*
X107000000Y-36500000D03*
X112000000Y-36500000D03*
D11*
X117000000Y-36500000D03*
G04 #@! TD*
D12*
G04 #@! TO.C,R18*
X173750000Y-41420000D03*
D13*
X173750000Y-46500000D03*
G04 #@! TD*
D12*
G04 #@! TO.C,R17*
X166830000Y-46500000D03*
D13*
X161750000Y-46500000D03*
G04 #@! TD*
D12*
G04 #@! TO.C,R16*
X153830000Y-46500000D03*
D13*
X148750000Y-46500000D03*
G04 #@! TD*
D12*
G04 #@! TO.C,R15*
X140830000Y-46500000D03*
D13*
X135750000Y-46500000D03*
G04 #@! TD*
D12*
G04 #@! TO.C,R14*
X127830000Y-46500000D03*
D13*
X122750000Y-46500000D03*
G04 #@! TD*
D12*
G04 #@! TO.C,R13*
X114830000Y-46500000D03*
D13*
X109750000Y-46500000D03*
G04 #@! TD*
D12*
G04 #@! TO.C,R12*
X101830000Y-46500000D03*
D13*
X96750000Y-46500000D03*
G04 #@! TD*
D12*
G04 #@! TO.C,R11*
X88830000Y-46500000D03*
D13*
X83750000Y-46500000D03*
G04 #@! TD*
D12*
G04 #@! TO.C,R10*
X75830000Y-46500000D03*
D13*
X70750000Y-46500000D03*
G04 #@! TD*
D12*
G04 #@! TO.C,R9*
X62830000Y-46500000D03*
D13*
X57750000Y-46500000D03*
G04 #@! TD*
D12*
G04 #@! TO.C,R2*
X74700000Y-85000000D03*
D13*
X62000000Y-85000000D03*
G04 #@! TD*
D14*
G04 #@! TO.C,J1*
X120790000Y-108250000D03*
X118250000Y-108250000D03*
D15*
X115710000Y-108250000D03*
G04 #@! TD*
D16*
G04 #@! TO.C,SW1*
X108750000Y-108750000D03*
X104250000Y-108750000D03*
D17*
X110000000Y-106250000D03*
X103000000Y-106250000D03*
G04 #@! TD*
D18*
G04 #@! TO.C,FL1*
X72500000Y-73250000D03*
X72500000Y-80250000D03*
X64500000Y-80250000D03*
X64500000Y-73250000D03*
G04 #@! TD*
D19*
G04 #@! TO.C,PS1*
X109650000Y-88450000D03*
X80250000Y-83250000D03*
D20*
X80250000Y-78250000D03*
D19*
X109650000Y-73050000D03*
G04 #@! TD*
D10*
G04 #@! TO.C,H5*
X179750000Y-78000000D03*
G04 #@! TD*
G04 #@! TO.C,H3*
X138750000Y-78000000D03*
G04 #@! TD*
D21*
G04 #@! TO.C,C11*
X91000000Y-52000000D03*
X83500000Y-52000000D03*
G04 #@! TD*
G04 #@! TO.C,C18*
X182000000Y-52000000D03*
X174500000Y-52000000D03*
G04 #@! TD*
G04 #@! TO.C,C17*
X169000000Y-52000000D03*
X161500000Y-52000000D03*
G04 #@! TD*
G04 #@! TO.C,C16*
X156000000Y-52000000D03*
X148500000Y-52000000D03*
G04 #@! TD*
G04 #@! TO.C,C15*
X143000000Y-52000000D03*
X135500000Y-52000000D03*
G04 #@! TD*
G04 #@! TO.C,C14*
X130000000Y-52000000D03*
X122500000Y-52000000D03*
G04 #@! TD*
G04 #@! TO.C,C13*
X117000000Y-52000000D03*
X109500000Y-52000000D03*
G04 #@! TD*
G04 #@! TO.C,C12*
X104000000Y-52000000D03*
X96500000Y-52000000D03*
G04 #@! TD*
G04 #@! TO.C,C10*
X78000000Y-52000000D03*
X70500000Y-52000000D03*
G04 #@! TD*
G04 #@! TO.C,C9*
X65000000Y-52000000D03*
X57500000Y-52000000D03*
G04 #@! TD*
D22*
G04 #@! TO.C,H6*
X42000000Y-97000000D03*
G04 #@! TD*
G04 #@! TO.C,H4*
X180000000Y-97000000D03*
G04 #@! TD*
G04 #@! TO.C,H2*
X180000000Y-46000000D03*
G04 #@! TD*
G04 #@! TO.C,H1*
X42000000Y-46000000D03*
G04 #@! TD*
D21*
G04 #@! TO.C,C2*
X63250000Y-89750000D03*
X73250000Y-89750000D03*
G04 #@! TD*
D14*
G04 #@! TO.C,J2*
X133870000Y-108250000D03*
X131330000Y-108250000D03*
X128790000Y-108250000D03*
D15*
X126250000Y-108250000D03*
G04 #@! TD*
D23*
G04 #@! TO.C,F2*
X54250000Y-93600000D03*
X54250000Y-71000000D03*
G04 #@! TD*
G04 #@! TO.C,F1*
X43500000Y-68650000D03*
X43500000Y-91250000D03*
G04 #@! TD*
D18*
G04 #@! TO.C,RV1*
X64250000Y-94550000D03*
X71750000Y-97250000D03*
G04 #@! TD*
M02*
