G04 #@! TF.GenerationSoftware,KiCad,Pcbnew,(5.1.8)-1*
G04 #@! TF.CreationDate,2021-11-11T09:43:21+02:00*
G04 #@! TF.ProjectId,controller,636f6e74-726f-46c6-9c65-722e6b696361,rev?*
G04 #@! TF.SameCoordinates,Original*
G04 #@! TF.FileFunction,Soldermask,Top*
G04 #@! TF.FilePolarity,Negative*
%FSLAX46Y46*%
G04 Gerber Fmt 4.6, Leading zero omitted, Abs format (unit mm)*
G04 Created by KiCad (PCBNEW (5.1.8)-1) date 2021-11-11 09:43:21*
%MOMM*%
%LPD*%
G01*
G04 APERTURE LIST*
%ADD10C,0.500000*%
%ADD11C,0.300000*%
%ADD12C,0.010000*%
%ADD13C,1.500000*%
%ADD14C,2.500000*%
%ADD15R,2.500000X2.500000*%
%ADD16O,1.600000X1.600000*%
%ADD17C,1.600000*%
%ADD18O,1.700000X1.700000*%
%ADD19R,1.700000X1.700000*%
%ADD20C,1.700000*%
%ADD21C,2.200000*%
%ADD22C,1.800000*%
%ADD23R,0.800000X2.200000*%
%ADD24C,2.300000*%
%ADD25R,2.300000X2.000000*%
%ADD26R,0.500000X0.800000*%
%ADD27R,0.400000X0.800000*%
%ADD28C,2.000000*%
%ADD29C,3.200000*%
%ADD30C,3.000000*%
%ADD31R,2.000000X0.900000*%
%ADD32R,0.900000X2.000000*%
%ADD33R,5.000000X5.000000*%
%ADD34C,1.000000*%
G04 APERTURE END LIST*
D10*
X66940922Y-107354761D02*
X67357589Y-109354761D01*
X68274255Y-107354761D01*
X69321875Y-107354761D02*
X69702827Y-107354761D01*
X69881398Y-107450000D01*
X70048065Y-107640476D01*
X70095684Y-108021428D01*
X70012351Y-108688095D01*
X69869494Y-109069047D01*
X69655208Y-109259523D01*
X69452827Y-109354761D01*
X69071875Y-109354761D01*
X68893303Y-109259523D01*
X68726636Y-109069047D01*
X68679017Y-108688095D01*
X68762351Y-108021428D01*
X68905208Y-107640476D01*
X69119494Y-107450000D01*
X69321875Y-107354761D01*
X71738541Y-109354761D02*
X70786160Y-109354761D01*
X71036160Y-107354761D01*
X72369494Y-107354761D02*
X73512351Y-107354761D01*
X72690922Y-109354761D02*
X72940922Y-107354761D01*
X74881398Y-109354761D02*
X73929017Y-109354761D01*
X74179017Y-107354761D01*
X76179017Y-107354761D02*
X76559970Y-107354761D01*
X76738541Y-107450000D01*
X76905208Y-107640476D01*
X76952827Y-108021428D01*
X76869494Y-108688095D01*
X76726636Y-109069047D01*
X76512351Y-109259523D01*
X76309970Y-109354761D01*
X75929017Y-109354761D01*
X75750446Y-109259523D01*
X75583779Y-109069047D01*
X75536160Y-108688095D01*
X75619494Y-108021428D01*
X75762351Y-107640476D01*
X75976636Y-107450000D01*
X76179017Y-107354761D01*
X78929017Y-107450000D02*
X78750446Y-107354761D01*
X78464732Y-107354761D01*
X78167113Y-107450000D01*
X77952827Y-107640476D01*
X77833779Y-107830952D01*
X77690922Y-108211904D01*
X77655208Y-108497619D01*
X77702827Y-108878571D01*
X77774255Y-109069047D01*
X77940922Y-109259523D01*
X78214732Y-109354761D01*
X78405208Y-109354761D01*
X78702827Y-109259523D01*
X78809970Y-109164285D01*
X78893303Y-108497619D01*
X78512351Y-108497619D01*
D11*
X82100000Y-109000000D02*
X86800000Y-102000000D01*
X91500000Y-109000000D02*
X82100000Y-109000000D01*
X86800000Y-102000000D02*
X91500000Y-109000000D01*
D12*
G04 #@! TO.C,V1*
G36*
X73561837Y-101391409D02*
G01*
X73744951Y-101393844D01*
X73924586Y-101397684D01*
X74099156Y-101402961D01*
X74267078Y-101409706D01*
X74426764Y-101417950D01*
X74575080Y-101427610D01*
X74714072Y-101438780D01*
X74834954Y-101451099D01*
X74939933Y-101465300D01*
X75031213Y-101482118D01*
X75111001Y-101502286D01*
X75181503Y-101526539D01*
X75244925Y-101555610D01*
X75303471Y-101590234D01*
X75359350Y-101631144D01*
X75414765Y-101679075D01*
X75459000Y-101721720D01*
X75521282Y-101788124D01*
X75573181Y-101853586D01*
X75616070Y-101921269D01*
X75651325Y-101994337D01*
X75680318Y-102075956D01*
X75704423Y-102169290D01*
X75725015Y-102277503D01*
X75738229Y-102364912D01*
X75749270Y-102447763D01*
X75758451Y-102525422D01*
X75765927Y-102600906D01*
X75771857Y-102677230D01*
X75776396Y-102757410D01*
X75779703Y-102844461D01*
X75781934Y-102941398D01*
X75783246Y-103051239D01*
X75783797Y-103176997D01*
X75783838Y-103240640D01*
X75782935Y-103413480D01*
X75780209Y-103568365D01*
X75775483Y-103707591D01*
X75768586Y-103833456D01*
X75759342Y-103948255D01*
X75747579Y-104054287D01*
X75733121Y-104153848D01*
X75715796Y-104249235D01*
X75702858Y-104310340D01*
X75664479Y-104439532D01*
X75609922Y-104558875D01*
X75540517Y-104667044D01*
X75457592Y-104762715D01*
X75362475Y-104844564D01*
X75256494Y-104911266D01*
X75140979Y-104961498D01*
X75017257Y-104993935D01*
X75017040Y-104993974D01*
X74990216Y-104997694D01*
X74953492Y-105000771D01*
X74905278Y-105003247D01*
X74843983Y-105005166D01*
X74768015Y-105006571D01*
X74675785Y-105007505D01*
X74565701Y-105008013D01*
X74497184Y-105008125D01*
X74053528Y-105008480D01*
X73992920Y-105071980D01*
X73976237Y-105090079D01*
X73947399Y-105122086D01*
X73907633Y-105166614D01*
X73858166Y-105222278D01*
X73800223Y-105287691D01*
X73735030Y-105361468D01*
X73663814Y-105442224D01*
X73587802Y-105528573D01*
X73508218Y-105619128D01*
X73442270Y-105694280D01*
X73361142Y-105786723D01*
X73282933Y-105875708D01*
X73208827Y-105959898D01*
X73140007Y-106037953D01*
X73077659Y-106108533D01*
X73022965Y-106170300D01*
X72977111Y-106221914D01*
X72941279Y-106262037D01*
X72916654Y-106289329D01*
X72905515Y-106301340D01*
X72868575Y-106334040D01*
X72838343Y-106348380D01*
X72813708Y-106344755D01*
X72804192Y-106337408D01*
X72793293Y-106316853D01*
X72792000Y-106307758D01*
X72795278Y-106295232D01*
X72804721Y-106265277D01*
X72819738Y-106219631D01*
X72839740Y-106160029D01*
X72864137Y-106088209D01*
X72892340Y-106005906D01*
X72923759Y-105914858D01*
X72957804Y-105816800D01*
X72990532Y-105723050D01*
X73028930Y-105613310D01*
X73067285Y-105503638D01*
X73104719Y-105396550D01*
X73140352Y-105294563D01*
X73173306Y-105200196D01*
X73202700Y-105115965D01*
X73227657Y-105044387D01*
X73247296Y-104987979D01*
X73256059Y-104962760D01*
X73279139Y-104898031D01*
X73302824Y-104834720D01*
X73325354Y-104777313D01*
X73344968Y-104730299D01*
X73359682Y-104698600D01*
X73406002Y-104626291D01*
X73466834Y-104557494D01*
X73536489Y-104497908D01*
X73599720Y-104458061D01*
X73632191Y-104441487D01*
X73661798Y-104427785D01*
X73690849Y-104416681D01*
X73721654Y-104407901D01*
X73756520Y-104401170D01*
X73797755Y-104396214D01*
X73847668Y-104392759D01*
X73908567Y-104390530D01*
X73982760Y-104389253D01*
X74072557Y-104388654D01*
X74180264Y-104388458D01*
X74185386Y-104388454D01*
X74341386Y-104387851D01*
X74477756Y-104386245D01*
X74595159Y-104383605D01*
X74694262Y-104379897D01*
X74775730Y-104375089D01*
X74840229Y-104369149D01*
X74888424Y-104362044D01*
X74920981Y-104353742D01*
X74924541Y-104352398D01*
X74969736Y-104324826D01*
X75010367Y-104282590D01*
X75041626Y-104231344D01*
X75053130Y-104201203D01*
X75071581Y-104125825D01*
X75087650Y-104032711D01*
X75101303Y-103924312D01*
X75112507Y-103803075D01*
X75121228Y-103671451D01*
X75127433Y-103531887D01*
X75131087Y-103386832D01*
X75132158Y-103238737D01*
X75130611Y-103090048D01*
X75126414Y-102943217D01*
X75119533Y-102800690D01*
X75109933Y-102664918D01*
X75097582Y-102538349D01*
X75082446Y-102423432D01*
X75077899Y-102394848D01*
X75061860Y-102313583D01*
X75042270Y-102250036D01*
X75016694Y-102201635D01*
X74982693Y-102165809D01*
X74937832Y-102139986D01*
X74879673Y-102121596D01*
X74806201Y-102108127D01*
X74718925Y-102097387D01*
X74613293Y-102087658D01*
X74491247Y-102078958D01*
X74354728Y-102071304D01*
X74205676Y-102064714D01*
X74046033Y-102059204D01*
X73877739Y-102054793D01*
X73702734Y-102051497D01*
X73522960Y-102049335D01*
X73340358Y-102048324D01*
X73156868Y-102048480D01*
X72974431Y-102049823D01*
X72794988Y-102052368D01*
X72620480Y-102056134D01*
X72452847Y-102061138D01*
X72294030Y-102067397D01*
X72145970Y-102074929D01*
X72019840Y-102083076D01*
X71908592Y-102091923D01*
X71815775Y-102101669D01*
X71739499Y-102113449D01*
X71677875Y-102128400D01*
X71629016Y-102147659D01*
X71591033Y-102172363D01*
X71562036Y-102203648D01*
X71540138Y-102242651D01*
X71523449Y-102290508D01*
X71510081Y-102348356D01*
X71501780Y-102394848D01*
X71485894Y-102506185D01*
X71472801Y-102629834D01*
X71462467Y-102763345D01*
X71454858Y-102904271D01*
X71449941Y-103050162D01*
X71447683Y-103198571D01*
X71448049Y-103347047D01*
X71451007Y-103493143D01*
X71456523Y-103634410D01*
X71464563Y-103768399D01*
X71475094Y-103892662D01*
X71488082Y-104004749D01*
X71503494Y-104102213D01*
X71521296Y-104182604D01*
X71526521Y-104201108D01*
X71553863Y-104258451D01*
X71597188Y-104306265D01*
X71650600Y-104339553D01*
X71685447Y-104349910D01*
X71739539Y-104358780D01*
X71811850Y-104366090D01*
X71901356Y-104371770D01*
X72007031Y-104375749D01*
X72127849Y-104377957D01*
X72213753Y-104378409D01*
X72443226Y-104378560D01*
X72508701Y-104309980D01*
X72528063Y-104289075D01*
X72559265Y-104254599D01*
X72600775Y-104208275D01*
X72651061Y-104151831D01*
X72708588Y-104086992D01*
X72771825Y-104015483D01*
X72839237Y-103939031D01*
X72909293Y-103859361D01*
X72934548Y-103830585D01*
X73009401Y-103745257D01*
X73085528Y-103658480D01*
X73160858Y-103572613D01*
X73233321Y-103490018D01*
X73300846Y-103413054D01*
X73361364Y-103344081D01*
X73412803Y-103285458D01*
X73453094Y-103239546D01*
X73456008Y-103236225D01*
X73502300Y-103184205D01*
X73545421Y-103137109D01*
X73583201Y-103097201D01*
X73613468Y-103066744D01*
X73634053Y-103048000D01*
X73641120Y-103043206D01*
X73664597Y-103039747D01*
X73685772Y-103052401D01*
X73701037Y-103068972D01*
X73706400Y-103079441D01*
X73703133Y-103090385D01*
X73693754Y-103118661D01*
X73678896Y-103162437D01*
X73659191Y-103219876D01*
X73635271Y-103289145D01*
X73607768Y-103368408D01*
X73577315Y-103455830D01*
X73544545Y-103549577D01*
X73534501Y-103578246D01*
X73496614Y-103686390D01*
X73457091Y-103799302D01*
X73417172Y-103913428D01*
X73378099Y-104025215D01*
X73341114Y-104131111D01*
X73307459Y-104227561D01*
X73278374Y-104311014D01*
X73260567Y-104362189D01*
X73233566Y-104438559D01*
X73206980Y-104511358D01*
X73181959Y-104577615D01*
X73159654Y-104634356D01*
X73141216Y-104678607D01*
X73127794Y-104707396D01*
X73125125Y-104712225D01*
X73067263Y-104791466D01*
X72993747Y-104862327D01*
X72908501Y-104921869D01*
X72815451Y-104967152D01*
X72760256Y-104985503D01*
X72744653Y-104989385D01*
X72727071Y-104992668D01*
X72705764Y-104995401D01*
X72678988Y-104997634D01*
X72644996Y-104999415D01*
X72602043Y-105000795D01*
X72548385Y-105001822D01*
X72482276Y-105002545D01*
X72401970Y-105003014D01*
X72305722Y-105003279D01*
X72191788Y-105003388D01*
X72126520Y-105003400D01*
X71557560Y-105003400D01*
X71458565Y-104969118D01*
X71332889Y-104915572D01*
X71220456Y-104846651D01*
X71121514Y-104762577D01*
X71036313Y-104663572D01*
X70965103Y-104549856D01*
X70947854Y-104515720D01*
X70920768Y-104452597D01*
X70896841Y-104381552D01*
X70875669Y-104300557D01*
X70856847Y-104207584D01*
X70839971Y-104100608D01*
X70824635Y-103977601D01*
X70810435Y-103836536D01*
X70808919Y-103819760D01*
X70805151Y-103764497D01*
X70802009Y-103692043D01*
X70799494Y-103605517D01*
X70797606Y-103508037D01*
X70796345Y-103402723D01*
X70795711Y-103292693D01*
X70795703Y-103181067D01*
X70796323Y-103070964D01*
X70797569Y-102965502D01*
X70799442Y-102867800D01*
X70801942Y-102780978D01*
X70805069Y-102708154D01*
X70808823Y-102652448D01*
X70808919Y-102651360D01*
X70823468Y-102503721D01*
X70839356Y-102374327D01*
X70857201Y-102261114D01*
X70877623Y-102162018D01*
X70901239Y-102074976D01*
X70928670Y-101997925D01*
X70960534Y-101928802D01*
X70997450Y-101865543D01*
X71040037Y-101806085D01*
X71075138Y-101763808D01*
X71169071Y-101669712D01*
X71270673Y-101593852D01*
X71382051Y-101534921D01*
X71505316Y-101491611D01*
X71520627Y-101487501D01*
X71586007Y-101473521D01*
X71670099Y-101460512D01*
X71771320Y-101448504D01*
X71888083Y-101437529D01*
X72018804Y-101427618D01*
X72161898Y-101418801D01*
X72315778Y-101411110D01*
X72478861Y-101404576D01*
X72649561Y-101399230D01*
X72826293Y-101395104D01*
X73007472Y-101392227D01*
X73191512Y-101390632D01*
X73376829Y-101390349D01*
X73561837Y-101391409D01*
G37*
X73561837Y-101391409D02*
X73744951Y-101393844D01*
X73924586Y-101397684D01*
X74099156Y-101402961D01*
X74267078Y-101409706D01*
X74426764Y-101417950D01*
X74575080Y-101427610D01*
X74714072Y-101438780D01*
X74834954Y-101451099D01*
X74939933Y-101465300D01*
X75031213Y-101482118D01*
X75111001Y-101502286D01*
X75181503Y-101526539D01*
X75244925Y-101555610D01*
X75303471Y-101590234D01*
X75359350Y-101631144D01*
X75414765Y-101679075D01*
X75459000Y-101721720D01*
X75521282Y-101788124D01*
X75573181Y-101853586D01*
X75616070Y-101921269D01*
X75651325Y-101994337D01*
X75680318Y-102075956D01*
X75704423Y-102169290D01*
X75725015Y-102277503D01*
X75738229Y-102364912D01*
X75749270Y-102447763D01*
X75758451Y-102525422D01*
X75765927Y-102600906D01*
X75771857Y-102677230D01*
X75776396Y-102757410D01*
X75779703Y-102844461D01*
X75781934Y-102941398D01*
X75783246Y-103051239D01*
X75783797Y-103176997D01*
X75783838Y-103240640D01*
X75782935Y-103413480D01*
X75780209Y-103568365D01*
X75775483Y-103707591D01*
X75768586Y-103833456D01*
X75759342Y-103948255D01*
X75747579Y-104054287D01*
X75733121Y-104153848D01*
X75715796Y-104249235D01*
X75702858Y-104310340D01*
X75664479Y-104439532D01*
X75609922Y-104558875D01*
X75540517Y-104667044D01*
X75457592Y-104762715D01*
X75362475Y-104844564D01*
X75256494Y-104911266D01*
X75140979Y-104961498D01*
X75017257Y-104993935D01*
X75017040Y-104993974D01*
X74990216Y-104997694D01*
X74953492Y-105000771D01*
X74905278Y-105003247D01*
X74843983Y-105005166D01*
X74768015Y-105006571D01*
X74675785Y-105007505D01*
X74565701Y-105008013D01*
X74497184Y-105008125D01*
X74053528Y-105008480D01*
X73992920Y-105071980D01*
X73976237Y-105090079D01*
X73947399Y-105122086D01*
X73907633Y-105166614D01*
X73858166Y-105222278D01*
X73800223Y-105287691D01*
X73735030Y-105361468D01*
X73663814Y-105442224D01*
X73587802Y-105528573D01*
X73508218Y-105619128D01*
X73442270Y-105694280D01*
X73361142Y-105786723D01*
X73282933Y-105875708D01*
X73208827Y-105959898D01*
X73140007Y-106037953D01*
X73077659Y-106108533D01*
X73022965Y-106170300D01*
X72977111Y-106221914D01*
X72941279Y-106262037D01*
X72916654Y-106289329D01*
X72905515Y-106301340D01*
X72868575Y-106334040D01*
X72838343Y-106348380D01*
X72813708Y-106344755D01*
X72804192Y-106337408D01*
X72793293Y-106316853D01*
X72792000Y-106307758D01*
X72795278Y-106295232D01*
X72804721Y-106265277D01*
X72819738Y-106219631D01*
X72839740Y-106160029D01*
X72864137Y-106088209D01*
X72892340Y-106005906D01*
X72923759Y-105914858D01*
X72957804Y-105816800D01*
X72990532Y-105723050D01*
X73028930Y-105613310D01*
X73067285Y-105503638D01*
X73104719Y-105396550D01*
X73140352Y-105294563D01*
X73173306Y-105200196D01*
X73202700Y-105115965D01*
X73227657Y-105044387D01*
X73247296Y-104987979D01*
X73256059Y-104962760D01*
X73279139Y-104898031D01*
X73302824Y-104834720D01*
X73325354Y-104777313D01*
X73344968Y-104730299D01*
X73359682Y-104698600D01*
X73406002Y-104626291D01*
X73466834Y-104557494D01*
X73536489Y-104497908D01*
X73599720Y-104458061D01*
X73632191Y-104441487D01*
X73661798Y-104427785D01*
X73690849Y-104416681D01*
X73721654Y-104407901D01*
X73756520Y-104401170D01*
X73797755Y-104396214D01*
X73847668Y-104392759D01*
X73908567Y-104390530D01*
X73982760Y-104389253D01*
X74072557Y-104388654D01*
X74180264Y-104388458D01*
X74185386Y-104388454D01*
X74341386Y-104387851D01*
X74477756Y-104386245D01*
X74595159Y-104383605D01*
X74694262Y-104379897D01*
X74775730Y-104375089D01*
X74840229Y-104369149D01*
X74888424Y-104362044D01*
X74920981Y-104353742D01*
X74924541Y-104352398D01*
X74969736Y-104324826D01*
X75010367Y-104282590D01*
X75041626Y-104231344D01*
X75053130Y-104201203D01*
X75071581Y-104125825D01*
X75087650Y-104032711D01*
X75101303Y-103924312D01*
X75112507Y-103803075D01*
X75121228Y-103671451D01*
X75127433Y-103531887D01*
X75131087Y-103386832D01*
X75132158Y-103238737D01*
X75130611Y-103090048D01*
X75126414Y-102943217D01*
X75119533Y-102800690D01*
X75109933Y-102664918D01*
X75097582Y-102538349D01*
X75082446Y-102423432D01*
X75077899Y-102394848D01*
X75061860Y-102313583D01*
X75042270Y-102250036D01*
X75016694Y-102201635D01*
X74982693Y-102165809D01*
X74937832Y-102139986D01*
X74879673Y-102121596D01*
X74806201Y-102108127D01*
X74718925Y-102097387D01*
X74613293Y-102087658D01*
X74491247Y-102078958D01*
X74354728Y-102071304D01*
X74205676Y-102064714D01*
X74046033Y-102059204D01*
X73877739Y-102054793D01*
X73702734Y-102051497D01*
X73522960Y-102049335D01*
X73340358Y-102048324D01*
X73156868Y-102048480D01*
X72974431Y-102049823D01*
X72794988Y-102052368D01*
X72620480Y-102056134D01*
X72452847Y-102061138D01*
X72294030Y-102067397D01*
X72145970Y-102074929D01*
X72019840Y-102083076D01*
X71908592Y-102091923D01*
X71815775Y-102101669D01*
X71739499Y-102113449D01*
X71677875Y-102128400D01*
X71629016Y-102147659D01*
X71591033Y-102172363D01*
X71562036Y-102203648D01*
X71540138Y-102242651D01*
X71523449Y-102290508D01*
X71510081Y-102348356D01*
X71501780Y-102394848D01*
X71485894Y-102506185D01*
X71472801Y-102629834D01*
X71462467Y-102763345D01*
X71454858Y-102904271D01*
X71449941Y-103050162D01*
X71447683Y-103198571D01*
X71448049Y-103347047D01*
X71451007Y-103493143D01*
X71456523Y-103634410D01*
X71464563Y-103768399D01*
X71475094Y-103892662D01*
X71488082Y-104004749D01*
X71503494Y-104102213D01*
X71521296Y-104182604D01*
X71526521Y-104201108D01*
X71553863Y-104258451D01*
X71597188Y-104306265D01*
X71650600Y-104339553D01*
X71685447Y-104349910D01*
X71739539Y-104358780D01*
X71811850Y-104366090D01*
X71901356Y-104371770D01*
X72007031Y-104375749D01*
X72127849Y-104377957D01*
X72213753Y-104378409D01*
X72443226Y-104378560D01*
X72508701Y-104309980D01*
X72528063Y-104289075D01*
X72559265Y-104254599D01*
X72600775Y-104208275D01*
X72651061Y-104151831D01*
X72708588Y-104086992D01*
X72771825Y-104015483D01*
X72839237Y-103939031D01*
X72909293Y-103859361D01*
X72934548Y-103830585D01*
X73009401Y-103745257D01*
X73085528Y-103658480D01*
X73160858Y-103572613D01*
X73233321Y-103490018D01*
X73300846Y-103413054D01*
X73361364Y-103344081D01*
X73412803Y-103285458D01*
X73453094Y-103239546D01*
X73456008Y-103236225D01*
X73502300Y-103184205D01*
X73545421Y-103137109D01*
X73583201Y-103097201D01*
X73613468Y-103066744D01*
X73634053Y-103048000D01*
X73641120Y-103043206D01*
X73664597Y-103039747D01*
X73685772Y-103052401D01*
X73701037Y-103068972D01*
X73706400Y-103079441D01*
X73703133Y-103090385D01*
X73693754Y-103118661D01*
X73678896Y-103162437D01*
X73659191Y-103219876D01*
X73635271Y-103289145D01*
X73607768Y-103368408D01*
X73577315Y-103455830D01*
X73544545Y-103549577D01*
X73534501Y-103578246D01*
X73496614Y-103686390D01*
X73457091Y-103799302D01*
X73417172Y-103913428D01*
X73378099Y-104025215D01*
X73341114Y-104131111D01*
X73307459Y-104227561D01*
X73278374Y-104311014D01*
X73260567Y-104362189D01*
X73233566Y-104438559D01*
X73206980Y-104511358D01*
X73181959Y-104577615D01*
X73159654Y-104634356D01*
X73141216Y-104678607D01*
X73127794Y-104707396D01*
X73125125Y-104712225D01*
X73067263Y-104791466D01*
X72993747Y-104862327D01*
X72908501Y-104921869D01*
X72815451Y-104967152D01*
X72760256Y-104985503D01*
X72744653Y-104989385D01*
X72727071Y-104992668D01*
X72705764Y-104995401D01*
X72678988Y-104997634D01*
X72644996Y-104999415D01*
X72602043Y-105000795D01*
X72548385Y-105001822D01*
X72482276Y-105002545D01*
X72401970Y-105003014D01*
X72305722Y-105003279D01*
X72191788Y-105003388D01*
X72126520Y-105003400D01*
X71557560Y-105003400D01*
X71458565Y-104969118D01*
X71332889Y-104915572D01*
X71220456Y-104846651D01*
X71121514Y-104762577D01*
X71036313Y-104663572D01*
X70965103Y-104549856D01*
X70947854Y-104515720D01*
X70920768Y-104452597D01*
X70896841Y-104381552D01*
X70875669Y-104300557D01*
X70856847Y-104207584D01*
X70839971Y-104100608D01*
X70824635Y-103977601D01*
X70810435Y-103836536D01*
X70808919Y-103819760D01*
X70805151Y-103764497D01*
X70802009Y-103692043D01*
X70799494Y-103605517D01*
X70797606Y-103508037D01*
X70796345Y-103402723D01*
X70795711Y-103292693D01*
X70795703Y-103181067D01*
X70796323Y-103070964D01*
X70797569Y-102965502D01*
X70799442Y-102867800D01*
X70801942Y-102780978D01*
X70805069Y-102708154D01*
X70808823Y-102652448D01*
X70808919Y-102651360D01*
X70823468Y-102503721D01*
X70839356Y-102374327D01*
X70857201Y-102261114D01*
X70877623Y-102162018D01*
X70901239Y-102074976D01*
X70928670Y-101997925D01*
X70960534Y-101928802D01*
X70997450Y-101865543D01*
X71040037Y-101806085D01*
X71075138Y-101763808D01*
X71169071Y-101669712D01*
X71270673Y-101593852D01*
X71382051Y-101534921D01*
X71505316Y-101491611D01*
X71520627Y-101487501D01*
X71586007Y-101473521D01*
X71670099Y-101460512D01*
X71771320Y-101448504D01*
X71888083Y-101437529D01*
X72018804Y-101427618D01*
X72161898Y-101418801D01*
X72315778Y-101411110D01*
X72478861Y-101404576D01*
X72649561Y-101399230D01*
X72826293Y-101395104D01*
X73007472Y-101392227D01*
X73191512Y-101390632D01*
X73376829Y-101390349D01*
X73561837Y-101391409D01*
G04 #@! TD*
D13*
G04 #@! TO.C,TP5*
X114500000Y-89500000D03*
G04 #@! TD*
G04 #@! TO.C,TP4*
X137500000Y-90750000D03*
G04 #@! TD*
G04 #@! TO.C,TP3*
X140000000Y-90750000D03*
G04 #@! TD*
G04 #@! TO.C,TP2*
X135000000Y-90750000D03*
G04 #@! TD*
G04 #@! TO.C,TP1*
X132500000Y-90750000D03*
G04 #@! TD*
D14*
G04 #@! TO.C,J6*
X51000000Y-36500000D03*
D15*
X56000000Y-36500000D03*
G04 #@! TD*
D14*
G04 #@! TO.C,J5*
X122000000Y-36500000D03*
X127000000Y-36500000D03*
X132000000Y-36500000D03*
X137000000Y-36500000D03*
X142000000Y-36500000D03*
X147000000Y-36500000D03*
X152000000Y-36500000D03*
X157000000Y-36500000D03*
X162000000Y-36500000D03*
D15*
X167000000Y-36500000D03*
G04 #@! TD*
D14*
G04 #@! TO.C,J4*
X72000000Y-36500000D03*
X77000000Y-36500000D03*
X82000000Y-36500000D03*
X87000000Y-36500000D03*
X92000000Y-36500000D03*
X97000000Y-36500000D03*
X102000000Y-36500000D03*
X107000000Y-36500000D03*
X112000000Y-36500000D03*
D15*
X117000000Y-36500000D03*
G04 #@! TD*
D16*
G04 #@! TO.C,R18*
X173750000Y-41420000D03*
D17*
X173750000Y-46500000D03*
G04 #@! TD*
D16*
G04 #@! TO.C,R17*
X166830000Y-46500000D03*
D17*
X161750000Y-46500000D03*
G04 #@! TD*
D16*
G04 #@! TO.C,R16*
X153830000Y-46500000D03*
D17*
X148750000Y-46500000D03*
G04 #@! TD*
D16*
G04 #@! TO.C,R15*
X140830000Y-46500000D03*
D17*
X135750000Y-46500000D03*
G04 #@! TD*
D16*
G04 #@! TO.C,R14*
X127830000Y-46500000D03*
D17*
X122750000Y-46500000D03*
G04 #@! TD*
D16*
G04 #@! TO.C,R13*
X114830000Y-46500000D03*
D17*
X109750000Y-46500000D03*
G04 #@! TD*
D16*
G04 #@! TO.C,R12*
X101830000Y-46500000D03*
D17*
X96750000Y-46500000D03*
G04 #@! TD*
D16*
G04 #@! TO.C,R11*
X88830000Y-46500000D03*
D17*
X83750000Y-46500000D03*
G04 #@! TD*
D16*
G04 #@! TO.C,R10*
X75830000Y-46500000D03*
D17*
X70750000Y-46500000D03*
G04 #@! TD*
D16*
G04 #@! TO.C,R9*
X62830000Y-46500000D03*
D17*
X57750000Y-46500000D03*
G04 #@! TD*
D16*
G04 #@! TO.C,R2*
X74700000Y-85000000D03*
D17*
X62000000Y-85000000D03*
G04 #@! TD*
D18*
G04 #@! TO.C,J1*
X120790000Y-108250000D03*
X118250000Y-108250000D03*
D19*
X115710000Y-108250000D03*
G04 #@! TD*
G04 #@! TO.C,C4*
G36*
G01*
X120500000Y-79250000D02*
X118500000Y-79250000D01*
G75*
G02*
X118250000Y-79000000I0J250000D01*
G01*
X118250000Y-75100000D01*
G75*
G02*
X118500000Y-74850000I250000J0D01*
G01*
X120500000Y-74850000D01*
G75*
G02*
X120750000Y-75100000I0J-250000D01*
G01*
X120750000Y-79000000D01*
G75*
G02*
X120500000Y-79250000I-250000J0D01*
G01*
G37*
G36*
G01*
X120500000Y-86650000D02*
X118500000Y-86650000D01*
G75*
G02*
X118250000Y-86400000I0J250000D01*
G01*
X118250000Y-82500000D01*
G75*
G02*
X118500000Y-82250000I250000J0D01*
G01*
X120500000Y-82250000D01*
G75*
G02*
X120750000Y-82500000I0J-250000D01*
G01*
X120750000Y-86400000D01*
G75*
G02*
X120500000Y-86650000I-250000J0D01*
G01*
G37*
G04 #@! TD*
D20*
G04 #@! TO.C,SW1*
X108750000Y-108750000D03*
X104250000Y-108750000D03*
D21*
X110000000Y-106250000D03*
X103000000Y-106250000D03*
G04 #@! TD*
D22*
G04 #@! TO.C,FL1*
X72500000Y-73250000D03*
X72500000Y-80250000D03*
X64500000Y-80250000D03*
X64500000Y-73250000D03*
G04 #@! TD*
D23*
G04 #@! TO.C,U11*
X181810000Y-65450000D03*
X181810000Y-56550000D03*
X179270000Y-65450000D03*
X179270000Y-56550000D03*
X176730000Y-65450000D03*
X174190000Y-65450000D03*
X174190000Y-56550000D03*
G04 #@! TD*
G04 #@! TO.C,U10*
X168810000Y-65450000D03*
X168810000Y-56550000D03*
X166270000Y-65450000D03*
X166270000Y-56550000D03*
X163730000Y-65450000D03*
X161190000Y-65450000D03*
X161190000Y-56550000D03*
G04 #@! TD*
G04 #@! TO.C,U9*
X155810000Y-65450000D03*
X155810000Y-56550000D03*
X153270000Y-65450000D03*
X153270000Y-56550000D03*
X150730000Y-65450000D03*
X148190000Y-65450000D03*
X148190000Y-56550000D03*
G04 #@! TD*
G04 #@! TO.C,U8*
X142810000Y-65450000D03*
X142810000Y-56550000D03*
X140270000Y-65450000D03*
X140270000Y-56550000D03*
X137730000Y-65450000D03*
X135190000Y-65450000D03*
X135190000Y-56550000D03*
G04 #@! TD*
G04 #@! TO.C,U7*
X129810000Y-65450000D03*
X129810000Y-56550000D03*
X127270000Y-65450000D03*
X127270000Y-56550000D03*
X124730000Y-65450000D03*
X122190000Y-65450000D03*
X122190000Y-56550000D03*
G04 #@! TD*
G04 #@! TO.C,U6*
X116810000Y-65450000D03*
X116810000Y-56550000D03*
X114270000Y-65450000D03*
X114270000Y-56550000D03*
X111730000Y-65450000D03*
X109190000Y-65450000D03*
X109190000Y-56550000D03*
G04 #@! TD*
G04 #@! TO.C,U5*
X103810000Y-65450000D03*
X103810000Y-56550000D03*
X101270000Y-65450000D03*
X101270000Y-56550000D03*
X98730000Y-65450000D03*
X96190000Y-65450000D03*
X96190000Y-56550000D03*
G04 #@! TD*
G04 #@! TO.C,U4*
X90810000Y-65450000D03*
X90810000Y-56550000D03*
X88270000Y-65450000D03*
X88270000Y-56550000D03*
X85730000Y-65450000D03*
X83190000Y-65450000D03*
X83190000Y-56550000D03*
G04 #@! TD*
G04 #@! TO.C,U3*
X77810000Y-65450000D03*
X77810000Y-56550000D03*
X75270000Y-65450000D03*
X75270000Y-56550000D03*
X72730000Y-65450000D03*
X70190000Y-65450000D03*
X70190000Y-56550000D03*
G04 #@! TD*
G04 #@! TO.C,U2*
X64810000Y-65450000D03*
X64810000Y-56550000D03*
X62270000Y-65450000D03*
X62270000Y-56550000D03*
X59730000Y-65450000D03*
X57190000Y-65450000D03*
X57190000Y-56550000D03*
G04 #@! TD*
D24*
G04 #@! TO.C,PS1*
X109650000Y-88450000D03*
X80250000Y-83250000D03*
D25*
X80250000Y-78250000D03*
D24*
X109650000Y-73050000D03*
G04 #@! TD*
D14*
G04 #@! TO.C,H5*
X179750000Y-78000000D03*
G04 #@! TD*
G04 #@! TO.C,H3*
X138750000Y-78000000D03*
G04 #@! TD*
D26*
G04 #@! TO.C,RN1*
X151700000Y-71100000D03*
D27*
X150900000Y-71100000D03*
D26*
X149300000Y-71100000D03*
D27*
X150100000Y-71100000D03*
D26*
X151700000Y-72900000D03*
D27*
X150100000Y-72900000D03*
X150900000Y-72900000D03*
D26*
X149300000Y-72900000D03*
G04 #@! TD*
D28*
G04 #@! TO.C,C11*
X91000000Y-52000000D03*
X83500000Y-52000000D03*
G04 #@! TD*
D26*
G04 #@! TO.C,RN3*
X174200000Y-71100000D03*
D27*
X173400000Y-71100000D03*
D26*
X171800000Y-71100000D03*
D27*
X172600000Y-71100000D03*
D26*
X174200000Y-72900000D03*
D27*
X172600000Y-72900000D03*
X173400000Y-72900000D03*
D26*
X171800000Y-72900000D03*
G04 #@! TD*
G04 #@! TO.C,RN2*
X163200000Y-71100000D03*
D27*
X162400000Y-71100000D03*
D26*
X160800000Y-71100000D03*
D27*
X161600000Y-71100000D03*
D26*
X163200000Y-72900000D03*
D27*
X161600000Y-72900000D03*
X162400000Y-72900000D03*
D26*
X160800000Y-72900000D03*
G04 #@! TD*
D28*
G04 #@! TO.C,C18*
X182000000Y-52000000D03*
X174500000Y-52000000D03*
G04 #@! TD*
G04 #@! TO.C,C17*
X169000000Y-52000000D03*
X161500000Y-52000000D03*
G04 #@! TD*
G04 #@! TO.C,C16*
X156000000Y-52000000D03*
X148500000Y-52000000D03*
G04 #@! TD*
G04 #@! TO.C,C15*
X143000000Y-52000000D03*
X135500000Y-52000000D03*
G04 #@! TD*
G04 #@! TO.C,C14*
X130000000Y-52000000D03*
X122500000Y-52000000D03*
G04 #@! TD*
G04 #@! TO.C,C13*
X117000000Y-52000000D03*
X109500000Y-52000000D03*
G04 #@! TD*
G04 #@! TO.C,C12*
X104000000Y-52000000D03*
X96500000Y-52000000D03*
G04 #@! TD*
G04 #@! TO.C,C10*
X78000000Y-52000000D03*
X70500000Y-52000000D03*
G04 #@! TD*
G04 #@! TO.C,C9*
X65000000Y-52000000D03*
X57500000Y-52000000D03*
G04 #@! TD*
D29*
G04 #@! TO.C,H6*
X42000000Y-97000000D03*
G04 #@! TD*
G04 #@! TO.C,H4*
X180000000Y-97000000D03*
G04 #@! TD*
G04 #@! TO.C,H2*
X180000000Y-46000000D03*
G04 #@! TD*
G04 #@! TO.C,H1*
X42000000Y-46000000D03*
G04 #@! TD*
D28*
G04 #@! TO.C,C2*
X63250000Y-89750000D03*
X73250000Y-89750000D03*
G04 #@! TD*
D18*
G04 #@! TO.C,J2*
X133870000Y-108250000D03*
X131330000Y-108250000D03*
X128790000Y-108250000D03*
D19*
X126250000Y-108250000D03*
G04 #@! TD*
D30*
G04 #@! TO.C,F2*
X54250000Y-93600000D03*
X54250000Y-71000000D03*
G04 #@! TD*
G04 #@! TO.C,F1*
X43500000Y-68650000D03*
X43500000Y-91250000D03*
G04 #@! TD*
G04 #@! TO.C,J3*
G36*
G01*
X139300000Y-108049999D02*
X139300000Y-109350001D01*
G75*
G02*
X139050001Y-109600000I-249999J0D01*
G01*
X138349999Y-109600000D01*
G75*
G02*
X138100000Y-109350001I0J249999D01*
G01*
X138100000Y-108049999D01*
G75*
G02*
X138349999Y-107800000I249999J0D01*
G01*
X139050001Y-107800000D01*
G75*
G02*
X139300000Y-108049999I0J-249999D01*
G01*
G37*
G36*
G01*
X146900000Y-108049999D02*
X146900000Y-109350001D01*
G75*
G02*
X146650001Y-109600000I-249999J0D01*
G01*
X145949999Y-109600000D01*
G75*
G02*
X145700000Y-109350001I0J249999D01*
G01*
X145700000Y-108049999D01*
G75*
G02*
X145949999Y-107800000I249999J0D01*
G01*
X146650001Y-107800000D01*
G75*
G02*
X146900000Y-108049999I0J-249999D01*
G01*
G37*
G36*
G01*
X140300000Y-105550000D02*
X140300000Y-106800000D01*
G75*
G02*
X140150000Y-106950000I-150000J0D01*
G01*
X139850000Y-106950000D01*
G75*
G02*
X139700000Y-106800000I0J150000D01*
G01*
X139700000Y-105550000D01*
G75*
G02*
X139850000Y-105400000I150000J0D01*
G01*
X140150000Y-105400000D01*
G75*
G02*
X140300000Y-105550000I0J-150000D01*
G01*
G37*
G36*
G01*
X141300000Y-105550000D02*
X141300000Y-106800000D01*
G75*
G02*
X141150000Y-106950000I-150000J0D01*
G01*
X140850000Y-106950000D01*
G75*
G02*
X140700000Y-106800000I0J150000D01*
G01*
X140700000Y-105550000D01*
G75*
G02*
X140850000Y-105400000I150000J0D01*
G01*
X141150000Y-105400000D01*
G75*
G02*
X141300000Y-105550000I0J-150000D01*
G01*
G37*
G36*
G01*
X142300000Y-105550000D02*
X142300000Y-106800000D01*
G75*
G02*
X142150000Y-106950000I-150000J0D01*
G01*
X141850000Y-106950000D01*
G75*
G02*
X141700000Y-106800000I0J150000D01*
G01*
X141700000Y-105550000D01*
G75*
G02*
X141850000Y-105400000I150000J0D01*
G01*
X142150000Y-105400000D01*
G75*
G02*
X142300000Y-105550000I0J-150000D01*
G01*
G37*
G36*
G01*
X143300000Y-105550000D02*
X143300000Y-106800000D01*
G75*
G02*
X143150000Y-106950000I-150000J0D01*
G01*
X142850000Y-106950000D01*
G75*
G02*
X142700000Y-106800000I0J150000D01*
G01*
X142700000Y-105550000D01*
G75*
G02*
X142850000Y-105400000I150000J0D01*
G01*
X143150000Y-105400000D01*
G75*
G02*
X143300000Y-105550000I0J-150000D01*
G01*
G37*
G36*
G01*
X144300000Y-105550000D02*
X144300000Y-106800000D01*
G75*
G02*
X144150000Y-106950000I-150000J0D01*
G01*
X143850000Y-106950000D01*
G75*
G02*
X143700000Y-106800000I0J150000D01*
G01*
X143700000Y-105550000D01*
G75*
G02*
X143850000Y-105400000I150000J0D01*
G01*
X144150000Y-105400000D01*
G75*
G02*
X144300000Y-105550000I0J-150000D01*
G01*
G37*
G36*
G01*
X145300000Y-105550000D02*
X145300000Y-106800000D01*
G75*
G02*
X145150000Y-106950000I-150000J0D01*
G01*
X144850000Y-106950000D01*
G75*
G02*
X144700000Y-106800000I0J150000D01*
G01*
X144700000Y-105550000D01*
G75*
G02*
X144850000Y-105400000I150000J0D01*
G01*
X145150000Y-105400000D01*
G75*
G02*
X145300000Y-105550000I0J-150000D01*
G01*
G37*
G04 #@! TD*
D31*
G04 #@! TO.C,U1*
X157750000Y-103005000D03*
X157750000Y-101735000D03*
X157750000Y-100465000D03*
X157750000Y-99195000D03*
X157750000Y-97925000D03*
X157750000Y-96655000D03*
X157750000Y-95385000D03*
X157750000Y-94115000D03*
X157750000Y-92845000D03*
X157750000Y-91575000D03*
X157750000Y-90305000D03*
X157750000Y-89035000D03*
X157750000Y-87765000D03*
X157750000Y-86495000D03*
D32*
X160535000Y-85495000D03*
X161805000Y-85495000D03*
X163075000Y-85495000D03*
X164345000Y-85495000D03*
X165615000Y-85495000D03*
X166885000Y-85495000D03*
X168155000Y-85495000D03*
X169425000Y-85495000D03*
X170695000Y-85495000D03*
X171965000Y-85495000D03*
D31*
X174750000Y-86495000D03*
X174750000Y-87765000D03*
X174750000Y-89035000D03*
X174750000Y-90305000D03*
X174750000Y-91575000D03*
X174750000Y-92845000D03*
X174750000Y-94115000D03*
X174750000Y-95385000D03*
X174750000Y-96655000D03*
X174750000Y-97925000D03*
X174750000Y-99195000D03*
X174750000Y-100465000D03*
X174750000Y-101735000D03*
X174750000Y-103005000D03*
D33*
X167250000Y-95505000D03*
G04 #@! TD*
D22*
G04 #@! TO.C,RV1*
X64250000Y-94550000D03*
X71750000Y-97250000D03*
G04 #@! TD*
D26*
G04 #@! TO.C,RN6*
X179700000Y-71100000D03*
D27*
X178900000Y-71100000D03*
D26*
X177300000Y-71100000D03*
D27*
X178100000Y-71100000D03*
D26*
X179700000Y-72900000D03*
D27*
X178100000Y-72900000D03*
X178900000Y-72900000D03*
D26*
X177300000Y-72900000D03*
G04 #@! TD*
G04 #@! TO.C,RN5*
X168700000Y-71100000D03*
D27*
X167900000Y-71100000D03*
D26*
X166300000Y-71100000D03*
D27*
X167100000Y-71100000D03*
D26*
X168700000Y-72900000D03*
D27*
X167100000Y-72900000D03*
X167900000Y-72900000D03*
D26*
X166300000Y-72900000D03*
G04 #@! TD*
G04 #@! TO.C,RN4*
X157200000Y-71100000D03*
D27*
X156400000Y-71100000D03*
D26*
X154800000Y-71100000D03*
D27*
X155600000Y-71100000D03*
D26*
X157200000Y-72900000D03*
D27*
X155600000Y-72900000D03*
X156400000Y-72900000D03*
D26*
X154800000Y-72900000D03*
G04 #@! TD*
G04 #@! TO.C,R8*
G36*
G01*
X100525000Y-105575000D02*
X99975000Y-105575000D01*
G75*
G02*
X99775000Y-105375000I0J200000D01*
G01*
X99775000Y-104975000D01*
G75*
G02*
X99975000Y-104775000I200000J0D01*
G01*
X100525000Y-104775000D01*
G75*
G02*
X100725000Y-104975000I0J-200000D01*
G01*
X100725000Y-105375000D01*
G75*
G02*
X100525000Y-105575000I-200000J0D01*
G01*
G37*
G36*
G01*
X100525000Y-107225000D02*
X99975000Y-107225000D01*
G75*
G02*
X99775000Y-107025000I0J200000D01*
G01*
X99775000Y-106625000D01*
G75*
G02*
X99975000Y-106425000I200000J0D01*
G01*
X100525000Y-106425000D01*
G75*
G02*
X100725000Y-106625000I0J-200000D01*
G01*
X100725000Y-107025000D01*
G75*
G02*
X100525000Y-107225000I-200000J0D01*
G01*
G37*
G04 #@! TD*
G04 #@! TO.C,R7*
G36*
G01*
X119025000Y-101325000D02*
X118475000Y-101325000D01*
G75*
G02*
X118275000Y-101125000I0J200000D01*
G01*
X118275000Y-100725000D01*
G75*
G02*
X118475000Y-100525000I200000J0D01*
G01*
X119025000Y-100525000D01*
G75*
G02*
X119225000Y-100725000I0J-200000D01*
G01*
X119225000Y-101125000D01*
G75*
G02*
X119025000Y-101325000I-200000J0D01*
G01*
G37*
G36*
G01*
X119025000Y-102975000D02*
X118475000Y-102975000D01*
G75*
G02*
X118275000Y-102775000I0J200000D01*
G01*
X118275000Y-102375000D01*
G75*
G02*
X118475000Y-102175000I200000J0D01*
G01*
X119025000Y-102175000D01*
G75*
G02*
X119225000Y-102375000I0J-200000D01*
G01*
X119225000Y-102775000D01*
G75*
G02*
X119025000Y-102975000I-200000J0D01*
G01*
G37*
G04 #@! TD*
G04 #@! TO.C,R6*
G36*
G01*
X97525000Y-105575000D02*
X96975000Y-105575000D01*
G75*
G02*
X96775000Y-105375000I0J200000D01*
G01*
X96775000Y-104975000D01*
G75*
G02*
X96975000Y-104775000I200000J0D01*
G01*
X97525000Y-104775000D01*
G75*
G02*
X97725000Y-104975000I0J-200000D01*
G01*
X97725000Y-105375000D01*
G75*
G02*
X97525000Y-105575000I-200000J0D01*
G01*
G37*
G36*
G01*
X97525000Y-107225000D02*
X96975000Y-107225000D01*
G75*
G02*
X96775000Y-107025000I0J200000D01*
G01*
X96775000Y-106625000D01*
G75*
G02*
X96975000Y-106425000I200000J0D01*
G01*
X97525000Y-106425000D01*
G75*
G02*
X97725000Y-106625000I0J-200000D01*
G01*
X97725000Y-107025000D01*
G75*
G02*
X97525000Y-107225000I-200000J0D01*
G01*
G37*
G04 #@! TD*
G04 #@! TO.C,R5*
G36*
G01*
X107525000Y-101325000D02*
X106975000Y-101325000D01*
G75*
G02*
X106775000Y-101125000I0J200000D01*
G01*
X106775000Y-100725000D01*
G75*
G02*
X106975000Y-100525000I200000J0D01*
G01*
X107525000Y-100525000D01*
G75*
G02*
X107725000Y-100725000I0J-200000D01*
G01*
X107725000Y-101125000D01*
G75*
G02*
X107525000Y-101325000I-200000J0D01*
G01*
G37*
G36*
G01*
X107525000Y-102975000D02*
X106975000Y-102975000D01*
G75*
G02*
X106775000Y-102775000I0J200000D01*
G01*
X106775000Y-102375000D01*
G75*
G02*
X106975000Y-102175000I200000J0D01*
G01*
X107525000Y-102175000D01*
G75*
G02*
X107725000Y-102375000I0J-200000D01*
G01*
X107725000Y-102775000D01*
G75*
G02*
X107525000Y-102975000I-200000J0D01*
G01*
G37*
G04 #@! TD*
G04 #@! TO.C,R4*
G36*
G01*
X128975000Y-102175000D02*
X129525000Y-102175000D01*
G75*
G02*
X129725000Y-102375000I0J-200000D01*
G01*
X129725000Y-102775000D01*
G75*
G02*
X129525000Y-102975000I-200000J0D01*
G01*
X128975000Y-102975000D01*
G75*
G02*
X128775000Y-102775000I0J200000D01*
G01*
X128775000Y-102375000D01*
G75*
G02*
X128975000Y-102175000I200000J0D01*
G01*
G37*
G36*
G01*
X128975000Y-100525000D02*
X129525000Y-100525000D01*
G75*
G02*
X129725000Y-100725000I0J-200000D01*
G01*
X129725000Y-101125000D01*
G75*
G02*
X129525000Y-101325000I-200000J0D01*
G01*
X128975000Y-101325000D01*
G75*
G02*
X128775000Y-101125000I0J200000D01*
G01*
X128775000Y-100725000D01*
G75*
G02*
X128975000Y-100525000I200000J0D01*
G01*
G37*
G04 #@! TD*
G04 #@! TO.C,R3*
G36*
G01*
X130475000Y-102175000D02*
X131025000Y-102175000D01*
G75*
G02*
X131225000Y-102375000I0J-200000D01*
G01*
X131225000Y-102775000D01*
G75*
G02*
X131025000Y-102975000I-200000J0D01*
G01*
X130475000Y-102975000D01*
G75*
G02*
X130275000Y-102775000I0J200000D01*
G01*
X130275000Y-102375000D01*
G75*
G02*
X130475000Y-102175000I200000J0D01*
G01*
G37*
G36*
G01*
X130475000Y-100525000D02*
X131025000Y-100525000D01*
G75*
G02*
X131225000Y-100725000I0J-200000D01*
G01*
X131225000Y-101125000D01*
G75*
G02*
X131025000Y-101325000I-200000J0D01*
G01*
X130475000Y-101325000D01*
G75*
G02*
X130275000Y-101125000I0J200000D01*
G01*
X130275000Y-100725000D01*
G75*
G02*
X130475000Y-100525000I200000J0D01*
G01*
G37*
G04 #@! TD*
G04 #@! TO.C,R1*
G36*
G01*
X150975000Y-102675000D02*
X151525000Y-102675000D01*
G75*
G02*
X151725000Y-102875000I0J-200000D01*
G01*
X151725000Y-103275000D01*
G75*
G02*
X151525000Y-103475000I-200000J0D01*
G01*
X150975000Y-103475000D01*
G75*
G02*
X150775000Y-103275000I0J200000D01*
G01*
X150775000Y-102875000D01*
G75*
G02*
X150975000Y-102675000I200000J0D01*
G01*
G37*
G36*
G01*
X150975000Y-101025000D02*
X151525000Y-101025000D01*
G75*
G02*
X151725000Y-101225000I0J-200000D01*
G01*
X151725000Y-101625000D01*
G75*
G02*
X151525000Y-101825000I-200000J0D01*
G01*
X150975000Y-101825000D01*
G75*
G02*
X150775000Y-101625000I0J200000D01*
G01*
X150775000Y-101225000D01*
G75*
G02*
X150975000Y-101025000I200000J0D01*
G01*
G37*
G04 #@! TD*
D34*
G04 #@! TO.C,FID3*
X180500000Y-38750000D03*
G04 #@! TD*
G04 #@! TO.C,FID2*
X182750000Y-103500000D03*
G04 #@! TD*
G04 #@! TO.C,FID1*
X41750000Y-103500000D03*
G04 #@! TD*
G04 #@! TO.C,D12*
G36*
G01*
X174743750Y-77350000D02*
X175256250Y-77350000D01*
G75*
G02*
X175475000Y-77568750I0J-218750D01*
G01*
X175475000Y-78006250D01*
G75*
G02*
X175256250Y-78225000I-218750J0D01*
G01*
X174743750Y-78225000D01*
G75*
G02*
X174525000Y-78006250I0J218750D01*
G01*
X174525000Y-77568750D01*
G75*
G02*
X174743750Y-77350000I218750J0D01*
G01*
G37*
G36*
G01*
X174743750Y-75775000D02*
X175256250Y-75775000D01*
G75*
G02*
X175475000Y-75993750I0J-218750D01*
G01*
X175475000Y-76431250D01*
G75*
G02*
X175256250Y-76650000I-218750J0D01*
G01*
X174743750Y-76650000D01*
G75*
G02*
X174525000Y-76431250I0J218750D01*
G01*
X174525000Y-75993750D01*
G75*
G02*
X174743750Y-75775000I218750J0D01*
G01*
G37*
G04 #@! TD*
G04 #@! TO.C,D11*
G36*
G01*
X171243750Y-77350000D02*
X171756250Y-77350000D01*
G75*
G02*
X171975000Y-77568750I0J-218750D01*
G01*
X171975000Y-78006250D01*
G75*
G02*
X171756250Y-78225000I-218750J0D01*
G01*
X171243750Y-78225000D01*
G75*
G02*
X171025000Y-78006250I0J218750D01*
G01*
X171025000Y-77568750D01*
G75*
G02*
X171243750Y-77350000I218750J0D01*
G01*
G37*
G36*
G01*
X171243750Y-75775000D02*
X171756250Y-75775000D01*
G75*
G02*
X171975000Y-75993750I0J-218750D01*
G01*
X171975000Y-76431250D01*
G75*
G02*
X171756250Y-76650000I-218750J0D01*
G01*
X171243750Y-76650000D01*
G75*
G02*
X171025000Y-76431250I0J218750D01*
G01*
X171025000Y-75993750D01*
G75*
G02*
X171243750Y-75775000I218750J0D01*
G01*
G37*
G04 #@! TD*
G04 #@! TO.C,D10*
G36*
G01*
X167743750Y-77350000D02*
X168256250Y-77350000D01*
G75*
G02*
X168475000Y-77568750I0J-218750D01*
G01*
X168475000Y-78006250D01*
G75*
G02*
X168256250Y-78225000I-218750J0D01*
G01*
X167743750Y-78225000D01*
G75*
G02*
X167525000Y-78006250I0J218750D01*
G01*
X167525000Y-77568750D01*
G75*
G02*
X167743750Y-77350000I218750J0D01*
G01*
G37*
G36*
G01*
X167743750Y-75775000D02*
X168256250Y-75775000D01*
G75*
G02*
X168475000Y-75993750I0J-218750D01*
G01*
X168475000Y-76431250D01*
G75*
G02*
X168256250Y-76650000I-218750J0D01*
G01*
X167743750Y-76650000D01*
G75*
G02*
X167525000Y-76431250I0J218750D01*
G01*
X167525000Y-75993750D01*
G75*
G02*
X167743750Y-75775000I218750J0D01*
G01*
G37*
G04 #@! TD*
G04 #@! TO.C,D9*
G36*
G01*
X164243750Y-77350000D02*
X164756250Y-77350000D01*
G75*
G02*
X164975000Y-77568750I0J-218750D01*
G01*
X164975000Y-78006250D01*
G75*
G02*
X164756250Y-78225000I-218750J0D01*
G01*
X164243750Y-78225000D01*
G75*
G02*
X164025000Y-78006250I0J218750D01*
G01*
X164025000Y-77568750D01*
G75*
G02*
X164243750Y-77350000I218750J0D01*
G01*
G37*
G36*
G01*
X164243750Y-75775000D02*
X164756250Y-75775000D01*
G75*
G02*
X164975000Y-75993750I0J-218750D01*
G01*
X164975000Y-76431250D01*
G75*
G02*
X164756250Y-76650000I-218750J0D01*
G01*
X164243750Y-76650000D01*
G75*
G02*
X164025000Y-76431250I0J218750D01*
G01*
X164025000Y-75993750D01*
G75*
G02*
X164243750Y-75775000I218750J0D01*
G01*
G37*
G04 #@! TD*
G04 #@! TO.C,D8*
G36*
G01*
X160743750Y-77350000D02*
X161256250Y-77350000D01*
G75*
G02*
X161475000Y-77568750I0J-218750D01*
G01*
X161475000Y-78006250D01*
G75*
G02*
X161256250Y-78225000I-218750J0D01*
G01*
X160743750Y-78225000D01*
G75*
G02*
X160525000Y-78006250I0J218750D01*
G01*
X160525000Y-77568750D01*
G75*
G02*
X160743750Y-77350000I218750J0D01*
G01*
G37*
G36*
G01*
X160743750Y-75775000D02*
X161256250Y-75775000D01*
G75*
G02*
X161475000Y-75993750I0J-218750D01*
G01*
X161475000Y-76431250D01*
G75*
G02*
X161256250Y-76650000I-218750J0D01*
G01*
X160743750Y-76650000D01*
G75*
G02*
X160525000Y-76431250I0J218750D01*
G01*
X160525000Y-75993750D01*
G75*
G02*
X160743750Y-75775000I218750J0D01*
G01*
G37*
G04 #@! TD*
G04 #@! TO.C,D7*
G36*
G01*
X157243750Y-77350000D02*
X157756250Y-77350000D01*
G75*
G02*
X157975000Y-77568750I0J-218750D01*
G01*
X157975000Y-78006250D01*
G75*
G02*
X157756250Y-78225000I-218750J0D01*
G01*
X157243750Y-78225000D01*
G75*
G02*
X157025000Y-78006250I0J218750D01*
G01*
X157025000Y-77568750D01*
G75*
G02*
X157243750Y-77350000I218750J0D01*
G01*
G37*
G36*
G01*
X157243750Y-75775000D02*
X157756250Y-75775000D01*
G75*
G02*
X157975000Y-75993750I0J-218750D01*
G01*
X157975000Y-76431250D01*
G75*
G02*
X157756250Y-76650000I-218750J0D01*
G01*
X157243750Y-76650000D01*
G75*
G02*
X157025000Y-76431250I0J218750D01*
G01*
X157025000Y-75993750D01*
G75*
G02*
X157243750Y-75775000I218750J0D01*
G01*
G37*
G04 #@! TD*
G04 #@! TO.C,D6*
G36*
G01*
X153743750Y-77350000D02*
X154256250Y-77350000D01*
G75*
G02*
X154475000Y-77568750I0J-218750D01*
G01*
X154475000Y-78006250D01*
G75*
G02*
X154256250Y-78225000I-218750J0D01*
G01*
X153743750Y-78225000D01*
G75*
G02*
X153525000Y-78006250I0J218750D01*
G01*
X153525000Y-77568750D01*
G75*
G02*
X153743750Y-77350000I218750J0D01*
G01*
G37*
G36*
G01*
X153743750Y-75775000D02*
X154256250Y-75775000D01*
G75*
G02*
X154475000Y-75993750I0J-218750D01*
G01*
X154475000Y-76431250D01*
G75*
G02*
X154256250Y-76650000I-218750J0D01*
G01*
X153743750Y-76650000D01*
G75*
G02*
X153525000Y-76431250I0J218750D01*
G01*
X153525000Y-75993750D01*
G75*
G02*
X153743750Y-75775000I218750J0D01*
G01*
G37*
G04 #@! TD*
G04 #@! TO.C,D5*
G36*
G01*
X150243750Y-77350000D02*
X150756250Y-77350000D01*
G75*
G02*
X150975000Y-77568750I0J-218750D01*
G01*
X150975000Y-78006250D01*
G75*
G02*
X150756250Y-78225000I-218750J0D01*
G01*
X150243750Y-78225000D01*
G75*
G02*
X150025000Y-78006250I0J218750D01*
G01*
X150025000Y-77568750D01*
G75*
G02*
X150243750Y-77350000I218750J0D01*
G01*
G37*
G36*
G01*
X150243750Y-75775000D02*
X150756250Y-75775000D01*
G75*
G02*
X150975000Y-75993750I0J-218750D01*
G01*
X150975000Y-76431250D01*
G75*
G02*
X150756250Y-76650000I-218750J0D01*
G01*
X150243750Y-76650000D01*
G75*
G02*
X150025000Y-76431250I0J218750D01*
G01*
X150025000Y-75993750D01*
G75*
G02*
X150243750Y-75775000I218750J0D01*
G01*
G37*
G04 #@! TD*
G04 #@! TO.C,D4*
G36*
G01*
X146743750Y-77350000D02*
X147256250Y-77350000D01*
G75*
G02*
X147475000Y-77568750I0J-218750D01*
G01*
X147475000Y-78006250D01*
G75*
G02*
X147256250Y-78225000I-218750J0D01*
G01*
X146743750Y-78225000D01*
G75*
G02*
X146525000Y-78006250I0J218750D01*
G01*
X146525000Y-77568750D01*
G75*
G02*
X146743750Y-77350000I218750J0D01*
G01*
G37*
G36*
G01*
X146743750Y-75775000D02*
X147256250Y-75775000D01*
G75*
G02*
X147475000Y-75993750I0J-218750D01*
G01*
X147475000Y-76431250D01*
G75*
G02*
X147256250Y-76650000I-218750J0D01*
G01*
X146743750Y-76650000D01*
G75*
G02*
X146525000Y-76431250I0J218750D01*
G01*
X146525000Y-75993750D01*
G75*
G02*
X146743750Y-75775000I218750J0D01*
G01*
G37*
G04 #@! TD*
G04 #@! TO.C,D3*
G36*
G01*
X143243750Y-77350000D02*
X143756250Y-77350000D01*
G75*
G02*
X143975000Y-77568750I0J-218750D01*
G01*
X143975000Y-78006250D01*
G75*
G02*
X143756250Y-78225000I-218750J0D01*
G01*
X143243750Y-78225000D01*
G75*
G02*
X143025000Y-78006250I0J218750D01*
G01*
X143025000Y-77568750D01*
G75*
G02*
X143243750Y-77350000I218750J0D01*
G01*
G37*
G36*
G01*
X143243750Y-75775000D02*
X143756250Y-75775000D01*
G75*
G02*
X143975000Y-75993750I0J-218750D01*
G01*
X143975000Y-76431250D01*
G75*
G02*
X143756250Y-76650000I-218750J0D01*
G01*
X143243750Y-76650000D01*
G75*
G02*
X143025000Y-76431250I0J218750D01*
G01*
X143025000Y-75993750D01*
G75*
G02*
X143243750Y-75775000I218750J0D01*
G01*
G37*
G04 #@! TD*
G04 #@! TO.C,D2*
G36*
G01*
X100506250Y-108900000D02*
X99993750Y-108900000D01*
G75*
G02*
X99775000Y-108681250I0J218750D01*
G01*
X99775000Y-108243750D01*
G75*
G02*
X99993750Y-108025000I218750J0D01*
G01*
X100506250Y-108025000D01*
G75*
G02*
X100725000Y-108243750I0J-218750D01*
G01*
X100725000Y-108681250D01*
G75*
G02*
X100506250Y-108900000I-218750J0D01*
G01*
G37*
G36*
G01*
X100506250Y-110475000D02*
X99993750Y-110475000D01*
G75*
G02*
X99775000Y-110256250I0J218750D01*
G01*
X99775000Y-109818750D01*
G75*
G02*
X99993750Y-109600000I218750J0D01*
G01*
X100506250Y-109600000D01*
G75*
G02*
X100725000Y-109818750I0J-218750D01*
G01*
X100725000Y-110256250D01*
G75*
G02*
X100506250Y-110475000I-218750J0D01*
G01*
G37*
G04 #@! TD*
G04 #@! TO.C,D1*
G36*
G01*
X97506250Y-108900000D02*
X96993750Y-108900000D01*
G75*
G02*
X96775000Y-108681250I0J218750D01*
G01*
X96775000Y-108243750D01*
G75*
G02*
X96993750Y-108025000I218750J0D01*
G01*
X97506250Y-108025000D01*
G75*
G02*
X97725000Y-108243750I0J-218750D01*
G01*
X97725000Y-108681250D01*
G75*
G02*
X97506250Y-108900000I-218750J0D01*
G01*
G37*
G36*
G01*
X97506250Y-110475000D02*
X96993750Y-110475000D01*
G75*
G02*
X96775000Y-110256250I0J218750D01*
G01*
X96775000Y-109818750D01*
G75*
G02*
X96993750Y-109600000I218750J0D01*
G01*
X97506250Y-109600000D01*
G75*
G02*
X97725000Y-109818750I0J-218750D01*
G01*
X97725000Y-110256250D01*
G75*
G02*
X97506250Y-110475000I-218750J0D01*
G01*
G37*
G04 #@! TD*
G04 #@! TO.C,C8*
G36*
G01*
X117000000Y-102075000D02*
X117500000Y-102075000D01*
G75*
G02*
X117725000Y-102300000I0J-225000D01*
G01*
X117725000Y-102750000D01*
G75*
G02*
X117500000Y-102975000I-225000J0D01*
G01*
X117000000Y-102975000D01*
G75*
G02*
X116775000Y-102750000I0J225000D01*
G01*
X116775000Y-102300000D01*
G75*
G02*
X117000000Y-102075000I225000J0D01*
G01*
G37*
G36*
G01*
X117000000Y-100525000D02*
X117500000Y-100525000D01*
G75*
G02*
X117725000Y-100750000I0J-225000D01*
G01*
X117725000Y-101200000D01*
G75*
G02*
X117500000Y-101425000I-225000J0D01*
G01*
X117000000Y-101425000D01*
G75*
G02*
X116775000Y-101200000I0J225000D01*
G01*
X116775000Y-100750000D01*
G75*
G02*
X117000000Y-100525000I225000J0D01*
G01*
G37*
G04 #@! TD*
G04 #@! TO.C,C7*
G36*
G01*
X105500000Y-102075000D02*
X106000000Y-102075000D01*
G75*
G02*
X106225000Y-102300000I0J-225000D01*
G01*
X106225000Y-102750000D01*
G75*
G02*
X106000000Y-102975000I-225000J0D01*
G01*
X105500000Y-102975000D01*
G75*
G02*
X105275000Y-102750000I0J225000D01*
G01*
X105275000Y-102300000D01*
G75*
G02*
X105500000Y-102075000I225000J0D01*
G01*
G37*
G36*
G01*
X105500000Y-100525000D02*
X106000000Y-100525000D01*
G75*
G02*
X106225000Y-100750000I0J-225000D01*
G01*
X106225000Y-101200000D01*
G75*
G02*
X106000000Y-101425000I-225000J0D01*
G01*
X105500000Y-101425000D01*
G75*
G02*
X105275000Y-101200000I0J225000D01*
G01*
X105275000Y-100750000D01*
G75*
G02*
X105500000Y-100525000I225000J0D01*
G01*
G37*
G04 #@! TD*
G04 #@! TO.C,C6*
G36*
G01*
X176750000Y-102825000D02*
X177250000Y-102825000D01*
G75*
G02*
X177475000Y-103050000I0J-225000D01*
G01*
X177475000Y-103500000D01*
G75*
G02*
X177250000Y-103725000I-225000J0D01*
G01*
X176750000Y-103725000D01*
G75*
G02*
X176525000Y-103500000I0J225000D01*
G01*
X176525000Y-103050000D01*
G75*
G02*
X176750000Y-102825000I225000J0D01*
G01*
G37*
G36*
G01*
X176750000Y-101275000D02*
X177250000Y-101275000D01*
G75*
G02*
X177475000Y-101500000I0J-225000D01*
G01*
X177475000Y-101950000D01*
G75*
G02*
X177250000Y-102175000I-225000J0D01*
G01*
X176750000Y-102175000D01*
G75*
G02*
X176525000Y-101950000I0J225000D01*
G01*
X176525000Y-101500000D01*
G75*
G02*
X176750000Y-101275000I225000J0D01*
G01*
G37*
G04 #@! TD*
G04 #@! TO.C,C5*
G36*
G01*
X178349999Y-103400000D02*
X179650001Y-103400000D01*
G75*
G02*
X179900000Y-103649999I0J-249999D01*
G01*
X179900000Y-104300001D01*
G75*
G02*
X179650001Y-104550000I-249999J0D01*
G01*
X178349999Y-104550000D01*
G75*
G02*
X178100000Y-104300001I0J249999D01*
G01*
X178100000Y-103649999D01*
G75*
G02*
X178349999Y-103400000I249999J0D01*
G01*
G37*
G36*
G01*
X178349999Y-100450000D02*
X179650001Y-100450000D01*
G75*
G02*
X179900000Y-100699999I0J-249999D01*
G01*
X179900000Y-101350001D01*
G75*
G02*
X179650001Y-101600000I-249999J0D01*
G01*
X178349999Y-101600000D01*
G75*
G02*
X178100000Y-101350001I0J249999D01*
G01*
X178100000Y-100699999D01*
G75*
G02*
X178349999Y-100450000I249999J0D01*
G01*
G37*
G04 #@! TD*
G04 #@! TO.C,C3*
G36*
G01*
X113750000Y-80175000D02*
X113250000Y-80175000D01*
G75*
G02*
X113025000Y-79950000I0J225000D01*
G01*
X113025000Y-79500000D01*
G75*
G02*
X113250000Y-79275000I225000J0D01*
G01*
X113750000Y-79275000D01*
G75*
G02*
X113975000Y-79500000I0J-225000D01*
G01*
X113975000Y-79950000D01*
G75*
G02*
X113750000Y-80175000I-225000J0D01*
G01*
G37*
G36*
G01*
X113750000Y-81725000D02*
X113250000Y-81725000D01*
G75*
G02*
X113025000Y-81500000I0J225000D01*
G01*
X113025000Y-81050000D01*
G75*
G02*
X113250000Y-80825000I225000J0D01*
G01*
X113750000Y-80825000D01*
G75*
G02*
X113975000Y-81050000I0J-225000D01*
G01*
X113975000Y-81500000D01*
G75*
G02*
X113750000Y-81725000I-225000J0D01*
G01*
G37*
G04 #@! TD*
G04 #@! TO.C,C1*
G36*
G01*
X152500000Y-102575000D02*
X153000000Y-102575000D01*
G75*
G02*
X153225000Y-102800000I0J-225000D01*
G01*
X153225000Y-103250000D01*
G75*
G02*
X153000000Y-103475000I-225000J0D01*
G01*
X152500000Y-103475000D01*
G75*
G02*
X152275000Y-103250000I0J225000D01*
G01*
X152275000Y-102800000D01*
G75*
G02*
X152500000Y-102575000I225000J0D01*
G01*
G37*
G36*
G01*
X152500000Y-101025000D02*
X153000000Y-101025000D01*
G75*
G02*
X153225000Y-101250000I0J-225000D01*
G01*
X153225000Y-101700000D01*
G75*
G02*
X153000000Y-101925000I-225000J0D01*
G01*
X152500000Y-101925000D01*
G75*
G02*
X152275000Y-101700000I0J225000D01*
G01*
X152275000Y-101250000D01*
G75*
G02*
X152500000Y-101025000I225000J0D01*
G01*
G37*
G04 #@! TD*
M02*
