G04 #@! TF.GenerationSoftware,KiCad,Pcbnew,(5.1.8)-1*
G04 #@! TF.CreationDate,2021-11-11T09:43:21+02:00*
G04 #@! TF.ProjectId,controller,636f6e74-726f-46c6-9c65-722e6b696361,rev?*
G04 #@! TF.SameCoordinates,Original*
G04 #@! TF.FileFunction,Legend,Top*
G04 #@! TF.FilePolarity,Positive*
%FSLAX46Y46*%
G04 Gerber Fmt 4.6, Leading zero omitted, Abs format (unit mm)*
G04 Created by KiCad (PCBNEW (5.1.8)-1) date 2021-11-11 09:43:21*
%MOMM*%
%LPD*%
G01*
G04 APERTURE LIST*
%ADD10C,0.200000*%
%ADD11C,0.250000*%
%ADD12C,0.300000*%
%ADD13C,0.500000*%
%ADD14C,0.400000*%
%ADD15C,0.120000*%
%ADD16C,0.150000*%
G04 APERTURE END LIST*
D10*
X116061904Y-90490476D02*
X116061904Y-89995238D01*
X116366666Y-90261904D01*
X116366666Y-90147619D01*
X116404761Y-90071428D01*
X116442857Y-90033333D01*
X116519047Y-89995238D01*
X116709523Y-89995238D01*
X116785714Y-90033333D01*
X116823809Y-90071428D01*
X116861904Y-90147619D01*
X116861904Y-90376190D01*
X116823809Y-90452380D01*
X116785714Y-90490476D01*
X116061904Y-89766666D02*
X116861904Y-89500000D01*
X116061904Y-89233333D01*
X116061904Y-89042857D02*
X116061904Y-88547619D01*
X116366666Y-88814285D01*
X116366666Y-88700000D01*
X116404761Y-88623809D01*
X116442857Y-88585714D01*
X116519047Y-88547619D01*
X116709523Y-88547619D01*
X116785714Y-88585714D01*
X116823809Y-88623809D01*
X116861904Y-88700000D01*
X116861904Y-88928571D01*
X116823809Y-89004761D01*
X116785714Y-89042857D01*
D11*
X140452380Y-95226190D02*
X139452380Y-95226190D01*
X139452380Y-94559523D02*
X139452380Y-94369047D01*
X139500000Y-94273809D01*
X139595238Y-94178571D01*
X139785714Y-94130952D01*
X140119047Y-94130952D01*
X140309523Y-94178571D01*
X140404761Y-94273809D01*
X140452380Y-94369047D01*
X140452380Y-94559523D01*
X140404761Y-94654761D01*
X140309523Y-94750000D01*
X140119047Y-94797619D01*
X139785714Y-94797619D01*
X139595238Y-94750000D01*
X139500000Y-94654761D01*
X139452380Y-94559523D01*
X139452380Y-93797619D02*
X139452380Y-93178571D01*
X139833333Y-93511904D01*
X139833333Y-93369047D01*
X139880952Y-93273809D01*
X139928571Y-93226190D01*
X140023809Y-93178571D01*
X140261904Y-93178571D01*
X140357142Y-93226190D01*
X140404761Y-93273809D01*
X140452380Y-93369047D01*
X140452380Y-93654761D01*
X140404761Y-93750000D01*
X140357142Y-93797619D01*
X139785714Y-92321428D02*
X140452380Y-92321428D01*
X139404761Y-92559523D02*
X140119047Y-92797619D01*
X140119047Y-92178571D01*
X137952380Y-95226190D02*
X136952380Y-95226190D01*
X136952380Y-94559523D02*
X136952380Y-94369047D01*
X137000000Y-94273809D01*
X137095238Y-94178571D01*
X137285714Y-94130952D01*
X137619047Y-94130952D01*
X137809523Y-94178571D01*
X137904761Y-94273809D01*
X137952380Y-94369047D01*
X137952380Y-94559523D01*
X137904761Y-94654761D01*
X137809523Y-94750000D01*
X137619047Y-94797619D01*
X137285714Y-94797619D01*
X137095238Y-94750000D01*
X137000000Y-94654761D01*
X136952380Y-94559523D01*
X136952380Y-93797619D02*
X136952380Y-93178571D01*
X137333333Y-93511904D01*
X137333333Y-93369047D01*
X137380952Y-93273809D01*
X137428571Y-93226190D01*
X137523809Y-93178571D01*
X137761904Y-93178571D01*
X137857142Y-93226190D01*
X137904761Y-93273809D01*
X137952380Y-93369047D01*
X137952380Y-93654761D01*
X137904761Y-93750000D01*
X137857142Y-93797619D01*
X136952380Y-92273809D02*
X136952380Y-92750000D01*
X137428571Y-92797619D01*
X137380952Y-92750000D01*
X137333333Y-92654761D01*
X137333333Y-92416666D01*
X137380952Y-92321428D01*
X137428571Y-92273809D01*
X137523809Y-92226190D01*
X137761904Y-92226190D01*
X137857142Y-92273809D01*
X137904761Y-92321428D01*
X137952380Y-92416666D01*
X137952380Y-92654761D01*
X137904761Y-92750000D01*
X137857142Y-92797619D01*
X135452380Y-95226190D02*
X134452380Y-95226190D01*
X134452380Y-94559523D02*
X134452380Y-94369047D01*
X134500000Y-94273809D01*
X134595238Y-94178571D01*
X134785714Y-94130952D01*
X135119047Y-94130952D01*
X135309523Y-94178571D01*
X135404761Y-94273809D01*
X135452380Y-94369047D01*
X135452380Y-94559523D01*
X135404761Y-94654761D01*
X135309523Y-94750000D01*
X135119047Y-94797619D01*
X134785714Y-94797619D01*
X134595238Y-94750000D01*
X134500000Y-94654761D01*
X134452380Y-94559523D01*
X135452380Y-93178571D02*
X135452380Y-93750000D01*
X135452380Y-93464285D02*
X134452380Y-93464285D01*
X134595238Y-93559523D01*
X134690476Y-93654761D01*
X134738095Y-93750000D01*
X134547619Y-92797619D02*
X134500000Y-92750000D01*
X134452380Y-92654761D01*
X134452380Y-92416666D01*
X134500000Y-92321428D01*
X134547619Y-92273809D01*
X134642857Y-92226190D01*
X134738095Y-92226190D01*
X134880952Y-92273809D01*
X135452380Y-92845238D01*
X135452380Y-92226190D01*
X132952380Y-95250000D02*
X131952380Y-95250000D01*
X131952380Y-94583333D02*
X131952380Y-94392857D01*
X132000000Y-94297619D01*
X132095238Y-94202380D01*
X132285714Y-94154761D01*
X132619047Y-94154761D01*
X132809523Y-94202380D01*
X132904761Y-94297619D01*
X132952380Y-94392857D01*
X132952380Y-94583333D01*
X132904761Y-94678571D01*
X132809523Y-94773809D01*
X132619047Y-94821428D01*
X132285714Y-94821428D01*
X132095238Y-94773809D01*
X132000000Y-94678571D01*
X131952380Y-94583333D01*
X131952380Y-93250000D02*
X131952380Y-93726190D01*
X132428571Y-93773809D01*
X132380952Y-93726190D01*
X132333333Y-93630952D01*
X132333333Y-93392857D01*
X132380952Y-93297619D01*
X132428571Y-93250000D01*
X132523809Y-93202380D01*
X132761904Y-93202380D01*
X132857142Y-93250000D01*
X132904761Y-93297619D01*
X132952380Y-93392857D01*
X132952380Y-93630952D01*
X132904761Y-93726190D01*
X132857142Y-93773809D01*
D10*
X117259523Y-105561904D02*
X117754761Y-105561904D01*
X117488095Y-105866666D01*
X117602380Y-105866666D01*
X117678571Y-105904761D01*
X117716666Y-105942857D01*
X117754761Y-106019047D01*
X117754761Y-106209523D01*
X117716666Y-106285714D01*
X117678571Y-106323809D01*
X117602380Y-106361904D01*
X117373809Y-106361904D01*
X117297619Y-106323809D01*
X117259523Y-106285714D01*
X117983333Y-105561904D02*
X118250000Y-106361904D01*
X118516666Y-105561904D01*
X118707142Y-105561904D02*
X119202380Y-105561904D01*
X118935714Y-105866666D01*
X119050000Y-105866666D01*
X119126190Y-105904761D01*
X119164285Y-105942857D01*
X119202380Y-106019047D01*
X119202380Y-106209523D01*
X119164285Y-106285714D01*
X119126190Y-106323809D01*
X119050000Y-106361904D01*
X118821428Y-106361904D01*
X118745238Y-106323809D01*
X118707142Y-106285714D01*
X120640476Y-105600000D02*
X120564285Y-105561904D01*
X120450000Y-105561904D01*
X120335714Y-105600000D01*
X120259523Y-105676190D01*
X120221428Y-105752380D01*
X120183333Y-105904761D01*
X120183333Y-106019047D01*
X120221428Y-106171428D01*
X120259523Y-106247619D01*
X120335714Y-106323809D01*
X120450000Y-106361904D01*
X120526190Y-106361904D01*
X120640476Y-106323809D01*
X120678571Y-106285714D01*
X120678571Y-106019047D01*
X120526190Y-106019047D01*
X121021428Y-106361904D02*
X121021428Y-105561904D01*
X121478571Y-106361904D01*
X121478571Y-105561904D01*
X121859523Y-106361904D02*
X121859523Y-105561904D01*
X122050000Y-105561904D01*
X122164285Y-105600000D01*
X122240476Y-105676190D01*
X122278571Y-105752380D01*
X122316666Y-105904761D01*
X122316666Y-106019047D01*
X122278571Y-106171428D01*
X122240476Y-106247619D01*
X122164285Y-106323809D01*
X122050000Y-106361904D01*
X121859523Y-106361904D01*
D11*
X128915699Y-104702380D02*
X129040699Y-103702380D01*
X129457366Y-103797619D02*
X129510937Y-103750000D01*
X129612127Y-103702380D01*
X129850223Y-103702380D01*
X129939508Y-103750000D01*
X129981175Y-103797619D01*
X130016889Y-103892857D01*
X130004985Y-103988095D01*
X129939508Y-104130952D01*
X129296651Y-104702380D01*
X129915699Y-104702380D01*
X130927604Y-104607142D02*
X130874032Y-104654761D01*
X130725223Y-104702380D01*
X130629985Y-104702380D01*
X130493080Y-104654761D01*
X130409747Y-104559523D01*
X130374032Y-104464285D01*
X130350223Y-104273809D01*
X130368080Y-104130952D01*
X130439508Y-103940476D01*
X130499032Y-103845238D01*
X130606175Y-103750000D01*
X130754985Y-103702380D01*
X130850223Y-103702380D01*
X130987127Y-103750000D01*
X131028794Y-103797619D01*
D12*
X48802142Y-97867857D02*
X48302142Y-97867857D01*
X48302142Y-98653571D02*
X48302142Y-97153571D01*
X49016428Y-97153571D01*
X50373571Y-98653571D02*
X49516428Y-98653571D01*
X49945000Y-98653571D02*
X49945000Y-97153571D01*
X49802142Y-97367857D01*
X49659285Y-97510714D01*
X49516428Y-97582142D01*
X51016428Y-97867857D02*
X52159285Y-97867857D01*
X52159285Y-98296428D02*
X51016428Y-98296428D01*
X53159285Y-97153571D02*
X53302142Y-97153571D01*
X53445000Y-97225000D01*
X53516428Y-97296428D01*
X53587857Y-97439285D01*
X53659285Y-97725000D01*
X53659285Y-98082142D01*
X53587857Y-98367857D01*
X53516428Y-98510714D01*
X53445000Y-98582142D01*
X53302142Y-98653571D01*
X53159285Y-98653571D01*
X53016428Y-98582142D01*
X52945000Y-98510714D01*
X52873571Y-98367857D01*
X52802142Y-98082142D01*
X52802142Y-97725000D01*
X52873571Y-97439285D01*
X52945000Y-97296428D01*
X53016428Y-97225000D01*
X53159285Y-97153571D01*
X54302142Y-98510714D02*
X54373571Y-98582142D01*
X54302142Y-98653571D01*
X54230714Y-98582142D01*
X54302142Y-98510714D01*
X54302142Y-98653571D01*
X54945000Y-97296428D02*
X55016428Y-97225000D01*
X55159285Y-97153571D01*
X55516428Y-97153571D01*
X55659285Y-97225000D01*
X55730714Y-97296428D01*
X55802142Y-97439285D01*
X55802142Y-97582142D01*
X55730714Y-97796428D01*
X54873571Y-98653571D01*
X55802142Y-98653571D01*
X57159285Y-97153571D02*
X56445000Y-97153571D01*
X56373571Y-97867857D01*
X56445000Y-97796428D01*
X56587857Y-97725000D01*
X56945000Y-97725000D01*
X57087857Y-97796428D01*
X57159285Y-97867857D01*
X57230714Y-98010714D01*
X57230714Y-98367857D01*
X57159285Y-98510714D01*
X57087857Y-98582142D01*
X56945000Y-98653571D01*
X56587857Y-98653571D01*
X56445000Y-98582142D01*
X56373571Y-98510714D01*
X57802142Y-98225000D02*
X58516428Y-98225000D01*
X57659285Y-98653571D02*
X58159285Y-97153571D01*
X58659285Y-98653571D01*
X48802142Y-100417857D02*
X48302142Y-100417857D01*
X48302142Y-101203571D02*
X48302142Y-99703571D01*
X49016428Y-99703571D01*
X49516428Y-99846428D02*
X49587857Y-99775000D01*
X49730714Y-99703571D01*
X50087857Y-99703571D01*
X50230714Y-99775000D01*
X50302142Y-99846428D01*
X50373571Y-99989285D01*
X50373571Y-100132142D01*
X50302142Y-100346428D01*
X49445000Y-101203571D01*
X50373571Y-101203571D01*
X51016428Y-100417857D02*
X52159285Y-100417857D01*
X52159285Y-100846428D02*
X51016428Y-100846428D01*
X53659285Y-101203571D02*
X52802142Y-101203571D01*
X53230714Y-101203571D02*
X53230714Y-99703571D01*
X53087857Y-99917857D01*
X52945000Y-100060714D01*
X52802142Y-100132142D01*
X54230714Y-100775000D02*
X54945000Y-100775000D01*
X54087857Y-101203571D02*
X54587857Y-99703571D01*
X55087857Y-101203571D01*
X54878571Y-84414285D02*
X54878571Y-85271428D01*
X54878571Y-84842857D02*
X53378571Y-84842857D01*
X53592857Y-84985714D01*
X53735714Y-85128571D01*
X53807142Y-85271428D01*
X54450000Y-83842857D02*
X54450000Y-83128571D01*
X54878571Y-83985714D02*
X53378571Y-83485714D01*
X54878571Y-82985714D01*
X42978571Y-82100000D02*
X42978571Y-81957142D01*
X43050000Y-81814285D01*
X43121428Y-81742857D01*
X43264285Y-81671428D01*
X43550000Y-81600000D01*
X43907142Y-81600000D01*
X44192857Y-81671428D01*
X44335714Y-81742857D01*
X44407142Y-81814285D01*
X44478571Y-81957142D01*
X44478571Y-82100000D01*
X44407142Y-82242857D01*
X44335714Y-82314285D01*
X44192857Y-82385714D01*
X43907142Y-82457142D01*
X43550000Y-82457142D01*
X43264285Y-82385714D01*
X43121428Y-82314285D01*
X43050000Y-82242857D01*
X42978571Y-82100000D01*
X44335714Y-80957142D02*
X44407142Y-80885714D01*
X44478571Y-80957142D01*
X44407142Y-81028571D01*
X44335714Y-80957142D01*
X44478571Y-80957142D01*
X43121428Y-80314285D02*
X43050000Y-80242857D01*
X42978571Y-80100000D01*
X42978571Y-79742857D01*
X43050000Y-79600000D01*
X43121428Y-79528571D01*
X43264285Y-79457142D01*
X43407142Y-79457142D01*
X43621428Y-79528571D01*
X44478571Y-80385714D01*
X44478571Y-79457142D01*
X42978571Y-78100000D02*
X42978571Y-78814285D01*
X43692857Y-78885714D01*
X43621428Y-78814285D01*
X43550000Y-78671428D01*
X43550000Y-78314285D01*
X43621428Y-78171428D01*
X43692857Y-78100000D01*
X43835714Y-78028571D01*
X44192857Y-78028571D01*
X44335714Y-78100000D01*
X44407142Y-78171428D01*
X44478571Y-78314285D01*
X44478571Y-78671428D01*
X44407142Y-78814285D01*
X44335714Y-78885714D01*
X44050000Y-77457142D02*
X44050000Y-76742857D01*
X44478571Y-77600000D02*
X42978571Y-77100000D01*
X44478571Y-76600000D01*
X42264285Y-53428571D02*
X42621428Y-54928571D01*
X42907142Y-53857142D01*
X43192857Y-54928571D01*
X43550000Y-53428571D01*
X44764285Y-54928571D02*
X44764285Y-54142857D01*
X44692857Y-54000000D01*
X44550000Y-53928571D01*
X44264285Y-53928571D01*
X44121428Y-54000000D01*
X44764285Y-54857142D02*
X44621428Y-54928571D01*
X44264285Y-54928571D01*
X44121428Y-54857142D01*
X44050000Y-54714285D01*
X44050000Y-54571428D01*
X44121428Y-54428571D01*
X44264285Y-54357142D01*
X44621428Y-54357142D01*
X44764285Y-54285714D01*
X45478571Y-54928571D02*
X45478571Y-53928571D01*
X45478571Y-54214285D02*
X45550000Y-54071428D01*
X45621428Y-54000000D01*
X45764285Y-53928571D01*
X45907142Y-53928571D01*
X46407142Y-53928571D02*
X46407142Y-54928571D01*
X46407142Y-54071428D02*
X46478571Y-54000000D01*
X46621428Y-53928571D01*
X46835714Y-53928571D01*
X46978571Y-54000000D01*
X47050000Y-54142857D01*
X47050000Y-54928571D01*
X47764285Y-54928571D02*
X47764285Y-53928571D01*
X47764285Y-53428571D02*
X47692857Y-53500000D01*
X47764285Y-53571428D01*
X47835714Y-53500000D01*
X47764285Y-53428571D01*
X47764285Y-53571428D01*
X48478571Y-53928571D02*
X48478571Y-54928571D01*
X48478571Y-54071428D02*
X48550000Y-54000000D01*
X48692857Y-53928571D01*
X48907142Y-53928571D01*
X49050000Y-54000000D01*
X49121428Y-54142857D01*
X49121428Y-54928571D01*
X50478571Y-53928571D02*
X50478571Y-55142857D01*
X50407142Y-55285714D01*
X50335714Y-55357142D01*
X50192857Y-55428571D01*
X49978571Y-55428571D01*
X49835714Y-55357142D01*
X50478571Y-54857142D02*
X50335714Y-54928571D01*
X50050000Y-54928571D01*
X49907142Y-54857142D01*
X49835714Y-54785714D01*
X49764285Y-54642857D01*
X49764285Y-54214285D01*
X49835714Y-54071428D01*
X49907142Y-54000000D01*
X50050000Y-53928571D01*
X50335714Y-53928571D01*
X50478571Y-54000000D01*
X51192857Y-54785714D02*
X51264285Y-54857142D01*
X51192857Y-54928571D01*
X51121428Y-54857142D01*
X51192857Y-54785714D01*
X51192857Y-54928571D01*
X51192857Y-54357142D02*
X51121428Y-53500000D01*
X51192857Y-53428571D01*
X51264285Y-53500000D01*
X51192857Y-54357142D01*
X51192857Y-53428571D01*
X39585714Y-57478571D02*
X39585714Y-55978571D01*
X39585714Y-56692857D02*
X40442857Y-56692857D01*
X40442857Y-57478571D02*
X40442857Y-55978571D01*
X41157142Y-57478571D02*
X41157142Y-56478571D01*
X41157142Y-55978571D02*
X41085714Y-56050000D01*
X41157142Y-56121428D01*
X41228571Y-56050000D01*
X41157142Y-55978571D01*
X41157142Y-56121428D01*
X42514285Y-56478571D02*
X42514285Y-57692857D01*
X42442857Y-57835714D01*
X42371428Y-57907142D01*
X42228571Y-57978571D01*
X42014285Y-57978571D01*
X41871428Y-57907142D01*
X42514285Y-57407142D02*
X42371428Y-57478571D01*
X42085714Y-57478571D01*
X41942857Y-57407142D01*
X41871428Y-57335714D01*
X41800000Y-57192857D01*
X41800000Y-56764285D01*
X41871428Y-56621428D01*
X41942857Y-56550000D01*
X42085714Y-56478571D01*
X42371428Y-56478571D01*
X42514285Y-56550000D01*
X43228571Y-57478571D02*
X43228571Y-55978571D01*
X43871428Y-57478571D02*
X43871428Y-56692857D01*
X43800000Y-56550000D01*
X43657142Y-56478571D01*
X43442857Y-56478571D01*
X43300000Y-56550000D01*
X43228571Y-56621428D01*
X45514285Y-55978571D02*
X46014285Y-57478571D01*
X46514285Y-55978571D01*
X47228571Y-57478571D02*
X47085714Y-57407142D01*
X47014285Y-57335714D01*
X46942857Y-57192857D01*
X46942857Y-56764285D01*
X47014285Y-56621428D01*
X47085714Y-56550000D01*
X47228571Y-56478571D01*
X47442857Y-56478571D01*
X47585714Y-56550000D01*
X47657142Y-56621428D01*
X47728571Y-56764285D01*
X47728571Y-57192857D01*
X47657142Y-57335714D01*
X47585714Y-57407142D01*
X47442857Y-57478571D01*
X47228571Y-57478571D01*
X48585714Y-57478571D02*
X48442857Y-57407142D01*
X48371428Y-57264285D01*
X48371428Y-55978571D01*
X48942857Y-56478571D02*
X49514285Y-56478571D01*
X49157142Y-55978571D02*
X49157142Y-57264285D01*
X49228571Y-57407142D01*
X49371428Y-57478571D01*
X49514285Y-57478571D01*
X50657142Y-57478571D02*
X50657142Y-56692857D01*
X50585714Y-56550000D01*
X50442857Y-56478571D01*
X50157142Y-56478571D01*
X50014285Y-56550000D01*
X50657142Y-57407142D02*
X50514285Y-57478571D01*
X50157142Y-57478571D01*
X50014285Y-57407142D01*
X49942857Y-57264285D01*
X49942857Y-57121428D01*
X50014285Y-56978571D01*
X50157142Y-56907142D01*
X50514285Y-56907142D01*
X50657142Y-56835714D01*
X52014285Y-56478571D02*
X52014285Y-57692857D01*
X51942857Y-57835714D01*
X51871428Y-57907142D01*
X51728571Y-57978571D01*
X51514285Y-57978571D01*
X51371428Y-57907142D01*
X52014285Y-57407142D02*
X51871428Y-57478571D01*
X51585714Y-57478571D01*
X51442857Y-57407142D01*
X51371428Y-57335714D01*
X51300000Y-57192857D01*
X51300000Y-56764285D01*
X51371428Y-56621428D01*
X51442857Y-56550000D01*
X51585714Y-56478571D01*
X51871428Y-56478571D01*
X52014285Y-56550000D01*
X53300000Y-57407142D02*
X53157142Y-57478571D01*
X52871428Y-57478571D01*
X52728571Y-57407142D01*
X52657142Y-57264285D01*
X52657142Y-56692857D01*
X52728571Y-56550000D01*
X52871428Y-56478571D01*
X53157142Y-56478571D01*
X53300000Y-56550000D01*
X53371428Y-56692857D01*
X53371428Y-56835714D01*
X52657142Y-56978571D01*
X54014285Y-57335714D02*
X54085714Y-57407142D01*
X54014285Y-57478571D01*
X53942857Y-57407142D01*
X54014285Y-57335714D01*
X54014285Y-57478571D01*
X54014285Y-56907142D02*
X53942857Y-56050000D01*
X54014285Y-55978571D01*
X54085714Y-56050000D01*
X54014285Y-56907142D01*
X54014285Y-55978571D01*
X40692857Y-60028571D02*
X39835714Y-60028571D01*
X40264285Y-60028571D02*
X40264285Y-58528571D01*
X40121428Y-58742857D01*
X39978571Y-58885714D01*
X39835714Y-58957142D01*
X42121428Y-60028571D02*
X41264285Y-60028571D01*
X41692857Y-60028571D02*
X41692857Y-58528571D01*
X41550000Y-58742857D01*
X41407142Y-58885714D01*
X41264285Y-58957142D01*
X43050000Y-58528571D02*
X43192857Y-58528571D01*
X43335714Y-58600000D01*
X43407142Y-58671428D01*
X43478571Y-58814285D01*
X43550000Y-59100000D01*
X43550000Y-59457142D01*
X43478571Y-59742857D01*
X43407142Y-59885714D01*
X43335714Y-59957142D01*
X43192857Y-60028571D01*
X43050000Y-60028571D01*
X42907142Y-59957142D01*
X42835714Y-59885714D01*
X42764285Y-59742857D01*
X42692857Y-59457142D01*
X42692857Y-59100000D01*
X42764285Y-58814285D01*
X42835714Y-58671428D01*
X42907142Y-58600000D01*
X43050000Y-58528571D01*
X44192857Y-59457142D02*
X45335714Y-59457142D01*
X45978571Y-58671428D02*
X46050000Y-58600000D01*
X46192857Y-58528571D01*
X46550000Y-58528571D01*
X46692857Y-58600000D01*
X46764285Y-58671428D01*
X46835714Y-58814285D01*
X46835714Y-58957142D01*
X46764285Y-59171428D01*
X45907142Y-60028571D01*
X46835714Y-60028571D01*
X48121428Y-59028571D02*
X48121428Y-60028571D01*
X47764285Y-58457142D02*
X47407142Y-59528571D01*
X48335714Y-59528571D01*
X49192857Y-58528571D02*
X49335714Y-58528571D01*
X49478571Y-58600000D01*
X49550000Y-58671428D01*
X49621428Y-58814285D01*
X49692857Y-59100000D01*
X49692857Y-59457142D01*
X49621428Y-59742857D01*
X49550000Y-59885714D01*
X49478571Y-59957142D01*
X49335714Y-60028571D01*
X49192857Y-60028571D01*
X49050000Y-59957142D01*
X48978571Y-59885714D01*
X48907142Y-59742857D01*
X48835714Y-59457142D01*
X48835714Y-59100000D01*
X48907142Y-58814285D01*
X48978571Y-58671428D01*
X49050000Y-58600000D01*
X49192857Y-58528571D01*
X50121428Y-58528571D02*
X50621428Y-60028571D01*
X51121428Y-58528571D01*
X51550000Y-59600000D02*
X52264285Y-59600000D01*
X51407142Y-60028571D02*
X51907142Y-58528571D01*
X52407142Y-60028571D01*
X53764285Y-59885714D02*
X53692857Y-59957142D01*
X53478571Y-60028571D01*
X53335714Y-60028571D01*
X53121428Y-59957142D01*
X52978571Y-59814285D01*
X52907142Y-59671428D01*
X52835714Y-59385714D01*
X52835714Y-59171428D01*
X52907142Y-58885714D01*
X52978571Y-58742857D01*
X53121428Y-58600000D01*
X53335714Y-58528571D01*
X53478571Y-58528571D01*
X53692857Y-58600000D01*
X53764285Y-58671428D01*
D11*
X117165699Y-104952380D02*
X116594270Y-104952380D01*
X116879985Y-104952380D02*
X117004985Y-103952380D01*
X116891889Y-104095238D01*
X116784747Y-104190476D01*
X116683556Y-104238095D01*
X117624032Y-103952380D02*
X117737127Y-104952380D01*
X118016889Y-104238095D01*
X118118080Y-104952380D01*
X118481175Y-103952380D01*
X118737127Y-104952380D02*
X118862127Y-103952380D01*
X119784747Y-104952380D02*
X119510937Y-104476190D01*
X119213318Y-104952380D02*
X119338318Y-103952380D01*
X119719270Y-103952380D01*
X119808556Y-104000000D01*
X119850223Y-104047619D01*
X119885937Y-104142857D01*
X119868080Y-104285714D01*
X119808556Y-104380952D01*
X119754985Y-104428571D01*
X119653794Y-104476190D01*
X119272842Y-104476190D01*
X120278794Y-104428571D02*
X120612127Y-104428571D01*
X120689508Y-104952380D02*
X120213318Y-104952380D01*
X120338318Y-103952380D01*
X120814508Y-103952380D01*
D10*
X114700000Y-106361904D02*
X114700000Y-105561904D01*
X115233333Y-105561904D02*
X115385714Y-105561904D01*
X115461904Y-105600000D01*
X115538095Y-105676190D01*
X115576190Y-105828571D01*
X115576190Y-106095238D01*
X115538095Y-106247619D01*
X115461904Y-106323809D01*
X115385714Y-106361904D01*
X115233333Y-106361904D01*
X115157142Y-106323809D01*
X115080952Y-106247619D01*
X115042857Y-106095238D01*
X115042857Y-105828571D01*
X115080952Y-105676190D01*
X115157142Y-105600000D01*
X115233333Y-105561904D01*
X116261904Y-105828571D02*
X116261904Y-106361904D01*
X116071428Y-105523809D02*
X115880952Y-106095238D01*
X116376190Y-106095238D01*
D11*
X100702380Y-103500000D02*
X99702380Y-103500000D01*
X99702380Y-102833333D02*
X99702380Y-102642857D01*
X99750000Y-102547619D01*
X99845238Y-102452380D01*
X100035714Y-102404761D01*
X100369047Y-102404761D01*
X100559523Y-102452380D01*
X100654761Y-102547619D01*
X100702380Y-102642857D01*
X100702380Y-102833333D01*
X100654761Y-102928571D01*
X100559523Y-103023809D01*
X100369047Y-103071428D01*
X100035714Y-103071428D01*
X99845238Y-103023809D01*
X99750000Y-102928571D01*
X99702380Y-102833333D01*
X99797619Y-102023809D02*
X99750000Y-101976190D01*
X99702380Y-101880952D01*
X99702380Y-101642857D01*
X99750000Y-101547619D01*
X99797619Y-101500000D01*
X99892857Y-101452380D01*
X99988095Y-101452380D01*
X100130952Y-101500000D01*
X100702380Y-102071428D01*
X100702380Y-101452380D01*
X96702380Y-103738095D02*
X96702380Y-103119047D01*
X97083333Y-103452380D01*
X97083333Y-103309523D01*
X97130952Y-103214285D01*
X97178571Y-103166666D01*
X97273809Y-103119047D01*
X97511904Y-103119047D01*
X97607142Y-103166666D01*
X97654761Y-103214285D01*
X97702380Y-103309523D01*
X97702380Y-103595238D01*
X97654761Y-103690476D01*
X97607142Y-103738095D01*
X96702380Y-102833333D02*
X97702380Y-102500000D01*
X96702380Y-102166666D01*
X96702380Y-101928571D02*
X96702380Y-101309523D01*
X97083333Y-101642857D01*
X97083333Y-101500000D01*
X97130952Y-101404761D01*
X97178571Y-101357142D01*
X97273809Y-101309523D01*
X97511904Y-101309523D01*
X97607142Y-101357142D01*
X97654761Y-101404761D01*
X97702380Y-101500000D01*
X97702380Y-101785714D01*
X97654761Y-101880952D01*
X97607142Y-101928571D01*
D10*
X133890476Y-105600000D02*
X133814285Y-105561904D01*
X133700000Y-105561904D01*
X133585714Y-105600000D01*
X133509523Y-105676190D01*
X133471428Y-105752380D01*
X133433333Y-105904761D01*
X133433333Y-106019047D01*
X133471428Y-106171428D01*
X133509523Y-106247619D01*
X133585714Y-106323809D01*
X133700000Y-106361904D01*
X133776190Y-106361904D01*
X133890476Y-106323809D01*
X133928571Y-106285714D01*
X133928571Y-106019047D01*
X133776190Y-106019047D01*
X134271428Y-106361904D02*
X134271428Y-105561904D01*
X134728571Y-106361904D01*
X134728571Y-105561904D01*
X135109523Y-106361904D02*
X135109523Y-105561904D01*
X135300000Y-105561904D01*
X135414285Y-105600000D01*
X135490476Y-105676190D01*
X135528571Y-105752380D01*
X135566666Y-105904761D01*
X135566666Y-106019047D01*
X135528571Y-106171428D01*
X135490476Y-106247619D01*
X135414285Y-106323809D01*
X135300000Y-106361904D01*
X135109523Y-106361904D01*
X124509523Y-105561904D02*
X125004761Y-105561904D01*
X124738095Y-105866666D01*
X124852380Y-105866666D01*
X124928571Y-105904761D01*
X124966666Y-105942857D01*
X125004761Y-106019047D01*
X125004761Y-106209523D01*
X124966666Y-106285714D01*
X124928571Y-106323809D01*
X124852380Y-106361904D01*
X124623809Y-106361904D01*
X124547619Y-106323809D01*
X124509523Y-106285714D01*
X125233333Y-105561904D02*
X125500000Y-106361904D01*
X125766666Y-105561904D01*
X125957142Y-105561904D02*
X126452380Y-105561904D01*
X126185714Y-105866666D01*
X126300000Y-105866666D01*
X126376190Y-105904761D01*
X126414285Y-105942857D01*
X126452380Y-106019047D01*
X126452380Y-106209523D01*
X126414285Y-106285714D01*
X126376190Y-106323809D01*
X126300000Y-106361904D01*
X126071428Y-106361904D01*
X125995238Y-106323809D01*
X125957142Y-106285714D01*
X130528571Y-106323809D02*
X130642857Y-106361904D01*
X130833333Y-106361904D01*
X130909523Y-106323809D01*
X130947619Y-106285714D01*
X130985714Y-106209523D01*
X130985714Y-106133333D01*
X130947619Y-106057142D01*
X130909523Y-106019047D01*
X130833333Y-105980952D01*
X130680952Y-105942857D01*
X130604761Y-105904761D01*
X130566666Y-105866666D01*
X130528571Y-105790476D01*
X130528571Y-105714285D01*
X130566666Y-105638095D01*
X130604761Y-105600000D01*
X130680952Y-105561904D01*
X130871428Y-105561904D01*
X130985714Y-105600000D01*
X131328571Y-106361904D02*
X131328571Y-105561904D01*
X131519047Y-105561904D01*
X131633333Y-105600000D01*
X131709523Y-105676190D01*
X131747619Y-105752380D01*
X131785714Y-105904761D01*
X131785714Y-106019047D01*
X131747619Y-106171428D01*
X131709523Y-106247619D01*
X131633333Y-106323809D01*
X131519047Y-106361904D01*
X131328571Y-106361904D01*
X132090476Y-106133333D02*
X132471428Y-106133333D01*
X132014285Y-106361904D02*
X132280952Y-105561904D01*
X132547619Y-106361904D01*
X127547619Y-106323809D02*
X127661904Y-106361904D01*
X127852380Y-106361904D01*
X127928571Y-106323809D01*
X127966666Y-106285714D01*
X128004761Y-106209523D01*
X128004761Y-106133333D01*
X127966666Y-106057142D01*
X127928571Y-106019047D01*
X127852380Y-105980952D01*
X127700000Y-105942857D01*
X127623809Y-105904761D01*
X127585714Y-105866666D01*
X127547619Y-105790476D01*
X127547619Y-105714285D01*
X127585714Y-105638095D01*
X127623809Y-105600000D01*
X127700000Y-105561904D01*
X127890476Y-105561904D01*
X128004761Y-105600000D01*
X128804761Y-106285714D02*
X128766666Y-106323809D01*
X128652380Y-106361904D01*
X128576190Y-106361904D01*
X128461904Y-106323809D01*
X128385714Y-106247619D01*
X128347619Y-106171428D01*
X128309523Y-106019047D01*
X128309523Y-105904761D01*
X128347619Y-105752380D01*
X128385714Y-105676190D01*
X128461904Y-105600000D01*
X128576190Y-105561904D01*
X128652380Y-105561904D01*
X128766666Y-105600000D01*
X128804761Y-105638095D01*
X129528571Y-106361904D02*
X129147619Y-106361904D01*
X129147619Y-105561904D01*
X144561904Y-104490476D02*
X144561904Y-103995238D01*
X144866666Y-104261904D01*
X144866666Y-104147619D01*
X144904761Y-104071428D01*
X144942857Y-104033333D01*
X145019047Y-103995238D01*
X145209523Y-103995238D01*
X145285714Y-104033333D01*
X145323809Y-104071428D01*
X145361904Y-104147619D01*
X145361904Y-104376190D01*
X145323809Y-104452380D01*
X145285714Y-104490476D01*
X144561904Y-103766666D02*
X145361904Y-103500000D01*
X144561904Y-103233333D01*
X144561904Y-103042857D02*
X144561904Y-102547619D01*
X144866666Y-102814285D01*
X144866666Y-102700000D01*
X144904761Y-102623809D01*
X144942857Y-102585714D01*
X145019047Y-102547619D01*
X145209523Y-102547619D01*
X145285714Y-102585714D01*
X145323809Y-102623809D01*
X145361904Y-102700000D01*
X145361904Y-102928571D01*
X145323809Y-103004761D01*
X145285714Y-103042857D01*
X143600000Y-104109523D02*
X143561904Y-104185714D01*
X143561904Y-104300000D01*
X143600000Y-104414285D01*
X143676190Y-104490476D01*
X143752380Y-104528571D01*
X143904761Y-104566666D01*
X144019047Y-104566666D01*
X144171428Y-104528571D01*
X144247619Y-104490476D01*
X144323809Y-104414285D01*
X144361904Y-104300000D01*
X144361904Y-104223809D01*
X144323809Y-104109523D01*
X144285714Y-104071428D01*
X144019047Y-104071428D01*
X144019047Y-104223809D01*
X144361904Y-103728571D02*
X143561904Y-103728571D01*
X144361904Y-103271428D01*
X143561904Y-103271428D01*
X144361904Y-102890476D02*
X143561904Y-102890476D01*
X143561904Y-102700000D01*
X143600000Y-102585714D01*
X143676190Y-102509523D01*
X143752380Y-102471428D01*
X143904761Y-102433333D01*
X144019047Y-102433333D01*
X144171428Y-102471428D01*
X144247619Y-102509523D01*
X144323809Y-102585714D01*
X144361904Y-102700000D01*
X144361904Y-102890476D01*
X139942857Y-104590476D02*
X139942857Y-104323809D01*
X140361904Y-104209523D02*
X140361904Y-104590476D01*
X139561904Y-104590476D01*
X139561904Y-104209523D01*
X140361904Y-103866666D02*
X139561904Y-103866666D01*
X140361904Y-103409523D01*
X139561904Y-103409523D01*
X141361904Y-104800000D02*
X140561904Y-104800000D01*
X140561904Y-104266666D02*
X140561904Y-104114285D01*
X140600000Y-104038095D01*
X140676190Y-103961904D01*
X140828571Y-103923809D01*
X141095238Y-103923809D01*
X141247619Y-103961904D01*
X141323809Y-104038095D01*
X141361904Y-104114285D01*
X141361904Y-104266666D01*
X141323809Y-104342857D01*
X141247619Y-104419047D01*
X141095238Y-104457142D01*
X140828571Y-104457142D01*
X140676190Y-104419047D01*
X140600000Y-104342857D01*
X140561904Y-104266666D01*
X140561904Y-103428571D02*
X140561904Y-103352380D01*
X140600000Y-103276190D01*
X140638095Y-103238095D01*
X140714285Y-103200000D01*
X140866666Y-103161904D01*
X141057142Y-103161904D01*
X141209523Y-103200000D01*
X141285714Y-103238095D01*
X141323809Y-103276190D01*
X141361904Y-103352380D01*
X141361904Y-103428571D01*
X141323809Y-103504761D01*
X141285714Y-103542857D01*
X141209523Y-103580952D01*
X141057142Y-103619047D01*
X140866666Y-103619047D01*
X140714285Y-103580952D01*
X140638095Y-103542857D01*
X140600000Y-103504761D01*
X140561904Y-103428571D01*
X142361904Y-104133333D02*
X141980952Y-104400000D01*
X142361904Y-104590476D02*
X141561904Y-104590476D01*
X141561904Y-104285714D01*
X141600000Y-104209523D01*
X141638095Y-104171428D01*
X141714285Y-104133333D01*
X141828571Y-104133333D01*
X141904761Y-104171428D01*
X141942857Y-104209523D01*
X141980952Y-104285714D01*
X141980952Y-104590476D01*
X141561904Y-103866666D02*
X142361904Y-103333333D01*
X141561904Y-103333333D02*
X142361904Y-103866666D01*
X142561904Y-104609523D02*
X142561904Y-104152380D01*
X143361904Y-104380952D02*
X142561904Y-104380952D01*
X142561904Y-103961904D02*
X143361904Y-103428571D01*
X142561904Y-103428571D02*
X143361904Y-103961904D01*
D11*
X139207366Y-100702380D02*
X139415699Y-101702380D01*
X139874032Y-100702380D01*
X140397842Y-100702380D02*
X140588318Y-100702380D01*
X140677604Y-100750000D01*
X140760937Y-100845238D01*
X140784747Y-101035714D01*
X140743080Y-101369047D01*
X140671651Y-101559523D01*
X140564508Y-101654761D01*
X140463318Y-101702380D01*
X140272842Y-101702380D01*
X140183556Y-101654761D01*
X140100223Y-101559523D01*
X140076413Y-101369047D01*
X140118080Y-101035714D01*
X140189508Y-100845238D01*
X140296651Y-100750000D01*
X140397842Y-100702380D01*
X141606175Y-101702380D02*
X141129985Y-101702380D01*
X141254985Y-100702380D01*
X141921651Y-100702380D02*
X142493080Y-100702380D01*
X142082366Y-101702380D02*
X142207366Y-100702380D01*
X143177604Y-101702380D02*
X142701413Y-101702380D01*
X142826413Y-100702380D01*
X143510937Y-101702380D02*
X143635937Y-100702380D01*
X143987127Y-101702380D02*
X144112127Y-100702380D01*
X144558556Y-101702380D01*
X144683556Y-100702380D01*
X145034747Y-101702380D02*
X145159747Y-100702380D01*
X145606175Y-101702380D02*
X145249032Y-101130952D01*
X145731175Y-100702380D02*
X145088318Y-101273809D01*
X174809523Y-80452380D02*
X174238095Y-80452380D01*
X174523809Y-80452380D02*
X174523809Y-79452380D01*
X174428571Y-79595238D01*
X174333333Y-79690476D01*
X174238095Y-79738095D01*
X175428571Y-79452380D02*
X175523809Y-79452380D01*
X175619047Y-79500000D01*
X175666666Y-79547619D01*
X175714285Y-79642857D01*
X175761904Y-79833333D01*
X175761904Y-80071428D01*
X175714285Y-80261904D01*
X175666666Y-80357142D01*
X175619047Y-80404761D01*
X175523809Y-80452380D01*
X175428571Y-80452380D01*
X175333333Y-80404761D01*
X175285714Y-80357142D01*
X175238095Y-80261904D01*
X175190476Y-80071428D01*
X175190476Y-79833333D01*
X175238095Y-79642857D01*
X175285714Y-79547619D01*
X175333333Y-79500000D01*
X175428571Y-79452380D01*
X171309523Y-80452380D02*
X171500000Y-80452380D01*
X171595238Y-80404761D01*
X171642857Y-80357142D01*
X171738095Y-80214285D01*
X171785714Y-80023809D01*
X171785714Y-79642857D01*
X171738095Y-79547619D01*
X171690476Y-79500000D01*
X171595238Y-79452380D01*
X171404761Y-79452380D01*
X171309523Y-79500000D01*
X171261904Y-79547619D01*
X171214285Y-79642857D01*
X171214285Y-79880952D01*
X171261904Y-79976190D01*
X171309523Y-80023809D01*
X171404761Y-80071428D01*
X171595238Y-80071428D01*
X171690476Y-80023809D01*
X171738095Y-79976190D01*
X171785714Y-79880952D01*
X167904761Y-79880952D02*
X167809523Y-79833333D01*
X167761904Y-79785714D01*
X167714285Y-79690476D01*
X167714285Y-79642857D01*
X167761904Y-79547619D01*
X167809523Y-79500000D01*
X167904761Y-79452380D01*
X168095238Y-79452380D01*
X168190476Y-79500000D01*
X168238095Y-79547619D01*
X168285714Y-79642857D01*
X168285714Y-79690476D01*
X168238095Y-79785714D01*
X168190476Y-79833333D01*
X168095238Y-79880952D01*
X167904761Y-79880952D01*
X167809523Y-79928571D01*
X167761904Y-79976190D01*
X167714285Y-80071428D01*
X167714285Y-80261904D01*
X167761904Y-80357142D01*
X167809523Y-80404761D01*
X167904761Y-80452380D01*
X168095238Y-80452380D01*
X168190476Y-80404761D01*
X168238095Y-80357142D01*
X168285714Y-80261904D01*
X168285714Y-80071428D01*
X168238095Y-79976190D01*
X168190476Y-79928571D01*
X168095238Y-79880952D01*
X164166666Y-79452380D02*
X164833333Y-79452380D01*
X164404761Y-80452380D01*
X161190476Y-79452380D02*
X161000000Y-79452380D01*
X160904761Y-79500000D01*
X160857142Y-79547619D01*
X160761904Y-79690476D01*
X160714285Y-79880952D01*
X160714285Y-80261904D01*
X160761904Y-80357142D01*
X160809523Y-80404761D01*
X160904761Y-80452380D01*
X161095238Y-80452380D01*
X161190476Y-80404761D01*
X161238095Y-80357142D01*
X161285714Y-80261904D01*
X161285714Y-80023809D01*
X161238095Y-79928571D01*
X161190476Y-79880952D01*
X161095238Y-79833333D01*
X160904761Y-79833333D01*
X160809523Y-79880952D01*
X160761904Y-79928571D01*
X160714285Y-80023809D01*
X157738095Y-79452380D02*
X157261904Y-79452380D01*
X157214285Y-79928571D01*
X157261904Y-79880952D01*
X157357142Y-79833333D01*
X157595238Y-79833333D01*
X157690476Y-79880952D01*
X157738095Y-79928571D01*
X157785714Y-80023809D01*
X157785714Y-80261904D01*
X157738095Y-80357142D01*
X157690476Y-80404761D01*
X157595238Y-80452380D01*
X157357142Y-80452380D01*
X157261904Y-80404761D01*
X157214285Y-80357142D01*
X154190476Y-79785714D02*
X154190476Y-80452380D01*
X153952380Y-79404761D02*
X153714285Y-80119047D01*
X154333333Y-80119047D01*
X150166666Y-79452380D02*
X150785714Y-79452380D01*
X150452380Y-79833333D01*
X150595238Y-79833333D01*
X150690476Y-79880952D01*
X150738095Y-79928571D01*
X150785714Y-80023809D01*
X150785714Y-80261904D01*
X150738095Y-80357142D01*
X150690476Y-80404761D01*
X150595238Y-80452380D01*
X150309523Y-80452380D01*
X150214285Y-80404761D01*
X150166666Y-80357142D01*
X146714285Y-79547619D02*
X146761904Y-79500000D01*
X146857142Y-79452380D01*
X147095238Y-79452380D01*
X147190476Y-79500000D01*
X147238095Y-79547619D01*
X147285714Y-79642857D01*
X147285714Y-79738095D01*
X147238095Y-79880952D01*
X146666666Y-80452380D01*
X147285714Y-80452380D01*
X143785714Y-80452380D02*
X143214285Y-80452380D01*
X143500000Y-80452380D02*
X143500000Y-79452380D01*
X143404761Y-79595238D01*
X143309523Y-79690476D01*
X143214285Y-79738095D01*
D12*
X164214285Y-43178571D02*
X163357142Y-43178571D01*
X163785714Y-43178571D02*
X163785714Y-41678571D01*
X163642857Y-41892857D01*
X163500000Y-42035714D01*
X163357142Y-42107142D01*
X165142857Y-41678571D02*
X165285714Y-41678571D01*
X165428571Y-41750000D01*
X165500000Y-41821428D01*
X165571428Y-41964285D01*
X165642857Y-42250000D01*
X165642857Y-42607142D01*
X165571428Y-42892857D01*
X165500000Y-43035714D01*
X165428571Y-43107142D01*
X165285714Y-43178571D01*
X165142857Y-43178571D01*
X165000000Y-43107142D01*
X164928571Y-43035714D01*
X164857142Y-42892857D01*
X164785714Y-42607142D01*
X164785714Y-42250000D01*
X164857142Y-41964285D01*
X164928571Y-41821428D01*
X165000000Y-41750000D01*
X165142857Y-41678571D01*
X154214285Y-43178571D02*
X154500000Y-43178571D01*
X154642857Y-43107142D01*
X154714285Y-43035714D01*
X154857142Y-42821428D01*
X154928571Y-42535714D01*
X154928571Y-41964285D01*
X154857142Y-41821428D01*
X154785714Y-41750000D01*
X154642857Y-41678571D01*
X154357142Y-41678571D01*
X154214285Y-41750000D01*
X154142857Y-41821428D01*
X154071428Y-41964285D01*
X154071428Y-42321428D01*
X154142857Y-42464285D01*
X154214285Y-42535714D01*
X154357142Y-42607142D01*
X154642857Y-42607142D01*
X154785714Y-42535714D01*
X154857142Y-42464285D01*
X154928571Y-42321428D01*
X144357142Y-42321428D02*
X144214285Y-42250000D01*
X144142857Y-42178571D01*
X144071428Y-42035714D01*
X144071428Y-41964285D01*
X144142857Y-41821428D01*
X144214285Y-41750000D01*
X144357142Y-41678571D01*
X144642857Y-41678571D01*
X144785714Y-41750000D01*
X144857142Y-41821428D01*
X144928571Y-41964285D01*
X144928571Y-42035714D01*
X144857142Y-42178571D01*
X144785714Y-42250000D01*
X144642857Y-42321428D01*
X144357142Y-42321428D01*
X144214285Y-42392857D01*
X144142857Y-42464285D01*
X144071428Y-42607142D01*
X144071428Y-42892857D01*
X144142857Y-43035714D01*
X144214285Y-43107142D01*
X144357142Y-43178571D01*
X144642857Y-43178571D01*
X144785714Y-43107142D01*
X144857142Y-43035714D01*
X144928571Y-42892857D01*
X144928571Y-42607142D01*
X144857142Y-42464285D01*
X144785714Y-42392857D01*
X144642857Y-42321428D01*
X134000000Y-41678571D02*
X135000000Y-41678571D01*
X134357142Y-43178571D01*
X124785714Y-41678571D02*
X124500000Y-41678571D01*
X124357142Y-41750000D01*
X124285714Y-41821428D01*
X124142857Y-42035714D01*
X124071428Y-42321428D01*
X124071428Y-42892857D01*
X124142857Y-43035714D01*
X124214285Y-43107142D01*
X124357142Y-43178571D01*
X124642857Y-43178571D01*
X124785714Y-43107142D01*
X124857142Y-43035714D01*
X124928571Y-42892857D01*
X124928571Y-42535714D01*
X124857142Y-42392857D01*
X124785714Y-42321428D01*
X124642857Y-42250000D01*
X124357142Y-42250000D01*
X124214285Y-42321428D01*
X124142857Y-42392857D01*
X124071428Y-42535714D01*
X114857142Y-41678571D02*
X114142857Y-41678571D01*
X114071428Y-42392857D01*
X114142857Y-42321428D01*
X114285714Y-42250000D01*
X114642857Y-42250000D01*
X114785714Y-42321428D01*
X114857142Y-42392857D01*
X114928571Y-42535714D01*
X114928571Y-42892857D01*
X114857142Y-43035714D01*
X114785714Y-43107142D01*
X114642857Y-43178571D01*
X114285714Y-43178571D01*
X114142857Y-43107142D01*
X114071428Y-43035714D01*
X104535714Y-42178571D02*
X104535714Y-43178571D01*
X104178571Y-41607142D02*
X103821428Y-42678571D01*
X104750000Y-42678571D01*
X94000000Y-41678571D02*
X94928571Y-41678571D01*
X94428571Y-42250000D01*
X94642857Y-42250000D01*
X94785714Y-42321428D01*
X94857142Y-42392857D01*
X94928571Y-42535714D01*
X94928571Y-42892857D01*
X94857142Y-43035714D01*
X94785714Y-43107142D01*
X94642857Y-43178571D01*
X94214285Y-43178571D01*
X94071428Y-43107142D01*
X94000000Y-43035714D01*
X84071428Y-41821428D02*
X84142857Y-41750000D01*
X84285714Y-41678571D01*
X84642857Y-41678571D01*
X84785714Y-41750000D01*
X84857142Y-41821428D01*
X84928571Y-41964285D01*
X84928571Y-42107142D01*
X84857142Y-42321428D01*
X84000000Y-43178571D01*
X84928571Y-43178571D01*
X74928571Y-43178571D02*
X74071428Y-43178571D01*
X74500000Y-43178571D02*
X74500000Y-41678571D01*
X74357142Y-41892857D01*
X74214285Y-42035714D01*
X74071428Y-42107142D01*
X166571428Y-43178571D02*
X166571428Y-41678571D01*
X167428571Y-43178571D01*
X167428571Y-41678571D01*
X162464285Y-43178571D02*
X161750000Y-43178571D01*
X161750000Y-41678571D01*
X156571428Y-43178571D02*
X156571428Y-41678571D01*
X157428571Y-43178571D01*
X157428571Y-41678571D01*
X152464285Y-43178571D02*
X151750000Y-43178571D01*
X151750000Y-41678571D01*
X146571428Y-43178571D02*
X146571428Y-41678571D01*
X147428571Y-43178571D01*
X147428571Y-41678571D01*
X142464285Y-43178571D02*
X141750000Y-43178571D01*
X141750000Y-41678571D01*
X136571428Y-43178571D02*
X136571428Y-41678571D01*
X137428571Y-43178571D01*
X137428571Y-41678571D01*
X132464285Y-43178571D02*
X131750000Y-43178571D01*
X131750000Y-41678571D01*
X126571428Y-43178571D02*
X126571428Y-41678571D01*
X127428571Y-43178571D01*
X127428571Y-41678571D01*
X122464285Y-43178571D02*
X121750000Y-43178571D01*
X121750000Y-41678571D01*
X116571428Y-43178571D02*
X116571428Y-41678571D01*
X117428571Y-43178571D01*
X117428571Y-41678571D01*
X112464285Y-43178571D02*
X111750000Y-43178571D01*
X111750000Y-41678571D01*
X102214285Y-43178571D02*
X101500000Y-43178571D01*
X101500000Y-41678571D01*
X106321428Y-43178571D02*
X106321428Y-41678571D01*
X107178571Y-43178571D01*
X107178571Y-41678571D01*
X92464285Y-43178571D02*
X91750000Y-43178571D01*
X91750000Y-41678571D01*
X96571428Y-43178571D02*
X96571428Y-41678571D01*
X97428571Y-43178571D01*
X97428571Y-41678571D01*
X82464285Y-43178571D02*
X81750000Y-43178571D01*
X81750000Y-41678571D01*
X86571428Y-43178571D02*
X86571428Y-41678571D01*
X87428571Y-43178571D01*
X87428571Y-41678571D01*
X72464285Y-43178571D02*
X71750000Y-43178571D01*
X71750000Y-41678571D01*
X76571428Y-43178571D02*
X76571428Y-41678571D01*
X77428571Y-43178571D01*
X77428571Y-41678571D01*
X51214285Y-43178571D02*
X50500000Y-43178571D01*
X50500000Y-41678571D01*
X55821428Y-43178571D02*
X55821428Y-41678571D01*
X56678571Y-43178571D01*
X56678571Y-41678571D01*
X44475000Y-43035714D02*
X44475000Y-42321428D01*
X44903571Y-43178571D02*
X43403571Y-42678571D01*
X44903571Y-42178571D01*
X44760714Y-40821428D02*
X44832142Y-40892857D01*
X44903571Y-41107142D01*
X44903571Y-41249999D01*
X44832142Y-41464285D01*
X44689285Y-41607142D01*
X44546428Y-41678571D01*
X44260714Y-41749999D01*
X44046428Y-41749999D01*
X43760714Y-41678571D01*
X43617857Y-41607142D01*
X43475000Y-41464285D01*
X43403571Y-41249999D01*
X43403571Y-41107142D01*
X43475000Y-40892857D01*
X43546428Y-40821428D01*
X44903571Y-39035714D02*
X43403571Y-39035714D01*
X44475000Y-38535714D01*
X43403571Y-38035714D01*
X44903571Y-38035714D01*
X44475000Y-37392857D02*
X44475000Y-36678571D01*
X44903571Y-37535714D02*
X43403571Y-37035714D01*
X44903571Y-36535714D01*
X44903571Y-36035714D02*
X43403571Y-36035714D01*
X44903571Y-35321428D02*
X43403571Y-35321428D01*
X44903571Y-34464285D01*
X43403571Y-34464285D01*
X44832142Y-33821428D02*
X44903571Y-33607142D01*
X44903571Y-33250000D01*
X44832142Y-33107142D01*
X44760714Y-33035714D01*
X44617857Y-32964285D01*
X44475000Y-32964285D01*
X44332142Y-33035714D01*
X44260714Y-33107142D01*
X44189285Y-33250000D01*
X44117857Y-33535714D01*
X44046428Y-33678571D01*
X43975000Y-33750000D01*
X43832142Y-33821428D01*
X43689285Y-33821428D01*
X43546428Y-33750000D01*
X43475000Y-33678571D01*
X43403571Y-33535714D01*
X43403571Y-33178571D01*
X43475000Y-32964285D01*
X47453571Y-40892857D02*
X45953571Y-40892857D01*
X47453571Y-40178571D02*
X45953571Y-40178571D01*
X47453571Y-39321428D01*
X45953571Y-39321428D01*
X47453571Y-38607142D02*
X45953571Y-38607142D01*
X45953571Y-38035714D01*
X46025000Y-37892857D01*
X46096428Y-37821428D01*
X46239285Y-37750000D01*
X46453571Y-37750000D01*
X46596428Y-37821428D01*
X46667857Y-37892857D01*
X46739285Y-38035714D01*
X46739285Y-38607142D01*
X45953571Y-37107142D02*
X47167857Y-37107142D01*
X47310714Y-37035714D01*
X47382142Y-36964285D01*
X47453571Y-36821428D01*
X47453571Y-36535714D01*
X47382142Y-36392857D01*
X47310714Y-36321428D01*
X47167857Y-36250000D01*
X45953571Y-36250000D01*
X45953571Y-35750000D02*
X45953571Y-34892857D01*
X47453571Y-35321428D02*
X45953571Y-35321428D01*
X42278571Y-107803571D02*
X41421428Y-107803571D01*
X41850000Y-107803571D02*
X41850000Y-106303571D01*
X41707142Y-106517857D01*
X41564285Y-106660714D01*
X41421428Y-106732142D01*
X43207142Y-106303571D02*
X43350000Y-106303571D01*
X43492857Y-106375000D01*
X43564285Y-106446428D01*
X43635714Y-106589285D01*
X43707142Y-106875000D01*
X43707142Y-107232142D01*
X43635714Y-107517857D01*
X43564285Y-107660714D01*
X43492857Y-107732142D01*
X43350000Y-107803571D01*
X43207142Y-107803571D01*
X43064285Y-107732142D01*
X42992857Y-107660714D01*
X42921428Y-107517857D01*
X42850000Y-107232142D01*
X42850000Y-106875000D01*
X42921428Y-106589285D01*
X42992857Y-106446428D01*
X43064285Y-106375000D01*
X43207142Y-106303571D01*
X44992857Y-107732142D02*
X44850000Y-107803571D01*
X44564285Y-107803571D01*
X44421428Y-107732142D01*
X44350000Y-107660714D01*
X44278571Y-107517857D01*
X44278571Y-107089285D01*
X44350000Y-106946428D01*
X44421428Y-106875000D01*
X44564285Y-106803571D01*
X44850000Y-106803571D01*
X44992857Y-106875000D01*
X45635714Y-107803571D02*
X45635714Y-106303571D01*
X46278571Y-107803571D02*
X46278571Y-107017857D01*
X46207142Y-106875000D01*
X46064285Y-106803571D01*
X45850000Y-106803571D01*
X45707142Y-106875000D01*
X45635714Y-106946428D01*
X47921428Y-106303571D02*
X48421428Y-107803571D01*
X48921428Y-106303571D01*
X50064285Y-107803571D02*
X50064285Y-107017857D01*
X49992857Y-106875000D01*
X49850000Y-106803571D01*
X49564285Y-106803571D01*
X49421428Y-106875000D01*
X50064285Y-107732142D02*
X49921428Y-107803571D01*
X49564285Y-107803571D01*
X49421428Y-107732142D01*
X49350000Y-107589285D01*
X49350000Y-107446428D01*
X49421428Y-107303571D01*
X49564285Y-107232142D01*
X49921428Y-107232142D01*
X50064285Y-107160714D01*
X50992857Y-107803571D02*
X50850000Y-107732142D01*
X50778571Y-107589285D01*
X50778571Y-106303571D01*
X51421428Y-106803571D02*
X51778571Y-107803571D01*
X52135714Y-106803571D01*
X53278571Y-107732142D02*
X53135714Y-107803571D01*
X52850000Y-107803571D01*
X52707142Y-107732142D01*
X52635714Y-107589285D01*
X52635714Y-107017857D01*
X52707142Y-106875000D01*
X52850000Y-106803571D01*
X53135714Y-106803571D01*
X53278571Y-106875000D01*
X53350000Y-107017857D01*
X53350000Y-107160714D01*
X52635714Y-107303571D01*
X55064285Y-107375000D02*
X55778571Y-107375000D01*
X54921428Y-107803571D02*
X55421428Y-106303571D01*
X55921428Y-107803571D01*
X57064285Y-107732142D02*
X56921428Y-107803571D01*
X56635714Y-107803571D01*
X56492857Y-107732142D01*
X56421428Y-107660714D01*
X56350000Y-107517857D01*
X56350000Y-107089285D01*
X56421428Y-106946428D01*
X56492857Y-106875000D01*
X56635714Y-106803571D01*
X56921428Y-106803571D01*
X57064285Y-106875000D01*
X57492857Y-106803571D02*
X58064285Y-106803571D01*
X57707142Y-106303571D02*
X57707142Y-107589285D01*
X57778571Y-107732142D01*
X57921428Y-107803571D01*
X58064285Y-107803571D01*
X59207142Y-106803571D02*
X59207142Y-107803571D01*
X58564285Y-106803571D02*
X58564285Y-107589285D01*
X58635714Y-107732142D01*
X58778571Y-107803571D01*
X58992857Y-107803571D01*
X59135714Y-107732142D01*
X59207142Y-107660714D01*
X60564285Y-107803571D02*
X60564285Y-107017857D01*
X60492857Y-106875000D01*
X60350000Y-106803571D01*
X60064285Y-106803571D01*
X59921428Y-106875000D01*
X60564285Y-107732142D02*
X60421428Y-107803571D01*
X60064285Y-107803571D01*
X59921428Y-107732142D01*
X59850000Y-107589285D01*
X59850000Y-107446428D01*
X59921428Y-107303571D01*
X60064285Y-107232142D01*
X60421428Y-107232142D01*
X60564285Y-107160714D01*
X61064285Y-106803571D02*
X61635714Y-106803571D01*
X61278571Y-106303571D02*
X61278571Y-107589285D01*
X61350000Y-107732142D01*
X61492857Y-107803571D01*
X61635714Y-107803571D01*
X62350000Y-107803571D02*
X62207142Y-107732142D01*
X62135714Y-107660714D01*
X62064285Y-107517857D01*
X62064285Y-107089285D01*
X62135714Y-106946428D01*
X62207142Y-106875000D01*
X62350000Y-106803571D01*
X62564285Y-106803571D01*
X62707142Y-106875000D01*
X62778571Y-106946428D01*
X62850000Y-107089285D01*
X62850000Y-107517857D01*
X62778571Y-107660714D01*
X62707142Y-107732142D01*
X62564285Y-107803571D01*
X62350000Y-107803571D01*
X63492857Y-107803571D02*
X63492857Y-106803571D01*
X63492857Y-107089285D02*
X63564285Y-106946428D01*
X63635714Y-106875000D01*
X63778571Y-106803571D01*
X63921428Y-106803571D01*
X43600000Y-108996428D02*
X43671428Y-108925000D01*
X43814285Y-108853571D01*
X44171428Y-108853571D01*
X44314285Y-108925000D01*
X44385714Y-108996428D01*
X44457142Y-109139285D01*
X44457142Y-109282142D01*
X44385714Y-109496428D01*
X43528571Y-110353571D01*
X44457142Y-110353571D01*
X45742857Y-109353571D02*
X45742857Y-110353571D01*
X45385714Y-108782142D02*
X45028571Y-109853571D01*
X45957142Y-109853571D01*
X46814285Y-108853571D02*
X46957142Y-108853571D01*
X47100000Y-108925000D01*
X47171428Y-108996428D01*
X47242857Y-109139285D01*
X47314285Y-109425000D01*
X47314285Y-109782142D01*
X47242857Y-110067857D01*
X47171428Y-110210714D01*
X47100000Y-110282142D01*
X46957142Y-110353571D01*
X46814285Y-110353571D01*
X46671428Y-110282142D01*
X46600000Y-110210714D01*
X46528571Y-110067857D01*
X46457142Y-109782142D01*
X46457142Y-109425000D01*
X46528571Y-109139285D01*
X46600000Y-108996428D01*
X46671428Y-108925000D01*
X46814285Y-108853571D01*
X47742857Y-108853571D02*
X48242857Y-110353571D01*
X48742857Y-108853571D01*
X49171428Y-109925000D02*
X49885714Y-109925000D01*
X49028571Y-110353571D02*
X49528571Y-108853571D01*
X50028571Y-110353571D01*
X51385714Y-110210714D02*
X51314285Y-110282142D01*
X51100000Y-110353571D01*
X50957142Y-110353571D01*
X50742857Y-110282142D01*
X50600000Y-110139285D01*
X50528571Y-109996428D01*
X50457142Y-109710714D01*
X50457142Y-109496428D01*
X50528571Y-109210714D01*
X50600000Y-109067857D01*
X50742857Y-108925000D01*
X50957142Y-108853571D01*
X51100000Y-108853571D01*
X51314285Y-108925000D01*
X51385714Y-108996428D01*
X53457142Y-108853571D02*
X53600000Y-108853571D01*
X53742857Y-108925000D01*
X53814285Y-108996428D01*
X53885714Y-109139285D01*
X53957142Y-109425000D01*
X53957142Y-109782142D01*
X53885714Y-110067857D01*
X53814285Y-110210714D01*
X53742857Y-110282142D01*
X53600000Y-110353571D01*
X53457142Y-110353571D01*
X53314285Y-110282142D01*
X53242857Y-110210714D01*
X53171428Y-110067857D01*
X53100000Y-109782142D01*
X53100000Y-109425000D01*
X53171428Y-109139285D01*
X53242857Y-108996428D01*
X53314285Y-108925000D01*
X53457142Y-108853571D01*
X54600000Y-110210714D02*
X54671428Y-110282142D01*
X54600000Y-110353571D01*
X54528571Y-110282142D01*
X54600000Y-110210714D01*
X54600000Y-110353571D01*
X55171428Y-108853571D02*
X56100000Y-108853571D01*
X55600000Y-109425000D01*
X55814285Y-109425000D01*
X55957142Y-109496428D01*
X56028571Y-109567857D01*
X56100000Y-109710714D01*
X56100000Y-110067857D01*
X56028571Y-110210714D01*
X55957142Y-110282142D01*
X55814285Y-110353571D01*
X55385714Y-110353571D01*
X55242857Y-110282142D01*
X55171428Y-110210714D01*
X56671428Y-109925000D02*
X57385714Y-109925000D01*
X56528571Y-110353571D02*
X57028571Y-108853571D01*
X57528571Y-110353571D01*
X59100000Y-108782142D02*
X57814285Y-110710714D01*
X60242857Y-110282142D02*
X60100000Y-110353571D01*
X59814285Y-110353571D01*
X59671428Y-110282142D01*
X59600000Y-110210714D01*
X59528571Y-110067857D01*
X59528571Y-109639285D01*
X59600000Y-109496428D01*
X59671428Y-109425000D01*
X59814285Y-109353571D01*
X60100000Y-109353571D01*
X60242857Y-109425000D01*
X60885714Y-110353571D02*
X60885714Y-108853571D01*
X61528571Y-110353571D02*
X61528571Y-109567857D01*
X61457142Y-109425000D01*
X61314285Y-109353571D01*
X61100000Y-109353571D01*
X60957142Y-109425000D01*
X60885714Y-109496428D01*
X98500000Y-98500000D02*
X97500000Y-98000000D01*
X98500000Y-98500000D02*
X97500000Y-99000000D01*
X94500000Y-98500000D02*
X98500000Y-98500000D01*
X86500000Y-98500000D02*
X87500000Y-99000000D01*
X86500000Y-98500000D02*
X87500000Y-98000000D01*
X90500000Y-98500000D02*
X86500000Y-98500000D01*
D13*
X96761904Y-96904761D02*
X95809523Y-96904761D01*
X95809523Y-94904761D01*
X97142857Y-94904761D02*
X97809523Y-96904761D01*
X98476190Y-94904761D01*
X86571428Y-96904761D02*
X86571428Y-94904761D01*
X86571428Y-95857142D02*
X87714285Y-95857142D01*
X87714285Y-96904761D02*
X87714285Y-94904761D01*
X88380952Y-94904761D02*
X89047619Y-96904761D01*
X89714285Y-94904761D01*
D14*
X56600000Y-67300000D02*
X59300000Y-70000000D01*
X55300000Y-66000000D02*
X56600000Y-67300000D01*
X55300000Y-64600000D02*
X55300000Y-66000000D01*
X56300000Y-63700000D02*
X55300000Y-64600000D01*
D15*
X55800000Y-63400000D02*
X55700000Y-63500000D01*
D14*
X56300000Y-63700000D02*
X184250000Y-63700000D01*
X92500000Y-70000000D02*
X59300000Y-70000000D01*
X92500000Y-111000000D02*
X92500000Y-70000000D01*
D15*
G04 #@! TO.C,TP5*
X115450000Y-89500000D02*
G75*
G03*
X115450000Y-89500000I-950000J0D01*
G01*
G04 #@! TO.C,TP4*
X138450000Y-90750000D02*
G75*
G03*
X138450000Y-90750000I-950000J0D01*
G01*
G04 #@! TO.C,TP3*
X140950000Y-90750000D02*
G75*
G03*
X140950000Y-90750000I-950000J0D01*
G01*
G04 #@! TO.C,TP2*
X135950000Y-90750000D02*
G75*
G03*
X135950000Y-90750000I-950000J0D01*
G01*
G04 #@! TO.C,TP1*
X133450000Y-90750000D02*
G75*
G03*
X133450000Y-90750000I-950000J0D01*
G01*
G04 #@! TO.C,J6*
X58800000Y-32700000D02*
X58200000Y-32700000D01*
X58800000Y-33540000D02*
X58800000Y-32700000D01*
X52180000Y-35524000D02*
X52274000Y-35431000D01*
X49930000Y-37775000D02*
X49989000Y-37716000D01*
X52010000Y-35284000D02*
X52069000Y-35226000D01*
X49725000Y-37569000D02*
X49819000Y-37476000D01*
X48440000Y-40660000D02*
X48440000Y-32939000D01*
X58560000Y-40660000D02*
X58560000Y-32939000D01*
X58560000Y-32939000D02*
X48440000Y-32939000D01*
X58560000Y-40660000D02*
X48440000Y-40660000D01*
X58560000Y-38900000D02*
X48440000Y-38900000D01*
X58560000Y-34200000D02*
X48440000Y-34200000D01*
X58560000Y-33600000D02*
X48440000Y-33600000D01*
X51550000Y-39500000D02*
G75*
G03*
X51550000Y-39500000I-550000J0D01*
G01*
X52680000Y-36500000D02*
G75*
G03*
X52680000Y-36500000I-1680000J0D01*
G01*
X56550000Y-39500000D02*
G75*
G03*
X56550000Y-39500000I-550000J0D01*
G01*
X55970617Y-34819550D02*
G75*
G02*
X56789000Y-35016000I29383J-1680450D01*
G01*
X57483953Y-35710912D02*
G75*
G02*
X57484000Y-37289000I-1483953J-789088D01*
G01*
X56789088Y-37983953D02*
G75*
G02*
X55211000Y-37984000I-789088J1483953D01*
G01*
X54516047Y-37289088D02*
G75*
G02*
X54516000Y-35711000I1483953J789088D01*
G01*
X55211288Y-35016648D02*
G75*
G02*
X56000000Y-34820000I788712J-1483352D01*
G01*
G04 #@! TO.C,J5*
X169800000Y-32700000D02*
X169200000Y-32700000D01*
X169800000Y-33540000D02*
X169800000Y-32700000D01*
X123180000Y-35524000D02*
X123274000Y-35431000D01*
X120930000Y-37775000D02*
X120989000Y-37716000D01*
X123010000Y-35284000D02*
X123069000Y-35226000D01*
X120725000Y-37569000D02*
X120819000Y-37476000D01*
X128180000Y-35524000D02*
X128274000Y-35431000D01*
X125930000Y-37775000D02*
X125989000Y-37716000D01*
X128010000Y-35284000D02*
X128069000Y-35226000D01*
X125725000Y-37569000D02*
X125819000Y-37476000D01*
X133180000Y-35524000D02*
X133274000Y-35431000D01*
X130930000Y-37775000D02*
X130989000Y-37716000D01*
X133010000Y-35284000D02*
X133069000Y-35226000D01*
X130725000Y-37569000D02*
X130819000Y-37476000D01*
X138180000Y-35524000D02*
X138274000Y-35431000D01*
X135930000Y-37775000D02*
X135989000Y-37716000D01*
X138010000Y-35284000D02*
X138069000Y-35226000D01*
X135725000Y-37569000D02*
X135819000Y-37476000D01*
X143180000Y-35524000D02*
X143274000Y-35431000D01*
X140930000Y-37775000D02*
X140989000Y-37716000D01*
X143010000Y-35284000D02*
X143069000Y-35226000D01*
X140725000Y-37569000D02*
X140819000Y-37476000D01*
X148180000Y-35524000D02*
X148274000Y-35431000D01*
X145930000Y-37775000D02*
X145989000Y-37716000D01*
X148010000Y-35284000D02*
X148069000Y-35226000D01*
X145725000Y-37569000D02*
X145819000Y-37476000D01*
X153180000Y-35524000D02*
X153274000Y-35431000D01*
X150930000Y-37775000D02*
X150989000Y-37716000D01*
X153010000Y-35284000D02*
X153069000Y-35226000D01*
X150725000Y-37569000D02*
X150819000Y-37476000D01*
X158180000Y-35524000D02*
X158274000Y-35431000D01*
X155930000Y-37775000D02*
X155989000Y-37716000D01*
X158010000Y-35284000D02*
X158069000Y-35226000D01*
X155725000Y-37569000D02*
X155819000Y-37476000D01*
X163180000Y-35524000D02*
X163274000Y-35431000D01*
X160930000Y-37775000D02*
X160989000Y-37716000D01*
X163010000Y-35284000D02*
X163069000Y-35226000D01*
X160725000Y-37569000D02*
X160819000Y-37476000D01*
X119440000Y-40660000D02*
X119440000Y-32939000D01*
X169560000Y-40660000D02*
X169560000Y-32939000D01*
X169560000Y-32939000D02*
X119440000Y-32939000D01*
X169560000Y-40660000D02*
X119440000Y-40660000D01*
X169560000Y-38900000D02*
X119440000Y-38900000D01*
X169560000Y-34200000D02*
X119440000Y-34200000D01*
X169560000Y-33600000D02*
X119440000Y-33600000D01*
X122550000Y-39500000D02*
G75*
G03*
X122550000Y-39500000I-550000J0D01*
G01*
X123680000Y-36500000D02*
G75*
G03*
X123680000Y-36500000I-1680000J0D01*
G01*
X127550000Y-39500000D02*
G75*
G03*
X127550000Y-39500000I-550000J0D01*
G01*
X128680000Y-36500000D02*
G75*
G03*
X128680000Y-36500000I-1680000J0D01*
G01*
X132550000Y-39500000D02*
G75*
G03*
X132550000Y-39500000I-550000J0D01*
G01*
X133680000Y-36500000D02*
G75*
G03*
X133680000Y-36500000I-1680000J0D01*
G01*
X137550000Y-39500000D02*
G75*
G03*
X137550000Y-39500000I-550000J0D01*
G01*
X138680000Y-36500000D02*
G75*
G03*
X138680000Y-36500000I-1680000J0D01*
G01*
X142550000Y-39500000D02*
G75*
G03*
X142550000Y-39500000I-550000J0D01*
G01*
X143680000Y-36500000D02*
G75*
G03*
X143680000Y-36500000I-1680000J0D01*
G01*
X147550000Y-39500000D02*
G75*
G03*
X147550000Y-39500000I-550000J0D01*
G01*
X148680000Y-36500000D02*
G75*
G03*
X148680000Y-36500000I-1680000J0D01*
G01*
X152550000Y-39500000D02*
G75*
G03*
X152550000Y-39500000I-550000J0D01*
G01*
X153680000Y-36500000D02*
G75*
G03*
X153680000Y-36500000I-1680000J0D01*
G01*
X157550000Y-39500000D02*
G75*
G03*
X157550000Y-39500000I-550000J0D01*
G01*
X158680000Y-36500000D02*
G75*
G03*
X158680000Y-36500000I-1680000J0D01*
G01*
X162550000Y-39500000D02*
G75*
G03*
X162550000Y-39500000I-550000J0D01*
G01*
X163680000Y-36500000D02*
G75*
G03*
X163680000Y-36500000I-1680000J0D01*
G01*
X167550000Y-39500000D02*
G75*
G03*
X167550000Y-39500000I-550000J0D01*
G01*
X166970617Y-34819550D02*
G75*
G02*
X167789000Y-35016000I29383J-1680450D01*
G01*
X168483953Y-35710912D02*
G75*
G02*
X168484000Y-37289000I-1483953J-789088D01*
G01*
X167789088Y-37983953D02*
G75*
G02*
X166211000Y-37984000I-789088J1483953D01*
G01*
X165516047Y-37289088D02*
G75*
G02*
X165516000Y-35711000I1483953J789088D01*
G01*
X166211288Y-35016648D02*
G75*
G02*
X167000000Y-34820000I788712J-1483352D01*
G01*
G04 #@! TO.C,J4*
X119800000Y-32700000D02*
X119200000Y-32700000D01*
X119800000Y-33540000D02*
X119800000Y-32700000D01*
X73180000Y-35524000D02*
X73274000Y-35431000D01*
X70930000Y-37775000D02*
X70989000Y-37716000D01*
X73010000Y-35284000D02*
X73069000Y-35226000D01*
X70725000Y-37569000D02*
X70819000Y-37476000D01*
X78180000Y-35524000D02*
X78274000Y-35431000D01*
X75930000Y-37775000D02*
X75989000Y-37716000D01*
X78010000Y-35284000D02*
X78069000Y-35226000D01*
X75725000Y-37569000D02*
X75819000Y-37476000D01*
X83180000Y-35524000D02*
X83274000Y-35431000D01*
X80930000Y-37775000D02*
X80989000Y-37716000D01*
X83010000Y-35284000D02*
X83069000Y-35226000D01*
X80725000Y-37569000D02*
X80819000Y-37476000D01*
X88180000Y-35524000D02*
X88274000Y-35431000D01*
X85930000Y-37775000D02*
X85989000Y-37716000D01*
X88010000Y-35284000D02*
X88069000Y-35226000D01*
X85725000Y-37569000D02*
X85819000Y-37476000D01*
X93180000Y-35524000D02*
X93274000Y-35431000D01*
X90930000Y-37775000D02*
X90989000Y-37716000D01*
X93010000Y-35284000D02*
X93069000Y-35226000D01*
X90725000Y-37569000D02*
X90819000Y-37476000D01*
X98180000Y-35524000D02*
X98274000Y-35431000D01*
X95930000Y-37775000D02*
X95989000Y-37716000D01*
X98010000Y-35284000D02*
X98069000Y-35226000D01*
X95725000Y-37569000D02*
X95819000Y-37476000D01*
X103180000Y-35524000D02*
X103274000Y-35431000D01*
X100930000Y-37775000D02*
X100989000Y-37716000D01*
X103010000Y-35284000D02*
X103069000Y-35226000D01*
X100725000Y-37569000D02*
X100819000Y-37476000D01*
X108180000Y-35524000D02*
X108274000Y-35431000D01*
X105930000Y-37775000D02*
X105989000Y-37716000D01*
X108010000Y-35284000D02*
X108069000Y-35226000D01*
X105725000Y-37569000D02*
X105819000Y-37476000D01*
X113180000Y-35524000D02*
X113274000Y-35431000D01*
X110930000Y-37775000D02*
X110989000Y-37716000D01*
X113010000Y-35284000D02*
X113069000Y-35226000D01*
X110725000Y-37569000D02*
X110819000Y-37476000D01*
X69440000Y-40660000D02*
X69440000Y-32939000D01*
X119560000Y-40660000D02*
X119560000Y-32939000D01*
X119560000Y-32939000D02*
X69440000Y-32939000D01*
X119560000Y-40660000D02*
X69440000Y-40660000D01*
X119560000Y-38900000D02*
X69440000Y-38900000D01*
X119560000Y-34200000D02*
X69440000Y-34200000D01*
X119560000Y-33600000D02*
X69440000Y-33600000D01*
X72550000Y-39500000D02*
G75*
G03*
X72550000Y-39500000I-550000J0D01*
G01*
X73680000Y-36500000D02*
G75*
G03*
X73680000Y-36500000I-1680000J0D01*
G01*
X77550000Y-39500000D02*
G75*
G03*
X77550000Y-39500000I-550000J0D01*
G01*
X78680000Y-36500000D02*
G75*
G03*
X78680000Y-36500000I-1680000J0D01*
G01*
X82550000Y-39500000D02*
G75*
G03*
X82550000Y-39500000I-550000J0D01*
G01*
X83680000Y-36500000D02*
G75*
G03*
X83680000Y-36500000I-1680000J0D01*
G01*
X87550000Y-39500000D02*
G75*
G03*
X87550000Y-39500000I-550000J0D01*
G01*
X88680000Y-36500000D02*
G75*
G03*
X88680000Y-36500000I-1680000J0D01*
G01*
X92550000Y-39500000D02*
G75*
G03*
X92550000Y-39500000I-550000J0D01*
G01*
X93680000Y-36500000D02*
G75*
G03*
X93680000Y-36500000I-1680000J0D01*
G01*
X97550000Y-39500000D02*
G75*
G03*
X97550000Y-39500000I-550000J0D01*
G01*
X98680000Y-36500000D02*
G75*
G03*
X98680000Y-36500000I-1680000J0D01*
G01*
X102550000Y-39500000D02*
G75*
G03*
X102550000Y-39500000I-550000J0D01*
G01*
X103680000Y-36500000D02*
G75*
G03*
X103680000Y-36500000I-1680000J0D01*
G01*
X107550000Y-39500000D02*
G75*
G03*
X107550000Y-39500000I-550000J0D01*
G01*
X108680000Y-36500000D02*
G75*
G03*
X108680000Y-36500000I-1680000J0D01*
G01*
X112550000Y-39500000D02*
G75*
G03*
X112550000Y-39500000I-550000J0D01*
G01*
X113680000Y-36500000D02*
G75*
G03*
X113680000Y-36500000I-1680000J0D01*
G01*
X117550000Y-39500000D02*
G75*
G03*
X117550000Y-39500000I-550000J0D01*
G01*
X116970617Y-34819550D02*
G75*
G02*
X117789000Y-35016000I29383J-1680450D01*
G01*
X118483953Y-35710912D02*
G75*
G02*
X118484000Y-37289000I-1483953J-789088D01*
G01*
X117789088Y-37983953D02*
G75*
G02*
X116211000Y-37984000I-789088J1483953D01*
G01*
X115516047Y-37289088D02*
G75*
G02*
X115516000Y-35711000I1483953J789088D01*
G01*
X116211288Y-35016648D02*
G75*
G02*
X117000000Y-34820000I788712J-1483352D01*
G01*
G04 #@! TO.C,R18*
X173750000Y-44780000D02*
X173750000Y-42520000D01*
X175470000Y-46500000D02*
G75*
G03*
X175470000Y-46500000I-1720000J0D01*
G01*
G04 #@! TO.C,R17*
X163470000Y-46500000D02*
X165730000Y-46500000D01*
X163470000Y-46500000D02*
G75*
G03*
X163470000Y-46500000I-1720000J0D01*
G01*
G04 #@! TO.C,R16*
X150470000Y-46500000D02*
X152730000Y-46500000D01*
X150470000Y-46500000D02*
G75*
G03*
X150470000Y-46500000I-1720000J0D01*
G01*
G04 #@! TO.C,R15*
X137470000Y-46500000D02*
X139730000Y-46500000D01*
X137470000Y-46500000D02*
G75*
G03*
X137470000Y-46500000I-1720000J0D01*
G01*
G04 #@! TO.C,R14*
X124470000Y-46500000D02*
X126730000Y-46500000D01*
X124470000Y-46500000D02*
G75*
G03*
X124470000Y-46500000I-1720000J0D01*
G01*
G04 #@! TO.C,R13*
X111470000Y-46500000D02*
X113730000Y-46500000D01*
X111470000Y-46500000D02*
G75*
G03*
X111470000Y-46500000I-1720000J0D01*
G01*
G04 #@! TO.C,R12*
X98470000Y-46500000D02*
X100730000Y-46500000D01*
X98470000Y-46500000D02*
G75*
G03*
X98470000Y-46500000I-1720000J0D01*
G01*
G04 #@! TO.C,R11*
X85470000Y-46500000D02*
X87730000Y-46500000D01*
X85470000Y-46500000D02*
G75*
G03*
X85470000Y-46500000I-1720000J0D01*
G01*
G04 #@! TO.C,R10*
X72470000Y-46500000D02*
X74730000Y-46500000D01*
X72470000Y-46500000D02*
G75*
G03*
X72470000Y-46500000I-1720000J0D01*
G01*
G04 #@! TO.C,R9*
X59470000Y-46500000D02*
X61730000Y-46500000D01*
X59470000Y-46500000D02*
G75*
G03*
X59470000Y-46500000I-1720000J0D01*
G01*
G04 #@! TO.C,R2*
X73660000Y-85000000D02*
X72970000Y-85000000D01*
X63040000Y-85000000D02*
X63730000Y-85000000D01*
X72970000Y-83280000D02*
X63730000Y-83280000D01*
X72970000Y-86720000D02*
X72970000Y-83280000D01*
X63730000Y-86720000D02*
X72970000Y-86720000D01*
X63730000Y-83280000D02*
X63730000Y-86720000D01*
G04 #@! TO.C,J1*
X114380000Y-109580000D02*
X114380000Y-108250000D01*
X115710000Y-109580000D02*
X114380000Y-109580000D01*
X116980000Y-109580000D02*
X116980000Y-106920000D01*
X116980000Y-106920000D02*
X122120000Y-106920000D01*
X116980000Y-109580000D02*
X122120000Y-109580000D01*
X122120000Y-109580000D02*
X122120000Y-106920000D01*
G04 #@! TO.C,C4*
X116490000Y-85850000D02*
X117490000Y-85850000D01*
X116990000Y-86350000D02*
X116990000Y-85350000D01*
X122795563Y-85110000D02*
X123860000Y-84045563D01*
X116204437Y-85110000D02*
X115140000Y-84045563D01*
X116204437Y-85110000D02*
X117990000Y-85110000D01*
X122795563Y-85110000D02*
X121010000Y-85110000D01*
X123860000Y-84045563D02*
X123860000Y-76390000D01*
X115140000Y-84045563D02*
X115140000Y-76390000D01*
X115140000Y-76390000D02*
X117990000Y-76390000D01*
X123860000Y-76390000D02*
X121010000Y-76390000D01*
G04 #@! TO.C,SW1*
X110370000Y-104930000D02*
X110370000Y-104630000D01*
X109480000Y-104630000D02*
X109480000Y-104980000D01*
X109480000Y-104630000D02*
X110370000Y-104630000D01*
X108990000Y-107180000D02*
X104010000Y-107180000D01*
X110370000Y-111420000D02*
X110370000Y-107570000D01*
X102630000Y-111420000D02*
X110370000Y-111420000D01*
X102630000Y-107570000D02*
X102630000Y-111420000D01*
X102630000Y-104930000D02*
X102630000Y-104630000D01*
X102630000Y-104630000D02*
X103520000Y-104630000D01*
X103520000Y-104630000D02*
X103520000Y-104980000D01*
D12*
G04 #@! TO.C,FL1*
X61000000Y-82750000D02*
X76000000Y-82750000D01*
X76000000Y-70750000D02*
X61000000Y-70750000D01*
X61000000Y-82750000D02*
X61000000Y-77750000D01*
X61000000Y-77750000D02*
X60000000Y-77750000D01*
X61000000Y-75750000D02*
X60000000Y-75750000D01*
X61000000Y-75750000D02*
X61000000Y-70750000D01*
X77000000Y-77750000D02*
X76000000Y-77750000D01*
X77000000Y-75750000D02*
X76000000Y-75750000D01*
X76000000Y-75750000D02*
X76000000Y-70750000D01*
X76000000Y-82750000D02*
X76000000Y-77750000D01*
X77000000Y-75750000D02*
X77000000Y-77750000D01*
X60000000Y-75750000D02*
X60000000Y-77750000D01*
D15*
X63000000Y-80750000D02*
X63000000Y-79250000D01*
X63000000Y-74250000D02*
X63000000Y-72750000D01*
X74000000Y-80750000D02*
X74000000Y-79250000D01*
X74000000Y-74250000D02*
X74000000Y-72750000D01*
X74000000Y-75250000D02*
G75*
G02*
X74000000Y-74250000I0J500000D01*
G01*
X74000000Y-77250000D02*
G75*
G02*
X74000000Y-76250000I0J500000D01*
G01*
X74000000Y-76250000D02*
G75*
G02*
X74000000Y-75250000I0J500000D01*
G01*
X74000000Y-78250000D02*
G75*
G02*
X74000000Y-77250000I0J500000D01*
G01*
X74000000Y-79250000D02*
G75*
G02*
X74000000Y-78250000I0J500000D01*
G01*
X63000000Y-75250000D02*
G75*
G02*
X63000000Y-74250000I0J500000D01*
G01*
X63000000Y-76250000D02*
G75*
G02*
X63000000Y-75250000I0J500000D01*
G01*
X63000000Y-77250000D02*
G75*
G02*
X63000000Y-76250000I0J500000D01*
G01*
X63000000Y-78250000D02*
G75*
G02*
X63000000Y-77250000I0J500000D01*
G01*
X63000000Y-79250000D02*
G75*
G02*
X63000000Y-78250000I0J500000D01*
G01*
G04 #@! TO.C,U11*
X173100000Y-63350000D02*
X173100000Y-57800000D01*
X173950000Y-64200000D02*
X173100000Y-63350000D01*
X182800000Y-64200000D02*
X173950000Y-64200000D01*
X182800000Y-57800000D02*
X182800000Y-64200000D01*
X173100000Y-57800000D02*
X182800000Y-57800000D01*
G04 #@! TO.C,U10*
X160100000Y-63350000D02*
X160100000Y-57800000D01*
X160950000Y-64200000D02*
X160100000Y-63350000D01*
X169800000Y-64200000D02*
X160950000Y-64200000D01*
X169800000Y-57800000D02*
X169800000Y-64200000D01*
X160100000Y-57800000D02*
X169800000Y-57800000D01*
G04 #@! TO.C,U9*
X147100000Y-63350000D02*
X147100000Y-57800000D01*
X147950000Y-64200000D02*
X147100000Y-63350000D01*
X156800000Y-64200000D02*
X147950000Y-64200000D01*
X156800000Y-57800000D02*
X156800000Y-64200000D01*
X147100000Y-57800000D02*
X156800000Y-57800000D01*
G04 #@! TO.C,U8*
X134100000Y-63350000D02*
X134100000Y-57800000D01*
X134950000Y-64200000D02*
X134100000Y-63350000D01*
X143800000Y-64200000D02*
X134950000Y-64200000D01*
X143800000Y-57800000D02*
X143800000Y-64200000D01*
X134100000Y-57800000D02*
X143800000Y-57800000D01*
G04 #@! TO.C,U7*
X121100000Y-63350000D02*
X121100000Y-57800000D01*
X121950000Y-64200000D02*
X121100000Y-63350000D01*
X130800000Y-64200000D02*
X121950000Y-64200000D01*
X130800000Y-57800000D02*
X130800000Y-64200000D01*
X121100000Y-57800000D02*
X130800000Y-57800000D01*
G04 #@! TO.C,U6*
X108100000Y-63350000D02*
X108100000Y-57800000D01*
X108950000Y-64200000D02*
X108100000Y-63350000D01*
X117800000Y-64200000D02*
X108950000Y-64200000D01*
X117800000Y-57800000D02*
X117800000Y-64200000D01*
X108100000Y-57800000D02*
X117800000Y-57800000D01*
G04 #@! TO.C,U5*
X95100000Y-63350000D02*
X95100000Y-57800000D01*
X95950000Y-64200000D02*
X95100000Y-63350000D01*
X104800000Y-64200000D02*
X95950000Y-64200000D01*
X104800000Y-57800000D02*
X104800000Y-64200000D01*
X95100000Y-57800000D02*
X104800000Y-57800000D01*
G04 #@! TO.C,U4*
X82100000Y-63350000D02*
X82100000Y-57800000D01*
X82950000Y-64200000D02*
X82100000Y-63350000D01*
X91800000Y-64200000D02*
X82950000Y-64200000D01*
X91800000Y-57800000D02*
X91800000Y-64200000D01*
X82100000Y-57800000D02*
X91800000Y-57800000D01*
G04 #@! TO.C,U3*
X69100000Y-63350000D02*
X69100000Y-57800000D01*
X69950000Y-64200000D02*
X69100000Y-63350000D01*
X78800000Y-64200000D02*
X69950000Y-64200000D01*
X78800000Y-57800000D02*
X78800000Y-64200000D01*
X69100000Y-57800000D02*
X78800000Y-57800000D01*
G04 #@! TO.C,U2*
X56100000Y-63350000D02*
X56100000Y-57800000D01*
X56950000Y-64200000D02*
X56100000Y-63350000D01*
X65800000Y-64200000D02*
X56950000Y-64200000D01*
X65800000Y-57800000D02*
X65800000Y-64200000D01*
X56100000Y-57800000D02*
X65800000Y-57800000D01*
G04 #@! TO.C,PS1*
X77460000Y-77250000D02*
X77460000Y-79260000D01*
X112050000Y-70650000D02*
X77850000Y-70650000D01*
X112050000Y-90850000D02*
X112050000Y-70650000D01*
X77850000Y-90850000D02*
X112050000Y-90850000D01*
X77850000Y-70650000D02*
X77850000Y-90850000D01*
G04 #@! TO.C,RN1*
X152180000Y-71500000D02*
X152180000Y-72500000D01*
X148820000Y-71500000D02*
X148820000Y-72500000D01*
G04 #@! TO.C,C11*
X81980000Y-49380000D02*
X92520000Y-49380000D01*
X81980000Y-54620000D02*
X92520000Y-54620000D01*
X81980000Y-49380000D02*
X81980000Y-54620000D01*
X92520000Y-49380000D02*
X92520000Y-54620000D01*
G04 #@! TO.C,RN3*
X174680000Y-71500000D02*
X174680000Y-72500000D01*
X171320000Y-71500000D02*
X171320000Y-72500000D01*
G04 #@! TO.C,RN2*
X163680000Y-71500000D02*
X163680000Y-72500000D01*
X160320000Y-71500000D02*
X160320000Y-72500000D01*
G04 #@! TO.C,C18*
X172980000Y-49380000D02*
X183520000Y-49380000D01*
X172980000Y-54620000D02*
X183520000Y-54620000D01*
X172980000Y-49380000D02*
X172980000Y-54620000D01*
X183520000Y-49380000D02*
X183520000Y-54620000D01*
G04 #@! TO.C,C17*
X159980000Y-49380000D02*
X170520000Y-49380000D01*
X159980000Y-54620000D02*
X170520000Y-54620000D01*
X159980000Y-49380000D02*
X159980000Y-54620000D01*
X170520000Y-49380000D02*
X170520000Y-54620000D01*
G04 #@! TO.C,C16*
X146980000Y-49380000D02*
X157520000Y-49380000D01*
X146980000Y-54620000D02*
X157520000Y-54620000D01*
X146980000Y-49380000D02*
X146980000Y-54620000D01*
X157520000Y-49380000D02*
X157520000Y-54620000D01*
G04 #@! TO.C,C15*
X133980000Y-49380000D02*
X144520000Y-49380000D01*
X133980000Y-54620000D02*
X144520000Y-54620000D01*
X133980000Y-49380000D02*
X133980000Y-54620000D01*
X144520000Y-49380000D02*
X144520000Y-54620000D01*
G04 #@! TO.C,C14*
X120980000Y-49380000D02*
X131520000Y-49380000D01*
X120980000Y-54620000D02*
X131520000Y-54620000D01*
X120980000Y-49380000D02*
X120980000Y-54620000D01*
X131520000Y-49380000D02*
X131520000Y-54620000D01*
G04 #@! TO.C,C13*
X107980000Y-49380000D02*
X118520000Y-49380000D01*
X107980000Y-54620000D02*
X118520000Y-54620000D01*
X107980000Y-49380000D02*
X107980000Y-54620000D01*
X118520000Y-49380000D02*
X118520000Y-54620000D01*
G04 #@! TO.C,C12*
X94980000Y-49380000D02*
X105520000Y-49380000D01*
X94980000Y-54620000D02*
X105520000Y-54620000D01*
X94980000Y-49380000D02*
X94980000Y-54620000D01*
X105520000Y-49380000D02*
X105520000Y-54620000D01*
G04 #@! TO.C,C10*
X68980000Y-49380000D02*
X79520000Y-49380000D01*
X68980000Y-54620000D02*
X79520000Y-54620000D01*
X68980000Y-49380000D02*
X68980000Y-54620000D01*
X79520000Y-49380000D02*
X79520000Y-54620000D01*
G04 #@! TO.C,C9*
X55980000Y-49380000D02*
X66520000Y-49380000D01*
X55980000Y-54620000D02*
X66520000Y-54620000D01*
X55980000Y-49380000D02*
X55980000Y-54620000D01*
X66520000Y-49380000D02*
X66520000Y-54620000D01*
G04 #@! TO.C,C2*
X61630000Y-92370000D02*
X61630000Y-87130000D01*
X74870000Y-92370000D02*
X74870000Y-87130000D01*
X74870000Y-87130000D02*
X61630000Y-87130000D01*
X74870000Y-92370000D02*
X61630000Y-92370000D01*
G04 #@! TO.C,J2*
X124920000Y-109580000D02*
X124920000Y-108250000D01*
X126250000Y-109580000D02*
X124920000Y-109580000D01*
X127520000Y-109580000D02*
X127520000Y-106920000D01*
X127520000Y-106920000D02*
X135200000Y-106920000D01*
X127520000Y-109580000D02*
X135200000Y-109580000D01*
X135200000Y-109580000D02*
X135200000Y-106920000D01*
G04 #@! TO.C,F2*
X49450000Y-71000000D02*
X52250000Y-71000000D01*
X49450000Y-71000000D02*
X49450000Y-93600000D01*
X59050000Y-71000000D02*
X59050000Y-93600000D01*
X56250000Y-71000000D02*
X59050000Y-71000000D01*
X56250000Y-93600000D02*
X59050000Y-93600000D01*
X49450000Y-93600000D02*
X52250000Y-93600000D01*
G04 #@! TO.C,F1*
X48300000Y-91250000D02*
X45500000Y-91250000D01*
X48300000Y-91250000D02*
X48300000Y-68650000D01*
X38700000Y-91250000D02*
X38700000Y-68650000D01*
X41500000Y-91250000D02*
X38700000Y-91250000D01*
X41500000Y-68650000D02*
X38700000Y-68650000D01*
X48300000Y-68650000D02*
X45500000Y-68650000D01*
G04 #@! TO.C,J3*
X146610000Y-107540000D02*
X146610000Y-106390000D01*
X146610000Y-106390000D02*
X145560000Y-106390000D01*
X145560000Y-106390000D02*
X145560000Y-105400000D01*
X138390000Y-107540000D02*
X138390000Y-106390000D01*
X138390000Y-106390000D02*
X139440000Y-106390000D01*
X145440000Y-109510000D02*
X139560000Y-109510000D01*
G04 #@! TO.C,U1*
X175370000Y-104195000D02*
X175750000Y-104195000D01*
X175370000Y-110615000D02*
X175370000Y-104195000D01*
X157130000Y-110615000D02*
X157130000Y-104195000D01*
X175370000Y-110615000D02*
X157130000Y-110615000D01*
X157130000Y-84870000D02*
X158130000Y-84870000D01*
X157130000Y-85650000D02*
X157130000Y-84870000D01*
X175370000Y-84870000D02*
X174370000Y-84870000D01*
X175370000Y-85650000D02*
X175370000Y-84870000D01*
D16*
G04 #@! TO.C,RV1*
X74000000Y-98800000D02*
X74000000Y-93000000D01*
X62000000Y-98800000D02*
X62000000Y-93000000D01*
X74000000Y-98800000D02*
X62000000Y-98800000D01*
X74000000Y-93000000D02*
X62000000Y-93000000D01*
D15*
G04 #@! TO.C,RN6*
X176820000Y-71500000D02*
X176820000Y-72500000D01*
X180180000Y-71500000D02*
X180180000Y-72500000D01*
G04 #@! TO.C,RN5*
X165820000Y-71500000D02*
X165820000Y-72500000D01*
X169180000Y-71500000D02*
X169180000Y-72500000D01*
G04 #@! TO.C,RN4*
X154320000Y-71500000D02*
X154320000Y-72500000D01*
X157680000Y-71500000D02*
X157680000Y-72500000D01*
G04 #@! TO.C,R8*
X100772500Y-106237258D02*
X100772500Y-105762742D01*
X99727500Y-106237258D02*
X99727500Y-105762742D01*
G04 #@! TO.C,R7*
X119272500Y-101987258D02*
X119272500Y-101512742D01*
X118227500Y-101987258D02*
X118227500Y-101512742D01*
G04 #@! TO.C,R6*
X97772500Y-106237258D02*
X97772500Y-105762742D01*
X96727500Y-106237258D02*
X96727500Y-105762742D01*
G04 #@! TO.C,R5*
X107772500Y-101987258D02*
X107772500Y-101512742D01*
X106727500Y-101987258D02*
X106727500Y-101512742D01*
G04 #@! TO.C,R4*
X128727500Y-101512742D02*
X128727500Y-101987258D01*
X129772500Y-101512742D02*
X129772500Y-101987258D01*
G04 #@! TO.C,R3*
X130227500Y-101512742D02*
X130227500Y-101987258D01*
X131272500Y-101512742D02*
X131272500Y-101987258D01*
G04 #@! TO.C,R1*
X150727500Y-102012742D02*
X150727500Y-102487258D01*
X151772500Y-102012742D02*
X151772500Y-102487258D01*
G04 #@! TO.C,D12*
X174265000Y-75515000D02*
X174265000Y-77800000D01*
X175735000Y-75515000D02*
X174265000Y-75515000D01*
X175735000Y-77800000D02*
X175735000Y-75515000D01*
G04 #@! TO.C,D11*
X170765000Y-75515000D02*
X170765000Y-77800000D01*
X172235000Y-75515000D02*
X170765000Y-75515000D01*
X172235000Y-77800000D02*
X172235000Y-75515000D01*
G04 #@! TO.C,D10*
X167265000Y-75515000D02*
X167265000Y-77800000D01*
X168735000Y-75515000D02*
X167265000Y-75515000D01*
X168735000Y-77800000D02*
X168735000Y-75515000D01*
G04 #@! TO.C,D9*
X163765000Y-75515000D02*
X163765000Y-77800000D01*
X165235000Y-75515000D02*
X163765000Y-75515000D01*
X165235000Y-77800000D02*
X165235000Y-75515000D01*
G04 #@! TO.C,D8*
X160265000Y-75515000D02*
X160265000Y-77800000D01*
X161735000Y-75515000D02*
X160265000Y-75515000D01*
X161735000Y-77800000D02*
X161735000Y-75515000D01*
G04 #@! TO.C,D7*
X156765000Y-75515000D02*
X156765000Y-77800000D01*
X158235000Y-75515000D02*
X156765000Y-75515000D01*
X158235000Y-77800000D02*
X158235000Y-75515000D01*
G04 #@! TO.C,D6*
X153265000Y-75515000D02*
X153265000Y-77800000D01*
X154735000Y-75515000D02*
X153265000Y-75515000D01*
X154735000Y-77800000D02*
X154735000Y-75515000D01*
G04 #@! TO.C,D5*
X149765000Y-75515000D02*
X149765000Y-77800000D01*
X151235000Y-75515000D02*
X149765000Y-75515000D01*
X151235000Y-77800000D02*
X151235000Y-75515000D01*
G04 #@! TO.C,D4*
X146265000Y-75515000D02*
X146265000Y-77800000D01*
X147735000Y-75515000D02*
X146265000Y-75515000D01*
X147735000Y-77800000D02*
X147735000Y-75515000D01*
G04 #@! TO.C,D3*
X142765000Y-75515000D02*
X142765000Y-77800000D01*
X144235000Y-75515000D02*
X142765000Y-75515000D01*
X144235000Y-77800000D02*
X144235000Y-75515000D01*
G04 #@! TO.C,D2*
X100985000Y-110735000D02*
X100985000Y-108450000D01*
X99515000Y-110735000D02*
X100985000Y-110735000D01*
X99515000Y-108450000D02*
X99515000Y-110735000D01*
G04 #@! TO.C,D1*
X97985000Y-110735000D02*
X97985000Y-108450000D01*
X96515000Y-110735000D02*
X97985000Y-110735000D01*
X96515000Y-108450000D02*
X96515000Y-110735000D01*
G04 #@! TO.C,C8*
X116740000Y-101609420D02*
X116740000Y-101890580D01*
X117760000Y-101609420D02*
X117760000Y-101890580D01*
G04 #@! TO.C,C7*
X105240000Y-101609420D02*
X105240000Y-101890580D01*
X106260000Y-101609420D02*
X106260000Y-101890580D01*
G04 #@! TO.C,C6*
X176490000Y-102359420D02*
X176490000Y-102640580D01*
X177510000Y-102359420D02*
X177510000Y-102640580D01*
G04 #@! TO.C,C5*
X178090000Y-101788748D02*
X178090000Y-103211252D01*
X179910000Y-101788748D02*
X179910000Y-103211252D01*
G04 #@! TO.C,C3*
X114010000Y-80640580D02*
X114010000Y-80359420D01*
X112990000Y-80640580D02*
X112990000Y-80359420D01*
G04 #@! TO.C,C1*
X152240000Y-102109420D02*
X152240000Y-102390580D01*
X153260000Y-102109420D02*
X153260000Y-102390580D01*
G04 #@! TO.C,TP5*
D16*
X113238095Y-87304380D02*
X113809523Y-87304380D01*
X113523809Y-88304380D02*
X113523809Y-87304380D01*
X114142857Y-88304380D02*
X114142857Y-87304380D01*
X114523809Y-87304380D01*
X114619047Y-87352000D01*
X114666666Y-87399619D01*
X114714285Y-87494857D01*
X114714285Y-87637714D01*
X114666666Y-87732952D01*
X114619047Y-87780571D01*
X114523809Y-87828190D01*
X114142857Y-87828190D01*
X115619047Y-87304380D02*
X115142857Y-87304380D01*
X115095238Y-87780571D01*
X115142857Y-87732952D01*
X115238095Y-87685333D01*
X115476190Y-87685333D01*
X115571428Y-87732952D01*
X115619047Y-87780571D01*
X115666666Y-87875809D01*
X115666666Y-88113904D01*
X115619047Y-88209142D01*
X115571428Y-88256761D01*
X115476190Y-88304380D01*
X115238095Y-88304380D01*
X115142857Y-88256761D01*
X115095238Y-88209142D01*
G04 #@! TO.C,TP4*
X136952380Y-89511904D02*
X136952380Y-88940476D01*
X137952380Y-89226190D02*
X136952380Y-89226190D01*
X137952380Y-88607142D02*
X136952380Y-88607142D01*
X136952380Y-88226190D01*
X137000000Y-88130952D01*
X137047619Y-88083333D01*
X137142857Y-88035714D01*
X137285714Y-88035714D01*
X137380952Y-88083333D01*
X137428571Y-88130952D01*
X137476190Y-88226190D01*
X137476190Y-88607142D01*
X137285714Y-87178571D02*
X137952380Y-87178571D01*
X136904761Y-87416666D02*
X137619047Y-87654761D01*
X137619047Y-87035714D01*
G04 #@! TO.C,TP3*
X139452380Y-89511904D02*
X139452380Y-88940476D01*
X140452380Y-89226190D02*
X139452380Y-89226190D01*
X140452380Y-88607142D02*
X139452380Y-88607142D01*
X139452380Y-88226190D01*
X139500000Y-88130952D01*
X139547619Y-88083333D01*
X139642857Y-88035714D01*
X139785714Y-88035714D01*
X139880952Y-88083333D01*
X139928571Y-88130952D01*
X139976190Y-88226190D01*
X139976190Y-88607142D01*
X139452380Y-87702380D02*
X139452380Y-87083333D01*
X139833333Y-87416666D01*
X139833333Y-87273809D01*
X139880952Y-87178571D01*
X139928571Y-87130952D01*
X140023809Y-87083333D01*
X140261904Y-87083333D01*
X140357142Y-87130952D01*
X140404761Y-87178571D01*
X140452380Y-87273809D01*
X140452380Y-87559523D01*
X140404761Y-87654761D01*
X140357142Y-87702380D01*
G04 #@! TO.C,TP2*
X134452380Y-89511904D02*
X134452380Y-88940476D01*
X135452380Y-89226190D02*
X134452380Y-89226190D01*
X135452380Y-88607142D02*
X134452380Y-88607142D01*
X134452380Y-88226190D01*
X134500000Y-88130952D01*
X134547619Y-88083333D01*
X134642857Y-88035714D01*
X134785714Y-88035714D01*
X134880952Y-88083333D01*
X134928571Y-88130952D01*
X134976190Y-88226190D01*
X134976190Y-88607142D01*
X134547619Y-87654761D02*
X134500000Y-87607142D01*
X134452380Y-87511904D01*
X134452380Y-87273809D01*
X134500000Y-87178571D01*
X134547619Y-87130952D01*
X134642857Y-87083333D01*
X134738095Y-87083333D01*
X134880952Y-87130952D01*
X135452380Y-87702380D01*
X135452380Y-87083333D01*
G04 #@! TO.C,TP1*
X131952380Y-89511904D02*
X131952380Y-88940476D01*
X132952380Y-89226190D02*
X131952380Y-89226190D01*
X132952380Y-88607142D02*
X131952380Y-88607142D01*
X131952380Y-88226190D01*
X132000000Y-88130952D01*
X132047619Y-88083333D01*
X132142857Y-88035714D01*
X132285714Y-88035714D01*
X132380952Y-88083333D01*
X132428571Y-88130952D01*
X132476190Y-88226190D01*
X132476190Y-88607142D01*
X132952380Y-87083333D02*
X132952380Y-87654761D01*
X132952380Y-87369047D02*
X131952380Y-87369047D01*
X132095238Y-87464285D01*
X132190476Y-87559523D01*
X132238095Y-87654761D01*
G04 #@! TO.C,J6*
X53166666Y-41202380D02*
X53166666Y-41916666D01*
X53119047Y-42059523D01*
X53023809Y-42154761D01*
X52880952Y-42202380D01*
X52785714Y-42202380D01*
X54071428Y-41202380D02*
X53880952Y-41202380D01*
X53785714Y-41250000D01*
X53738095Y-41297619D01*
X53642857Y-41440476D01*
X53595238Y-41630952D01*
X53595238Y-42011904D01*
X53642857Y-42107142D01*
X53690476Y-42154761D01*
X53785714Y-42202380D01*
X53976190Y-42202380D01*
X54071428Y-42154761D01*
X54119047Y-42107142D01*
X54166666Y-42011904D01*
X54166666Y-41773809D01*
X54119047Y-41678571D01*
X54071428Y-41630952D01*
X53976190Y-41583333D01*
X53785714Y-41583333D01*
X53690476Y-41630952D01*
X53642857Y-41678571D01*
X53595238Y-41773809D01*
G04 #@! TO.C,J5*
X170666666Y-32702380D02*
X170666666Y-33416666D01*
X170619047Y-33559523D01*
X170523809Y-33654761D01*
X170380952Y-33702380D01*
X170285714Y-33702380D01*
X171619047Y-32702380D02*
X171142857Y-32702380D01*
X171095238Y-33178571D01*
X171142857Y-33130952D01*
X171238095Y-33083333D01*
X171476190Y-33083333D01*
X171571428Y-33130952D01*
X171619047Y-33178571D01*
X171666666Y-33273809D01*
X171666666Y-33511904D01*
X171619047Y-33607142D01*
X171571428Y-33654761D01*
X171476190Y-33702380D01*
X171238095Y-33702380D01*
X171142857Y-33654761D01*
X171095238Y-33607142D01*
G04 #@! TO.C,J4*
X67666666Y-32702380D02*
X67666666Y-33416666D01*
X67619047Y-33559523D01*
X67523809Y-33654761D01*
X67380952Y-33702380D01*
X67285714Y-33702380D01*
X68571428Y-33035714D02*
X68571428Y-33702380D01*
X68333333Y-32654761D02*
X68095238Y-33369047D01*
X68714285Y-33369047D01*
G04 #@! TO.C,R18*
X172857142Y-39952380D02*
X172523809Y-39476190D01*
X172285714Y-39952380D02*
X172285714Y-38952380D01*
X172666666Y-38952380D01*
X172761904Y-39000000D01*
X172809523Y-39047619D01*
X172857142Y-39142857D01*
X172857142Y-39285714D01*
X172809523Y-39380952D01*
X172761904Y-39428571D01*
X172666666Y-39476190D01*
X172285714Y-39476190D01*
X173809523Y-39952380D02*
X173238095Y-39952380D01*
X173523809Y-39952380D02*
X173523809Y-38952380D01*
X173428571Y-39095238D01*
X173333333Y-39190476D01*
X173238095Y-39238095D01*
X174380952Y-39380952D02*
X174285714Y-39333333D01*
X174238095Y-39285714D01*
X174190476Y-39190476D01*
X174190476Y-39142857D01*
X174238095Y-39047619D01*
X174285714Y-39000000D01*
X174380952Y-38952380D01*
X174571428Y-38952380D01*
X174666666Y-39000000D01*
X174714285Y-39047619D01*
X174761904Y-39142857D01*
X174761904Y-39190476D01*
X174714285Y-39285714D01*
X174666666Y-39333333D01*
X174571428Y-39380952D01*
X174380952Y-39380952D01*
X174285714Y-39428571D01*
X174238095Y-39476190D01*
X174190476Y-39571428D01*
X174190476Y-39761904D01*
X174238095Y-39857142D01*
X174285714Y-39904761D01*
X174380952Y-39952380D01*
X174571428Y-39952380D01*
X174666666Y-39904761D01*
X174714285Y-39857142D01*
X174761904Y-39761904D01*
X174761904Y-39571428D01*
X174714285Y-39476190D01*
X174666666Y-39428571D01*
X174571428Y-39380952D01*
G04 #@! TO.C,R17*
X159452380Y-47142857D02*
X158976190Y-47476190D01*
X159452380Y-47714285D02*
X158452380Y-47714285D01*
X158452380Y-47333333D01*
X158500000Y-47238095D01*
X158547619Y-47190476D01*
X158642857Y-47142857D01*
X158785714Y-47142857D01*
X158880952Y-47190476D01*
X158928571Y-47238095D01*
X158976190Y-47333333D01*
X158976190Y-47714285D01*
X159452380Y-46190476D02*
X159452380Y-46761904D01*
X159452380Y-46476190D02*
X158452380Y-46476190D01*
X158595238Y-46571428D01*
X158690476Y-46666666D01*
X158738095Y-46761904D01*
X158452380Y-45857142D02*
X158452380Y-45190476D01*
X159452380Y-45619047D01*
G04 #@! TO.C,R16*
X146452380Y-47142857D02*
X145976190Y-47476190D01*
X146452380Y-47714285D02*
X145452380Y-47714285D01*
X145452380Y-47333333D01*
X145500000Y-47238095D01*
X145547619Y-47190476D01*
X145642857Y-47142857D01*
X145785714Y-47142857D01*
X145880952Y-47190476D01*
X145928571Y-47238095D01*
X145976190Y-47333333D01*
X145976190Y-47714285D01*
X146452380Y-46190476D02*
X146452380Y-46761904D01*
X146452380Y-46476190D02*
X145452380Y-46476190D01*
X145595238Y-46571428D01*
X145690476Y-46666666D01*
X145738095Y-46761904D01*
X145452380Y-45333333D02*
X145452380Y-45523809D01*
X145500000Y-45619047D01*
X145547619Y-45666666D01*
X145690476Y-45761904D01*
X145880952Y-45809523D01*
X146261904Y-45809523D01*
X146357142Y-45761904D01*
X146404761Y-45714285D01*
X146452380Y-45619047D01*
X146452380Y-45428571D01*
X146404761Y-45333333D01*
X146357142Y-45285714D01*
X146261904Y-45238095D01*
X146023809Y-45238095D01*
X145928571Y-45285714D01*
X145880952Y-45333333D01*
X145833333Y-45428571D01*
X145833333Y-45619047D01*
X145880952Y-45714285D01*
X145928571Y-45761904D01*
X146023809Y-45809523D01*
G04 #@! TO.C,R15*
X133452380Y-47142857D02*
X132976190Y-47476190D01*
X133452380Y-47714285D02*
X132452380Y-47714285D01*
X132452380Y-47333333D01*
X132500000Y-47238095D01*
X132547619Y-47190476D01*
X132642857Y-47142857D01*
X132785714Y-47142857D01*
X132880952Y-47190476D01*
X132928571Y-47238095D01*
X132976190Y-47333333D01*
X132976190Y-47714285D01*
X133452380Y-46190476D02*
X133452380Y-46761904D01*
X133452380Y-46476190D02*
X132452380Y-46476190D01*
X132595238Y-46571428D01*
X132690476Y-46666666D01*
X132738095Y-46761904D01*
X132452380Y-45285714D02*
X132452380Y-45761904D01*
X132928571Y-45809523D01*
X132880952Y-45761904D01*
X132833333Y-45666666D01*
X132833333Y-45428571D01*
X132880952Y-45333333D01*
X132928571Y-45285714D01*
X133023809Y-45238095D01*
X133261904Y-45238095D01*
X133357142Y-45285714D01*
X133404761Y-45333333D01*
X133452380Y-45428571D01*
X133452380Y-45666666D01*
X133404761Y-45761904D01*
X133357142Y-45809523D01*
G04 #@! TO.C,R14*
X120452380Y-47142857D02*
X119976190Y-47476190D01*
X120452380Y-47714285D02*
X119452380Y-47714285D01*
X119452380Y-47333333D01*
X119500000Y-47238095D01*
X119547619Y-47190476D01*
X119642857Y-47142857D01*
X119785714Y-47142857D01*
X119880952Y-47190476D01*
X119928571Y-47238095D01*
X119976190Y-47333333D01*
X119976190Y-47714285D01*
X120452380Y-46190476D02*
X120452380Y-46761904D01*
X120452380Y-46476190D02*
X119452380Y-46476190D01*
X119595238Y-46571428D01*
X119690476Y-46666666D01*
X119738095Y-46761904D01*
X119785714Y-45333333D02*
X120452380Y-45333333D01*
X119404761Y-45571428D02*
X120119047Y-45809523D01*
X120119047Y-45190476D01*
G04 #@! TO.C,R13*
X107452380Y-47142857D02*
X106976190Y-47476190D01*
X107452380Y-47714285D02*
X106452380Y-47714285D01*
X106452380Y-47333333D01*
X106500000Y-47238095D01*
X106547619Y-47190476D01*
X106642857Y-47142857D01*
X106785714Y-47142857D01*
X106880952Y-47190476D01*
X106928571Y-47238095D01*
X106976190Y-47333333D01*
X106976190Y-47714285D01*
X107452380Y-46190476D02*
X107452380Y-46761904D01*
X107452380Y-46476190D02*
X106452380Y-46476190D01*
X106595238Y-46571428D01*
X106690476Y-46666666D01*
X106738095Y-46761904D01*
X106452380Y-45857142D02*
X106452380Y-45238095D01*
X106833333Y-45571428D01*
X106833333Y-45428571D01*
X106880952Y-45333333D01*
X106928571Y-45285714D01*
X107023809Y-45238095D01*
X107261904Y-45238095D01*
X107357142Y-45285714D01*
X107404761Y-45333333D01*
X107452380Y-45428571D01*
X107452380Y-45714285D01*
X107404761Y-45809523D01*
X107357142Y-45857142D01*
G04 #@! TO.C,R12*
X94452380Y-47142857D02*
X93976190Y-47476190D01*
X94452380Y-47714285D02*
X93452380Y-47714285D01*
X93452380Y-47333333D01*
X93500000Y-47238095D01*
X93547619Y-47190476D01*
X93642857Y-47142857D01*
X93785714Y-47142857D01*
X93880952Y-47190476D01*
X93928571Y-47238095D01*
X93976190Y-47333333D01*
X93976190Y-47714285D01*
X94452380Y-46190476D02*
X94452380Y-46761904D01*
X94452380Y-46476190D02*
X93452380Y-46476190D01*
X93595238Y-46571428D01*
X93690476Y-46666666D01*
X93738095Y-46761904D01*
X93547619Y-45809523D02*
X93500000Y-45761904D01*
X93452380Y-45666666D01*
X93452380Y-45428571D01*
X93500000Y-45333333D01*
X93547619Y-45285714D01*
X93642857Y-45238095D01*
X93738095Y-45238095D01*
X93880952Y-45285714D01*
X94452380Y-45857142D01*
X94452380Y-45238095D01*
G04 #@! TO.C,R11*
X81452380Y-47142857D02*
X80976190Y-47476190D01*
X81452380Y-47714285D02*
X80452380Y-47714285D01*
X80452380Y-47333333D01*
X80500000Y-47238095D01*
X80547619Y-47190476D01*
X80642857Y-47142857D01*
X80785714Y-47142857D01*
X80880952Y-47190476D01*
X80928571Y-47238095D01*
X80976190Y-47333333D01*
X80976190Y-47714285D01*
X81452380Y-46190476D02*
X81452380Y-46761904D01*
X81452380Y-46476190D02*
X80452380Y-46476190D01*
X80595238Y-46571428D01*
X80690476Y-46666666D01*
X80738095Y-46761904D01*
X81452380Y-45238095D02*
X81452380Y-45809523D01*
X81452380Y-45523809D02*
X80452380Y-45523809D01*
X80595238Y-45619047D01*
X80690476Y-45714285D01*
X80738095Y-45809523D01*
G04 #@! TO.C,R10*
X68452380Y-47142857D02*
X67976190Y-47476190D01*
X68452380Y-47714285D02*
X67452380Y-47714285D01*
X67452380Y-47333333D01*
X67500000Y-47238095D01*
X67547619Y-47190476D01*
X67642857Y-47142857D01*
X67785714Y-47142857D01*
X67880952Y-47190476D01*
X67928571Y-47238095D01*
X67976190Y-47333333D01*
X67976190Y-47714285D01*
X68452380Y-46190476D02*
X68452380Y-46761904D01*
X68452380Y-46476190D02*
X67452380Y-46476190D01*
X67595238Y-46571428D01*
X67690476Y-46666666D01*
X67738095Y-46761904D01*
X67452380Y-45571428D02*
X67452380Y-45476190D01*
X67500000Y-45380952D01*
X67547619Y-45333333D01*
X67642857Y-45285714D01*
X67833333Y-45238095D01*
X68071428Y-45238095D01*
X68261904Y-45285714D01*
X68357142Y-45333333D01*
X68404761Y-45380952D01*
X68452380Y-45476190D01*
X68452380Y-45571428D01*
X68404761Y-45666666D01*
X68357142Y-45714285D01*
X68261904Y-45761904D01*
X68071428Y-45809523D01*
X67833333Y-45809523D01*
X67642857Y-45761904D01*
X67547619Y-45714285D01*
X67500000Y-45666666D01*
X67452380Y-45571428D01*
G04 #@! TO.C,R9*
X55452380Y-46666666D02*
X54976190Y-47000000D01*
X55452380Y-47238095D02*
X54452380Y-47238095D01*
X54452380Y-46857142D01*
X54500000Y-46761904D01*
X54547619Y-46714285D01*
X54642857Y-46666666D01*
X54785714Y-46666666D01*
X54880952Y-46714285D01*
X54928571Y-46761904D01*
X54976190Y-46857142D01*
X54976190Y-47238095D01*
X55452380Y-46190476D02*
X55452380Y-46000000D01*
X55404761Y-45904761D01*
X55357142Y-45857142D01*
X55214285Y-45761904D01*
X55023809Y-45714285D01*
X54642857Y-45714285D01*
X54547619Y-45761904D01*
X54500000Y-45809523D01*
X54452380Y-45904761D01*
X54452380Y-46095238D01*
X54500000Y-46190476D01*
X54547619Y-46238095D01*
X54642857Y-46285714D01*
X54880952Y-46285714D01*
X54976190Y-46238095D01*
X55023809Y-46190476D01*
X55071428Y-46095238D01*
X55071428Y-45904761D01*
X55023809Y-45809523D01*
X54976190Y-45761904D01*
X54880952Y-45714285D01*
G04 #@! TO.C,R2*
X60702380Y-85166666D02*
X60226190Y-85500000D01*
X60702380Y-85738095D02*
X59702380Y-85738095D01*
X59702380Y-85357142D01*
X59750000Y-85261904D01*
X59797619Y-85214285D01*
X59892857Y-85166666D01*
X60035714Y-85166666D01*
X60130952Y-85214285D01*
X60178571Y-85261904D01*
X60226190Y-85357142D01*
X60226190Y-85738095D01*
X59797619Y-84785714D02*
X59750000Y-84738095D01*
X59702380Y-84642857D01*
X59702380Y-84404761D01*
X59750000Y-84309523D01*
X59797619Y-84261904D01*
X59892857Y-84214285D01*
X59988095Y-84214285D01*
X60130952Y-84261904D01*
X60702380Y-84833333D01*
X60702380Y-84214285D01*
G04 #@! TO.C,J1*
X112832380Y-108583333D02*
X113546666Y-108583333D01*
X113689523Y-108630952D01*
X113784761Y-108726190D01*
X113832380Y-108869047D01*
X113832380Y-108964285D01*
X113832380Y-107583333D02*
X113832380Y-108154761D01*
X113832380Y-107869047D02*
X112832380Y-107869047D01*
X112975238Y-107964285D01*
X113070476Y-108059523D01*
X113118095Y-108154761D01*
G04 #@! TO.C,C4*
X122333333Y-75607142D02*
X122285714Y-75654761D01*
X122142857Y-75702380D01*
X122047619Y-75702380D01*
X121904761Y-75654761D01*
X121809523Y-75559523D01*
X121761904Y-75464285D01*
X121714285Y-75273809D01*
X121714285Y-75130952D01*
X121761904Y-74940476D01*
X121809523Y-74845238D01*
X121904761Y-74750000D01*
X122047619Y-74702380D01*
X122142857Y-74702380D01*
X122285714Y-74750000D01*
X122333333Y-74797619D01*
X123190476Y-75035714D02*
X123190476Y-75702380D01*
X122952380Y-74654761D02*
X122714285Y-75369047D01*
X123333333Y-75369047D01*
G04 #@! TO.C,SW1*
X105166666Y-106654761D02*
X105309523Y-106702380D01*
X105547619Y-106702380D01*
X105642857Y-106654761D01*
X105690476Y-106607142D01*
X105738095Y-106511904D01*
X105738095Y-106416666D01*
X105690476Y-106321428D01*
X105642857Y-106273809D01*
X105547619Y-106226190D01*
X105357142Y-106178571D01*
X105261904Y-106130952D01*
X105214285Y-106083333D01*
X105166666Y-105988095D01*
X105166666Y-105892857D01*
X105214285Y-105797619D01*
X105261904Y-105750000D01*
X105357142Y-105702380D01*
X105595238Y-105702380D01*
X105738095Y-105750000D01*
X106071428Y-105702380D02*
X106309523Y-106702380D01*
X106500000Y-105988095D01*
X106690476Y-106702380D01*
X106928571Y-105702380D01*
X107833333Y-106702380D02*
X107261904Y-106702380D01*
X107547619Y-106702380D02*
X107547619Y-105702380D01*
X107452380Y-105845238D01*
X107357142Y-105940476D01*
X107261904Y-105988095D01*
G04 #@! TO.C,FL1*
X67761904Y-68928571D02*
X67428571Y-68928571D01*
X67428571Y-69452380D02*
X67428571Y-68452380D01*
X67904761Y-68452380D01*
X68761904Y-69452380D02*
X68285714Y-69452380D01*
X68285714Y-68452380D01*
X69619047Y-69452380D02*
X69047619Y-69452380D01*
X69333333Y-69452380D02*
X69333333Y-68452380D01*
X69238095Y-68595238D01*
X69142857Y-68690476D01*
X69047619Y-68738095D01*
G04 #@! TO.C,U11*
X171652380Y-62038095D02*
X172461904Y-62038095D01*
X172557142Y-61990476D01*
X172604761Y-61942857D01*
X172652380Y-61847619D01*
X172652380Y-61657142D01*
X172604761Y-61561904D01*
X172557142Y-61514285D01*
X172461904Y-61466666D01*
X171652380Y-61466666D01*
X172652380Y-60466666D02*
X172652380Y-61038095D01*
X172652380Y-60752380D02*
X171652380Y-60752380D01*
X171795238Y-60847619D01*
X171890476Y-60942857D01*
X171938095Y-61038095D01*
X172652380Y-59514285D02*
X172652380Y-60085714D01*
X172652380Y-59800000D02*
X171652380Y-59800000D01*
X171795238Y-59895238D01*
X171890476Y-59990476D01*
X171938095Y-60085714D01*
G04 #@! TO.C,U10*
X158652380Y-62038095D02*
X159461904Y-62038095D01*
X159557142Y-61990476D01*
X159604761Y-61942857D01*
X159652380Y-61847619D01*
X159652380Y-61657142D01*
X159604761Y-61561904D01*
X159557142Y-61514285D01*
X159461904Y-61466666D01*
X158652380Y-61466666D01*
X159652380Y-60466666D02*
X159652380Y-61038095D01*
X159652380Y-60752380D02*
X158652380Y-60752380D01*
X158795238Y-60847619D01*
X158890476Y-60942857D01*
X158938095Y-61038095D01*
X158652380Y-59847619D02*
X158652380Y-59752380D01*
X158700000Y-59657142D01*
X158747619Y-59609523D01*
X158842857Y-59561904D01*
X159033333Y-59514285D01*
X159271428Y-59514285D01*
X159461904Y-59561904D01*
X159557142Y-59609523D01*
X159604761Y-59657142D01*
X159652380Y-59752380D01*
X159652380Y-59847619D01*
X159604761Y-59942857D01*
X159557142Y-59990476D01*
X159461904Y-60038095D01*
X159271428Y-60085714D01*
X159033333Y-60085714D01*
X158842857Y-60038095D01*
X158747619Y-59990476D01*
X158700000Y-59942857D01*
X158652380Y-59847619D01*
G04 #@! TO.C,U9*
X145652380Y-61561904D02*
X146461904Y-61561904D01*
X146557142Y-61514285D01*
X146604761Y-61466666D01*
X146652380Y-61371428D01*
X146652380Y-61180952D01*
X146604761Y-61085714D01*
X146557142Y-61038095D01*
X146461904Y-60990476D01*
X145652380Y-60990476D01*
X146652380Y-60466666D02*
X146652380Y-60276190D01*
X146604761Y-60180952D01*
X146557142Y-60133333D01*
X146414285Y-60038095D01*
X146223809Y-59990476D01*
X145842857Y-59990476D01*
X145747619Y-60038095D01*
X145700000Y-60085714D01*
X145652380Y-60180952D01*
X145652380Y-60371428D01*
X145700000Y-60466666D01*
X145747619Y-60514285D01*
X145842857Y-60561904D01*
X146080952Y-60561904D01*
X146176190Y-60514285D01*
X146223809Y-60466666D01*
X146271428Y-60371428D01*
X146271428Y-60180952D01*
X146223809Y-60085714D01*
X146176190Y-60038095D01*
X146080952Y-59990476D01*
G04 #@! TO.C,U8*
X132652380Y-61561904D02*
X133461904Y-61561904D01*
X133557142Y-61514285D01*
X133604761Y-61466666D01*
X133652380Y-61371428D01*
X133652380Y-61180952D01*
X133604761Y-61085714D01*
X133557142Y-61038095D01*
X133461904Y-60990476D01*
X132652380Y-60990476D01*
X133080952Y-60371428D02*
X133033333Y-60466666D01*
X132985714Y-60514285D01*
X132890476Y-60561904D01*
X132842857Y-60561904D01*
X132747619Y-60514285D01*
X132700000Y-60466666D01*
X132652380Y-60371428D01*
X132652380Y-60180952D01*
X132700000Y-60085714D01*
X132747619Y-60038095D01*
X132842857Y-59990476D01*
X132890476Y-59990476D01*
X132985714Y-60038095D01*
X133033333Y-60085714D01*
X133080952Y-60180952D01*
X133080952Y-60371428D01*
X133128571Y-60466666D01*
X133176190Y-60514285D01*
X133271428Y-60561904D01*
X133461904Y-60561904D01*
X133557142Y-60514285D01*
X133604761Y-60466666D01*
X133652380Y-60371428D01*
X133652380Y-60180952D01*
X133604761Y-60085714D01*
X133557142Y-60038095D01*
X133461904Y-59990476D01*
X133271428Y-59990476D01*
X133176190Y-60038095D01*
X133128571Y-60085714D01*
X133080952Y-60180952D01*
G04 #@! TO.C,U7*
X119652380Y-61561904D02*
X120461904Y-61561904D01*
X120557142Y-61514285D01*
X120604761Y-61466666D01*
X120652380Y-61371428D01*
X120652380Y-61180952D01*
X120604761Y-61085714D01*
X120557142Y-61038095D01*
X120461904Y-60990476D01*
X119652380Y-60990476D01*
X119652380Y-60609523D02*
X119652380Y-59942857D01*
X120652380Y-60371428D01*
G04 #@! TO.C,U6*
X106652380Y-61561904D02*
X107461904Y-61561904D01*
X107557142Y-61514285D01*
X107604761Y-61466666D01*
X107652380Y-61371428D01*
X107652380Y-61180952D01*
X107604761Y-61085714D01*
X107557142Y-61038095D01*
X107461904Y-60990476D01*
X106652380Y-60990476D01*
X106652380Y-60085714D02*
X106652380Y-60276190D01*
X106700000Y-60371428D01*
X106747619Y-60419047D01*
X106890476Y-60514285D01*
X107080952Y-60561904D01*
X107461904Y-60561904D01*
X107557142Y-60514285D01*
X107604761Y-60466666D01*
X107652380Y-60371428D01*
X107652380Y-60180952D01*
X107604761Y-60085714D01*
X107557142Y-60038095D01*
X107461904Y-59990476D01*
X107223809Y-59990476D01*
X107128571Y-60038095D01*
X107080952Y-60085714D01*
X107033333Y-60180952D01*
X107033333Y-60371428D01*
X107080952Y-60466666D01*
X107128571Y-60514285D01*
X107223809Y-60561904D01*
G04 #@! TO.C,U5*
X93652380Y-61561904D02*
X94461904Y-61561904D01*
X94557142Y-61514285D01*
X94604761Y-61466666D01*
X94652380Y-61371428D01*
X94652380Y-61180952D01*
X94604761Y-61085714D01*
X94557142Y-61038095D01*
X94461904Y-60990476D01*
X93652380Y-60990476D01*
X93652380Y-60038095D02*
X93652380Y-60514285D01*
X94128571Y-60561904D01*
X94080952Y-60514285D01*
X94033333Y-60419047D01*
X94033333Y-60180952D01*
X94080952Y-60085714D01*
X94128571Y-60038095D01*
X94223809Y-59990476D01*
X94461904Y-59990476D01*
X94557142Y-60038095D01*
X94604761Y-60085714D01*
X94652380Y-60180952D01*
X94652380Y-60419047D01*
X94604761Y-60514285D01*
X94557142Y-60561904D01*
G04 #@! TO.C,U4*
X80652380Y-61561904D02*
X81461904Y-61561904D01*
X81557142Y-61514285D01*
X81604761Y-61466666D01*
X81652380Y-61371428D01*
X81652380Y-61180952D01*
X81604761Y-61085714D01*
X81557142Y-61038095D01*
X81461904Y-60990476D01*
X80652380Y-60990476D01*
X80985714Y-60085714D02*
X81652380Y-60085714D01*
X80604761Y-60323809D02*
X81319047Y-60561904D01*
X81319047Y-59942857D01*
G04 #@! TO.C,U3*
X67652380Y-61561904D02*
X68461904Y-61561904D01*
X68557142Y-61514285D01*
X68604761Y-61466666D01*
X68652380Y-61371428D01*
X68652380Y-61180952D01*
X68604761Y-61085714D01*
X68557142Y-61038095D01*
X68461904Y-60990476D01*
X67652380Y-60990476D01*
X67652380Y-60609523D02*
X67652380Y-59990476D01*
X68033333Y-60323809D01*
X68033333Y-60180952D01*
X68080952Y-60085714D01*
X68128571Y-60038095D01*
X68223809Y-59990476D01*
X68461904Y-59990476D01*
X68557142Y-60038095D01*
X68604761Y-60085714D01*
X68652380Y-60180952D01*
X68652380Y-60466666D01*
X68604761Y-60561904D01*
X68557142Y-60609523D01*
G04 #@! TO.C,U2*
X54652380Y-61561904D02*
X55461904Y-61561904D01*
X55557142Y-61514285D01*
X55604761Y-61466666D01*
X55652380Y-61371428D01*
X55652380Y-61180952D01*
X55604761Y-61085714D01*
X55557142Y-61038095D01*
X55461904Y-60990476D01*
X54652380Y-60990476D01*
X54747619Y-60561904D02*
X54700000Y-60514285D01*
X54652380Y-60419047D01*
X54652380Y-60180952D01*
X54700000Y-60085714D01*
X54747619Y-60038095D01*
X54842857Y-59990476D01*
X54938095Y-59990476D01*
X55080952Y-60038095D01*
X55652380Y-60609523D01*
X55652380Y-59990476D01*
G04 #@! TO.C,PS1*
X105785714Y-92702380D02*
X105785714Y-91702380D01*
X106166666Y-91702380D01*
X106261904Y-91750000D01*
X106309523Y-91797619D01*
X106357142Y-91892857D01*
X106357142Y-92035714D01*
X106309523Y-92130952D01*
X106261904Y-92178571D01*
X106166666Y-92226190D01*
X105785714Y-92226190D01*
X106738095Y-92654761D02*
X106880952Y-92702380D01*
X107119047Y-92702380D01*
X107214285Y-92654761D01*
X107261904Y-92607142D01*
X107309523Y-92511904D01*
X107309523Y-92416666D01*
X107261904Y-92321428D01*
X107214285Y-92273809D01*
X107119047Y-92226190D01*
X106928571Y-92178571D01*
X106833333Y-92130952D01*
X106785714Y-92083333D01*
X106738095Y-91988095D01*
X106738095Y-91892857D01*
X106785714Y-91797619D01*
X106833333Y-91750000D01*
X106928571Y-91702380D01*
X107166666Y-91702380D01*
X107309523Y-91750000D01*
X108261904Y-92702380D02*
X107690476Y-92702380D01*
X107976190Y-92702380D02*
X107976190Y-91702380D01*
X107880952Y-91845238D01*
X107785714Y-91940476D01*
X107690476Y-91988095D01*
G04 #@! TO.C,N1*
X110238095Y-72452380D02*
X110238095Y-71452380D01*
X110809523Y-72452380D01*
X110809523Y-71452380D01*
X111809523Y-72452380D02*
X111238095Y-72452380D01*
X111523809Y-72452380D02*
X111523809Y-71452380D01*
X111428571Y-71595238D01*
X111333333Y-71690476D01*
X111238095Y-71738095D01*
G04 #@! TO.C,RN1*
X148452380Y-72690476D02*
X147976190Y-73023809D01*
X148452380Y-73261904D02*
X147452380Y-73261904D01*
X147452380Y-72880952D01*
X147500000Y-72785714D01*
X147547619Y-72738095D01*
X147642857Y-72690476D01*
X147785714Y-72690476D01*
X147880952Y-72738095D01*
X147928571Y-72785714D01*
X147976190Y-72880952D01*
X147976190Y-73261904D01*
X148452380Y-72261904D02*
X147452380Y-72261904D01*
X148452380Y-71690476D01*
X147452380Y-71690476D01*
X148452380Y-70690476D02*
X148452380Y-71261904D01*
X148452380Y-70976190D02*
X147452380Y-70976190D01*
X147595238Y-71071428D01*
X147690476Y-71166666D01*
X147738095Y-71261904D01*
G04 #@! TO.C,C11*
X81357142Y-52642857D02*
X81404761Y-52690476D01*
X81452380Y-52833333D01*
X81452380Y-52928571D01*
X81404761Y-53071428D01*
X81309523Y-53166666D01*
X81214285Y-53214285D01*
X81023809Y-53261904D01*
X80880952Y-53261904D01*
X80690476Y-53214285D01*
X80595238Y-53166666D01*
X80500000Y-53071428D01*
X80452380Y-52928571D01*
X80452380Y-52833333D01*
X80500000Y-52690476D01*
X80547619Y-52642857D01*
X81452380Y-51690476D02*
X81452380Y-52261904D01*
X81452380Y-51976190D02*
X80452380Y-51976190D01*
X80595238Y-52071428D01*
X80690476Y-52166666D01*
X80738095Y-52261904D01*
X81452380Y-50738095D02*
X81452380Y-51309523D01*
X81452380Y-51023809D02*
X80452380Y-51023809D01*
X80595238Y-51119047D01*
X80690476Y-51214285D01*
X80738095Y-51309523D01*
G04 #@! TO.C,RN3*
X170952380Y-72690476D02*
X170476190Y-73023809D01*
X170952380Y-73261904D02*
X169952380Y-73261904D01*
X169952380Y-72880952D01*
X170000000Y-72785714D01*
X170047619Y-72738095D01*
X170142857Y-72690476D01*
X170285714Y-72690476D01*
X170380952Y-72738095D01*
X170428571Y-72785714D01*
X170476190Y-72880952D01*
X170476190Y-73261904D01*
X170952380Y-72261904D02*
X169952380Y-72261904D01*
X170952380Y-71690476D01*
X169952380Y-71690476D01*
X169952380Y-71309523D02*
X169952380Y-70690476D01*
X170333333Y-71023809D01*
X170333333Y-70880952D01*
X170380952Y-70785714D01*
X170428571Y-70738095D01*
X170523809Y-70690476D01*
X170761904Y-70690476D01*
X170857142Y-70738095D01*
X170904761Y-70785714D01*
X170952380Y-70880952D01*
X170952380Y-71166666D01*
X170904761Y-71261904D01*
X170857142Y-71309523D01*
G04 #@! TO.C,RN2*
X159952380Y-72690476D02*
X159476190Y-73023809D01*
X159952380Y-73261904D02*
X158952380Y-73261904D01*
X158952380Y-72880952D01*
X159000000Y-72785714D01*
X159047619Y-72738095D01*
X159142857Y-72690476D01*
X159285714Y-72690476D01*
X159380952Y-72738095D01*
X159428571Y-72785714D01*
X159476190Y-72880952D01*
X159476190Y-73261904D01*
X159952380Y-72261904D02*
X158952380Y-72261904D01*
X159952380Y-71690476D01*
X158952380Y-71690476D01*
X159047619Y-71261904D02*
X159000000Y-71214285D01*
X158952380Y-71119047D01*
X158952380Y-70880952D01*
X159000000Y-70785714D01*
X159047619Y-70738095D01*
X159142857Y-70690476D01*
X159238095Y-70690476D01*
X159380952Y-70738095D01*
X159952380Y-71309523D01*
X159952380Y-70690476D01*
G04 #@! TO.C,C18*
X172357142Y-52642857D02*
X172404761Y-52690476D01*
X172452380Y-52833333D01*
X172452380Y-52928571D01*
X172404761Y-53071428D01*
X172309523Y-53166666D01*
X172214285Y-53214285D01*
X172023809Y-53261904D01*
X171880952Y-53261904D01*
X171690476Y-53214285D01*
X171595238Y-53166666D01*
X171500000Y-53071428D01*
X171452380Y-52928571D01*
X171452380Y-52833333D01*
X171500000Y-52690476D01*
X171547619Y-52642857D01*
X172452380Y-51690476D02*
X172452380Y-52261904D01*
X172452380Y-51976190D02*
X171452380Y-51976190D01*
X171595238Y-52071428D01*
X171690476Y-52166666D01*
X171738095Y-52261904D01*
X171880952Y-51119047D02*
X171833333Y-51214285D01*
X171785714Y-51261904D01*
X171690476Y-51309523D01*
X171642857Y-51309523D01*
X171547619Y-51261904D01*
X171500000Y-51214285D01*
X171452380Y-51119047D01*
X171452380Y-50928571D01*
X171500000Y-50833333D01*
X171547619Y-50785714D01*
X171642857Y-50738095D01*
X171690476Y-50738095D01*
X171785714Y-50785714D01*
X171833333Y-50833333D01*
X171880952Y-50928571D01*
X171880952Y-51119047D01*
X171928571Y-51214285D01*
X171976190Y-51261904D01*
X172071428Y-51309523D01*
X172261904Y-51309523D01*
X172357142Y-51261904D01*
X172404761Y-51214285D01*
X172452380Y-51119047D01*
X172452380Y-50928571D01*
X172404761Y-50833333D01*
X172357142Y-50785714D01*
X172261904Y-50738095D01*
X172071428Y-50738095D01*
X171976190Y-50785714D01*
X171928571Y-50833333D01*
X171880952Y-50928571D01*
G04 #@! TO.C,C17*
X159357142Y-52642857D02*
X159404761Y-52690476D01*
X159452380Y-52833333D01*
X159452380Y-52928571D01*
X159404761Y-53071428D01*
X159309523Y-53166666D01*
X159214285Y-53214285D01*
X159023809Y-53261904D01*
X158880952Y-53261904D01*
X158690476Y-53214285D01*
X158595238Y-53166666D01*
X158500000Y-53071428D01*
X158452380Y-52928571D01*
X158452380Y-52833333D01*
X158500000Y-52690476D01*
X158547619Y-52642857D01*
X159452380Y-51690476D02*
X159452380Y-52261904D01*
X159452380Y-51976190D02*
X158452380Y-51976190D01*
X158595238Y-52071428D01*
X158690476Y-52166666D01*
X158738095Y-52261904D01*
X158452380Y-51357142D02*
X158452380Y-50690476D01*
X159452380Y-51119047D01*
G04 #@! TO.C,C16*
X146357142Y-52642857D02*
X146404761Y-52690476D01*
X146452380Y-52833333D01*
X146452380Y-52928571D01*
X146404761Y-53071428D01*
X146309523Y-53166666D01*
X146214285Y-53214285D01*
X146023809Y-53261904D01*
X145880952Y-53261904D01*
X145690476Y-53214285D01*
X145595238Y-53166666D01*
X145500000Y-53071428D01*
X145452380Y-52928571D01*
X145452380Y-52833333D01*
X145500000Y-52690476D01*
X145547619Y-52642857D01*
X146452380Y-51690476D02*
X146452380Y-52261904D01*
X146452380Y-51976190D02*
X145452380Y-51976190D01*
X145595238Y-52071428D01*
X145690476Y-52166666D01*
X145738095Y-52261904D01*
X145452380Y-50833333D02*
X145452380Y-51023809D01*
X145500000Y-51119047D01*
X145547619Y-51166666D01*
X145690476Y-51261904D01*
X145880952Y-51309523D01*
X146261904Y-51309523D01*
X146357142Y-51261904D01*
X146404761Y-51214285D01*
X146452380Y-51119047D01*
X146452380Y-50928571D01*
X146404761Y-50833333D01*
X146357142Y-50785714D01*
X146261904Y-50738095D01*
X146023809Y-50738095D01*
X145928571Y-50785714D01*
X145880952Y-50833333D01*
X145833333Y-50928571D01*
X145833333Y-51119047D01*
X145880952Y-51214285D01*
X145928571Y-51261904D01*
X146023809Y-51309523D01*
G04 #@! TO.C,C15*
X133357142Y-52642857D02*
X133404761Y-52690476D01*
X133452380Y-52833333D01*
X133452380Y-52928571D01*
X133404761Y-53071428D01*
X133309523Y-53166666D01*
X133214285Y-53214285D01*
X133023809Y-53261904D01*
X132880952Y-53261904D01*
X132690476Y-53214285D01*
X132595238Y-53166666D01*
X132500000Y-53071428D01*
X132452380Y-52928571D01*
X132452380Y-52833333D01*
X132500000Y-52690476D01*
X132547619Y-52642857D01*
X133452380Y-51690476D02*
X133452380Y-52261904D01*
X133452380Y-51976190D02*
X132452380Y-51976190D01*
X132595238Y-52071428D01*
X132690476Y-52166666D01*
X132738095Y-52261904D01*
X132452380Y-50785714D02*
X132452380Y-51261904D01*
X132928571Y-51309523D01*
X132880952Y-51261904D01*
X132833333Y-51166666D01*
X132833333Y-50928571D01*
X132880952Y-50833333D01*
X132928571Y-50785714D01*
X133023809Y-50738095D01*
X133261904Y-50738095D01*
X133357142Y-50785714D01*
X133404761Y-50833333D01*
X133452380Y-50928571D01*
X133452380Y-51166666D01*
X133404761Y-51261904D01*
X133357142Y-51309523D01*
G04 #@! TO.C,C14*
X120357142Y-52642857D02*
X120404761Y-52690476D01*
X120452380Y-52833333D01*
X120452380Y-52928571D01*
X120404761Y-53071428D01*
X120309523Y-53166666D01*
X120214285Y-53214285D01*
X120023809Y-53261904D01*
X119880952Y-53261904D01*
X119690476Y-53214285D01*
X119595238Y-53166666D01*
X119500000Y-53071428D01*
X119452380Y-52928571D01*
X119452380Y-52833333D01*
X119500000Y-52690476D01*
X119547619Y-52642857D01*
X120452380Y-51690476D02*
X120452380Y-52261904D01*
X120452380Y-51976190D02*
X119452380Y-51976190D01*
X119595238Y-52071428D01*
X119690476Y-52166666D01*
X119738095Y-52261904D01*
X119785714Y-50833333D02*
X120452380Y-50833333D01*
X119404761Y-51071428D02*
X120119047Y-51309523D01*
X120119047Y-50690476D01*
G04 #@! TO.C,C13*
X107357142Y-52642857D02*
X107404761Y-52690476D01*
X107452380Y-52833333D01*
X107452380Y-52928571D01*
X107404761Y-53071428D01*
X107309523Y-53166666D01*
X107214285Y-53214285D01*
X107023809Y-53261904D01*
X106880952Y-53261904D01*
X106690476Y-53214285D01*
X106595238Y-53166666D01*
X106500000Y-53071428D01*
X106452380Y-52928571D01*
X106452380Y-52833333D01*
X106500000Y-52690476D01*
X106547619Y-52642857D01*
X107452380Y-51690476D02*
X107452380Y-52261904D01*
X107452380Y-51976190D02*
X106452380Y-51976190D01*
X106595238Y-52071428D01*
X106690476Y-52166666D01*
X106738095Y-52261904D01*
X106452380Y-51357142D02*
X106452380Y-50738095D01*
X106833333Y-51071428D01*
X106833333Y-50928571D01*
X106880952Y-50833333D01*
X106928571Y-50785714D01*
X107023809Y-50738095D01*
X107261904Y-50738095D01*
X107357142Y-50785714D01*
X107404761Y-50833333D01*
X107452380Y-50928571D01*
X107452380Y-51214285D01*
X107404761Y-51309523D01*
X107357142Y-51357142D01*
G04 #@! TO.C,C12*
X94357142Y-52642857D02*
X94404761Y-52690476D01*
X94452380Y-52833333D01*
X94452380Y-52928571D01*
X94404761Y-53071428D01*
X94309523Y-53166666D01*
X94214285Y-53214285D01*
X94023809Y-53261904D01*
X93880952Y-53261904D01*
X93690476Y-53214285D01*
X93595238Y-53166666D01*
X93500000Y-53071428D01*
X93452380Y-52928571D01*
X93452380Y-52833333D01*
X93500000Y-52690476D01*
X93547619Y-52642857D01*
X94452380Y-51690476D02*
X94452380Y-52261904D01*
X94452380Y-51976190D02*
X93452380Y-51976190D01*
X93595238Y-52071428D01*
X93690476Y-52166666D01*
X93738095Y-52261904D01*
X93547619Y-51309523D02*
X93500000Y-51261904D01*
X93452380Y-51166666D01*
X93452380Y-50928571D01*
X93500000Y-50833333D01*
X93547619Y-50785714D01*
X93642857Y-50738095D01*
X93738095Y-50738095D01*
X93880952Y-50785714D01*
X94452380Y-51357142D01*
X94452380Y-50738095D01*
G04 #@! TO.C,C10*
X68357142Y-52642857D02*
X68404761Y-52690476D01*
X68452380Y-52833333D01*
X68452380Y-52928571D01*
X68404761Y-53071428D01*
X68309523Y-53166666D01*
X68214285Y-53214285D01*
X68023809Y-53261904D01*
X67880952Y-53261904D01*
X67690476Y-53214285D01*
X67595238Y-53166666D01*
X67500000Y-53071428D01*
X67452380Y-52928571D01*
X67452380Y-52833333D01*
X67500000Y-52690476D01*
X67547619Y-52642857D01*
X68452380Y-51690476D02*
X68452380Y-52261904D01*
X68452380Y-51976190D02*
X67452380Y-51976190D01*
X67595238Y-52071428D01*
X67690476Y-52166666D01*
X67738095Y-52261904D01*
X67452380Y-51071428D02*
X67452380Y-50976190D01*
X67500000Y-50880952D01*
X67547619Y-50833333D01*
X67642857Y-50785714D01*
X67833333Y-50738095D01*
X68071428Y-50738095D01*
X68261904Y-50785714D01*
X68357142Y-50833333D01*
X68404761Y-50880952D01*
X68452380Y-50976190D01*
X68452380Y-51071428D01*
X68404761Y-51166666D01*
X68357142Y-51214285D01*
X68261904Y-51261904D01*
X68071428Y-51309523D01*
X67833333Y-51309523D01*
X67642857Y-51261904D01*
X67547619Y-51214285D01*
X67500000Y-51166666D01*
X67452380Y-51071428D01*
G04 #@! TO.C,C9*
X55357142Y-52166666D02*
X55404761Y-52214285D01*
X55452380Y-52357142D01*
X55452380Y-52452380D01*
X55404761Y-52595238D01*
X55309523Y-52690476D01*
X55214285Y-52738095D01*
X55023809Y-52785714D01*
X54880952Y-52785714D01*
X54690476Y-52738095D01*
X54595238Y-52690476D01*
X54500000Y-52595238D01*
X54452380Y-52452380D01*
X54452380Y-52357142D01*
X54500000Y-52214285D01*
X54547619Y-52166666D01*
X55452380Y-51690476D02*
X55452380Y-51500000D01*
X55404761Y-51404761D01*
X55357142Y-51357142D01*
X55214285Y-51261904D01*
X55023809Y-51214285D01*
X54642857Y-51214285D01*
X54547619Y-51261904D01*
X54500000Y-51309523D01*
X54452380Y-51404761D01*
X54452380Y-51595238D01*
X54500000Y-51690476D01*
X54547619Y-51738095D01*
X54642857Y-51785714D01*
X54880952Y-51785714D01*
X54976190Y-51738095D01*
X55023809Y-51690476D01*
X55071428Y-51595238D01*
X55071428Y-51404761D01*
X55023809Y-51309523D01*
X54976190Y-51261904D01*
X54880952Y-51214285D01*
G04 #@! TO.C,C2*
X61107142Y-89666666D02*
X61154761Y-89714285D01*
X61202380Y-89857142D01*
X61202380Y-89952380D01*
X61154761Y-90095238D01*
X61059523Y-90190476D01*
X60964285Y-90238095D01*
X60773809Y-90285714D01*
X60630952Y-90285714D01*
X60440476Y-90238095D01*
X60345238Y-90190476D01*
X60250000Y-90095238D01*
X60202380Y-89952380D01*
X60202380Y-89857142D01*
X60250000Y-89714285D01*
X60297619Y-89666666D01*
X60297619Y-89285714D02*
X60250000Y-89238095D01*
X60202380Y-89142857D01*
X60202380Y-88904761D01*
X60250000Y-88809523D01*
X60297619Y-88761904D01*
X60392857Y-88714285D01*
X60488095Y-88714285D01*
X60630952Y-88761904D01*
X61202380Y-89333333D01*
X61202380Y-88714285D01*
G04 #@! TO.C,J2*
X123372380Y-108583333D02*
X124086666Y-108583333D01*
X124229523Y-108630952D01*
X124324761Y-108726190D01*
X124372380Y-108869047D01*
X124372380Y-108964285D01*
X123467619Y-108154761D02*
X123420000Y-108107142D01*
X123372380Y-108011904D01*
X123372380Y-107773809D01*
X123420000Y-107678571D01*
X123467619Y-107630952D01*
X123562857Y-107583333D01*
X123658095Y-107583333D01*
X123800952Y-107630952D01*
X124372380Y-108202380D01*
X124372380Y-107583333D01*
G04 #@! TO.C,F2*
X54166666Y-67928571D02*
X53833333Y-67928571D01*
X53833333Y-68452380D02*
X53833333Y-67452380D01*
X54309523Y-67452380D01*
X54642857Y-67547619D02*
X54690476Y-67500000D01*
X54785714Y-67452380D01*
X55023809Y-67452380D01*
X55119047Y-67500000D01*
X55166666Y-67547619D01*
X55214285Y-67642857D01*
X55214285Y-67738095D01*
X55166666Y-67880952D01*
X54595238Y-68452380D01*
X55214285Y-68452380D01*
G04 #@! TO.C,F1*
X43166666Y-65428571D02*
X42833333Y-65428571D01*
X42833333Y-65952380D02*
X42833333Y-64952380D01*
X43309523Y-64952380D01*
X44214285Y-65952380D02*
X43642857Y-65952380D01*
X43928571Y-65952380D02*
X43928571Y-64952380D01*
X43833333Y-65095238D01*
X43738095Y-65190476D01*
X43642857Y-65238095D01*
G04 #@! TO.C,J3*
X136452380Y-108333333D02*
X137166666Y-108333333D01*
X137309523Y-108380952D01*
X137404761Y-108476190D01*
X137452380Y-108619047D01*
X137452380Y-108714285D01*
X136452380Y-107952380D02*
X136452380Y-107333333D01*
X136833333Y-107666666D01*
X136833333Y-107523809D01*
X136880952Y-107428571D01*
X136928571Y-107380952D01*
X137023809Y-107333333D01*
X137261904Y-107333333D01*
X137357142Y-107380952D01*
X137404761Y-107428571D01*
X137452380Y-107523809D01*
X137452380Y-107809523D01*
X137404761Y-107904761D01*
X137357142Y-107952380D01*
G04 #@! TO.C,U1*
X176638095Y-106252380D02*
X176638095Y-107061904D01*
X176685714Y-107157142D01*
X176733333Y-107204761D01*
X176828571Y-107252380D01*
X177019047Y-107252380D01*
X177114285Y-107204761D01*
X177161904Y-107157142D01*
X177209523Y-107061904D01*
X177209523Y-106252380D01*
X178209523Y-107252380D02*
X177638095Y-107252380D01*
X177923809Y-107252380D02*
X177923809Y-106252380D01*
X177828571Y-106395238D01*
X177733333Y-106490476D01*
X177638095Y-106538095D01*
G04 #@! TO.C,RV1*
X61452380Y-96595238D02*
X60976190Y-96928571D01*
X61452380Y-97166666D02*
X60452380Y-97166666D01*
X60452380Y-96785714D01*
X60500000Y-96690476D01*
X60547619Y-96642857D01*
X60642857Y-96595238D01*
X60785714Y-96595238D01*
X60880952Y-96642857D01*
X60928571Y-96690476D01*
X60976190Y-96785714D01*
X60976190Y-97166666D01*
X60452380Y-96309523D02*
X61452380Y-95976190D01*
X60452380Y-95642857D01*
X61452380Y-94785714D02*
X61452380Y-95357142D01*
X61452380Y-95071428D02*
X60452380Y-95071428D01*
X60595238Y-95166666D01*
X60690476Y-95261904D01*
X60738095Y-95357142D01*
G04 #@! TO.C,RN6*
X176452380Y-72590476D02*
X175976190Y-72923809D01*
X176452380Y-73161904D02*
X175452380Y-73161904D01*
X175452380Y-72780952D01*
X175500000Y-72685714D01*
X175547619Y-72638095D01*
X175642857Y-72590476D01*
X175785714Y-72590476D01*
X175880952Y-72638095D01*
X175928571Y-72685714D01*
X175976190Y-72780952D01*
X175976190Y-73161904D01*
X176452380Y-72161904D02*
X175452380Y-72161904D01*
X176452380Y-71590476D01*
X175452380Y-71590476D01*
X175452380Y-70685714D02*
X175452380Y-70876190D01*
X175500000Y-70971428D01*
X175547619Y-71019047D01*
X175690476Y-71114285D01*
X175880952Y-71161904D01*
X176261904Y-71161904D01*
X176357142Y-71114285D01*
X176404761Y-71066666D01*
X176452380Y-70971428D01*
X176452380Y-70780952D01*
X176404761Y-70685714D01*
X176357142Y-70638095D01*
X176261904Y-70590476D01*
X176023809Y-70590476D01*
X175928571Y-70638095D01*
X175880952Y-70685714D01*
X175833333Y-70780952D01*
X175833333Y-70971428D01*
X175880952Y-71066666D01*
X175928571Y-71114285D01*
X176023809Y-71161904D01*
G04 #@! TO.C,RN5*
X165452380Y-72690476D02*
X164976190Y-73023809D01*
X165452380Y-73261904D02*
X164452380Y-73261904D01*
X164452380Y-72880952D01*
X164500000Y-72785714D01*
X164547619Y-72738095D01*
X164642857Y-72690476D01*
X164785714Y-72690476D01*
X164880952Y-72738095D01*
X164928571Y-72785714D01*
X164976190Y-72880952D01*
X164976190Y-73261904D01*
X165452380Y-72261904D02*
X164452380Y-72261904D01*
X165452380Y-71690476D01*
X164452380Y-71690476D01*
X164452380Y-70738095D02*
X164452380Y-71214285D01*
X164928571Y-71261904D01*
X164880952Y-71214285D01*
X164833333Y-71119047D01*
X164833333Y-70880952D01*
X164880952Y-70785714D01*
X164928571Y-70738095D01*
X165023809Y-70690476D01*
X165261904Y-70690476D01*
X165357142Y-70738095D01*
X165404761Y-70785714D01*
X165452380Y-70880952D01*
X165452380Y-71119047D01*
X165404761Y-71214285D01*
X165357142Y-71261904D01*
G04 #@! TO.C,RN4*
X153952380Y-72690476D02*
X153476190Y-73023809D01*
X153952380Y-73261904D02*
X152952380Y-73261904D01*
X152952380Y-72880952D01*
X153000000Y-72785714D01*
X153047619Y-72738095D01*
X153142857Y-72690476D01*
X153285714Y-72690476D01*
X153380952Y-72738095D01*
X153428571Y-72785714D01*
X153476190Y-72880952D01*
X153476190Y-73261904D01*
X153952380Y-72261904D02*
X152952380Y-72261904D01*
X153952380Y-71690476D01*
X152952380Y-71690476D01*
X153285714Y-70785714D02*
X153952380Y-70785714D01*
X152904761Y-71023809D02*
X153619047Y-71261904D01*
X153619047Y-70642857D01*
G04 #@! TO.C,R8*
X99272380Y-106166666D02*
X98796190Y-106500000D01*
X99272380Y-106738095D02*
X98272380Y-106738095D01*
X98272380Y-106357142D01*
X98320000Y-106261904D01*
X98367619Y-106214285D01*
X98462857Y-106166666D01*
X98605714Y-106166666D01*
X98700952Y-106214285D01*
X98748571Y-106261904D01*
X98796190Y-106357142D01*
X98796190Y-106738095D01*
X98700952Y-105595238D02*
X98653333Y-105690476D01*
X98605714Y-105738095D01*
X98510476Y-105785714D01*
X98462857Y-105785714D01*
X98367619Y-105738095D01*
X98320000Y-105690476D01*
X98272380Y-105595238D01*
X98272380Y-105404761D01*
X98320000Y-105309523D01*
X98367619Y-105261904D01*
X98462857Y-105214285D01*
X98510476Y-105214285D01*
X98605714Y-105261904D01*
X98653333Y-105309523D01*
X98700952Y-105404761D01*
X98700952Y-105595238D01*
X98748571Y-105690476D01*
X98796190Y-105738095D01*
X98891428Y-105785714D01*
X99081904Y-105785714D01*
X99177142Y-105738095D01*
X99224761Y-105690476D01*
X99272380Y-105595238D01*
X99272380Y-105404761D01*
X99224761Y-105309523D01*
X99177142Y-105261904D01*
X99081904Y-105214285D01*
X98891428Y-105214285D01*
X98796190Y-105261904D01*
X98748571Y-105309523D01*
X98700952Y-105404761D01*
G04 #@! TO.C,R7*
X119202380Y-99416666D02*
X118726190Y-99750000D01*
X119202380Y-99988095D02*
X118202380Y-99988095D01*
X118202380Y-99607142D01*
X118250000Y-99511904D01*
X118297619Y-99464285D01*
X118392857Y-99416666D01*
X118535714Y-99416666D01*
X118630952Y-99464285D01*
X118678571Y-99511904D01*
X118726190Y-99607142D01*
X118726190Y-99988095D01*
X118202380Y-99083333D02*
X118202380Y-98416666D01*
X119202380Y-98845238D01*
G04 #@! TO.C,R6*
X96272380Y-106166666D02*
X95796190Y-106500000D01*
X96272380Y-106738095D02*
X95272380Y-106738095D01*
X95272380Y-106357142D01*
X95320000Y-106261904D01*
X95367619Y-106214285D01*
X95462857Y-106166666D01*
X95605714Y-106166666D01*
X95700952Y-106214285D01*
X95748571Y-106261904D01*
X95796190Y-106357142D01*
X95796190Y-106738095D01*
X95272380Y-105309523D02*
X95272380Y-105500000D01*
X95320000Y-105595238D01*
X95367619Y-105642857D01*
X95510476Y-105738095D01*
X95700952Y-105785714D01*
X96081904Y-105785714D01*
X96177142Y-105738095D01*
X96224761Y-105690476D01*
X96272380Y-105595238D01*
X96272380Y-105404761D01*
X96224761Y-105309523D01*
X96177142Y-105261904D01*
X96081904Y-105214285D01*
X95843809Y-105214285D01*
X95748571Y-105261904D01*
X95700952Y-105309523D01*
X95653333Y-105404761D01*
X95653333Y-105595238D01*
X95700952Y-105690476D01*
X95748571Y-105738095D01*
X95843809Y-105785714D01*
G04 #@! TO.C,R5*
X107702380Y-99341666D02*
X107226190Y-99675000D01*
X107702380Y-99913095D02*
X106702380Y-99913095D01*
X106702380Y-99532142D01*
X106750000Y-99436904D01*
X106797619Y-99389285D01*
X106892857Y-99341666D01*
X107035714Y-99341666D01*
X107130952Y-99389285D01*
X107178571Y-99436904D01*
X107226190Y-99532142D01*
X107226190Y-99913095D01*
X106702380Y-98436904D02*
X106702380Y-98913095D01*
X107178571Y-98960714D01*
X107130952Y-98913095D01*
X107083333Y-98817857D01*
X107083333Y-98579761D01*
X107130952Y-98484523D01*
X107178571Y-98436904D01*
X107273809Y-98389285D01*
X107511904Y-98389285D01*
X107607142Y-98436904D01*
X107654761Y-98484523D01*
X107702380Y-98579761D01*
X107702380Y-98817857D01*
X107654761Y-98913095D01*
X107607142Y-98960714D01*
G04 #@! TO.C,R4*
X129702380Y-99416666D02*
X129226190Y-99750000D01*
X129702380Y-99988095D02*
X128702380Y-99988095D01*
X128702380Y-99607142D01*
X128750000Y-99511904D01*
X128797619Y-99464285D01*
X128892857Y-99416666D01*
X129035714Y-99416666D01*
X129130952Y-99464285D01*
X129178571Y-99511904D01*
X129226190Y-99607142D01*
X129226190Y-99988095D01*
X129035714Y-98559523D02*
X129702380Y-98559523D01*
X128654761Y-98797619D02*
X129369047Y-99035714D01*
X129369047Y-98416666D01*
G04 #@! TO.C,R3*
X131202380Y-99416666D02*
X130726190Y-99750000D01*
X131202380Y-99988095D02*
X130202380Y-99988095D01*
X130202380Y-99607142D01*
X130250000Y-99511904D01*
X130297619Y-99464285D01*
X130392857Y-99416666D01*
X130535714Y-99416666D01*
X130630952Y-99464285D01*
X130678571Y-99511904D01*
X130726190Y-99607142D01*
X130726190Y-99988095D01*
X130202380Y-99083333D02*
X130202380Y-98464285D01*
X130583333Y-98797619D01*
X130583333Y-98654761D01*
X130630952Y-98559523D01*
X130678571Y-98511904D01*
X130773809Y-98464285D01*
X131011904Y-98464285D01*
X131107142Y-98511904D01*
X131154761Y-98559523D01*
X131202380Y-98654761D01*
X131202380Y-98940476D01*
X131154761Y-99035714D01*
X131107142Y-99083333D01*
G04 #@! TO.C,R1*
X151702380Y-99916666D02*
X151226190Y-100250000D01*
X151702380Y-100488095D02*
X150702380Y-100488095D01*
X150702380Y-100107142D01*
X150750000Y-100011904D01*
X150797619Y-99964285D01*
X150892857Y-99916666D01*
X151035714Y-99916666D01*
X151130952Y-99964285D01*
X151178571Y-100011904D01*
X151226190Y-100107142D01*
X151226190Y-100488095D01*
X151702380Y-98964285D02*
X151702380Y-99535714D01*
X151702380Y-99250000D02*
X150702380Y-99250000D01*
X150845238Y-99345238D01*
X150940476Y-99440476D01*
X150988095Y-99535714D01*
G04 #@! TO.C,D12*
X173702380Y-78214285D02*
X172702380Y-78214285D01*
X172702380Y-77976190D01*
X172750000Y-77833333D01*
X172845238Y-77738095D01*
X172940476Y-77690476D01*
X173130952Y-77642857D01*
X173273809Y-77642857D01*
X173464285Y-77690476D01*
X173559523Y-77738095D01*
X173654761Y-77833333D01*
X173702380Y-77976190D01*
X173702380Y-78214285D01*
X173702380Y-76690476D02*
X173702380Y-77261904D01*
X173702380Y-76976190D02*
X172702380Y-76976190D01*
X172845238Y-77071428D01*
X172940476Y-77166666D01*
X172988095Y-77261904D01*
X172797619Y-76309523D02*
X172750000Y-76261904D01*
X172702380Y-76166666D01*
X172702380Y-75928571D01*
X172750000Y-75833333D01*
X172797619Y-75785714D01*
X172892857Y-75738095D01*
X172988095Y-75738095D01*
X173130952Y-75785714D01*
X173702380Y-76357142D01*
X173702380Y-75738095D01*
G04 #@! TO.C,D11*
X170202380Y-78214285D02*
X169202380Y-78214285D01*
X169202380Y-77976190D01*
X169250000Y-77833333D01*
X169345238Y-77738095D01*
X169440476Y-77690476D01*
X169630952Y-77642857D01*
X169773809Y-77642857D01*
X169964285Y-77690476D01*
X170059523Y-77738095D01*
X170154761Y-77833333D01*
X170202380Y-77976190D01*
X170202380Y-78214285D01*
X170202380Y-76690476D02*
X170202380Y-77261904D01*
X170202380Y-76976190D02*
X169202380Y-76976190D01*
X169345238Y-77071428D01*
X169440476Y-77166666D01*
X169488095Y-77261904D01*
X170202380Y-75738095D02*
X170202380Y-76309523D01*
X170202380Y-76023809D02*
X169202380Y-76023809D01*
X169345238Y-76119047D01*
X169440476Y-76214285D01*
X169488095Y-76309523D01*
G04 #@! TO.C,D10*
X166702380Y-78214285D02*
X165702380Y-78214285D01*
X165702380Y-77976190D01*
X165750000Y-77833333D01*
X165845238Y-77738095D01*
X165940476Y-77690476D01*
X166130952Y-77642857D01*
X166273809Y-77642857D01*
X166464285Y-77690476D01*
X166559523Y-77738095D01*
X166654761Y-77833333D01*
X166702380Y-77976190D01*
X166702380Y-78214285D01*
X166702380Y-76690476D02*
X166702380Y-77261904D01*
X166702380Y-76976190D02*
X165702380Y-76976190D01*
X165845238Y-77071428D01*
X165940476Y-77166666D01*
X165988095Y-77261904D01*
X165702380Y-76071428D02*
X165702380Y-75976190D01*
X165750000Y-75880952D01*
X165797619Y-75833333D01*
X165892857Y-75785714D01*
X166083333Y-75738095D01*
X166321428Y-75738095D01*
X166511904Y-75785714D01*
X166607142Y-75833333D01*
X166654761Y-75880952D01*
X166702380Y-75976190D01*
X166702380Y-76071428D01*
X166654761Y-76166666D01*
X166607142Y-76214285D01*
X166511904Y-76261904D01*
X166321428Y-76309523D01*
X166083333Y-76309523D01*
X165892857Y-76261904D01*
X165797619Y-76214285D01*
X165750000Y-76166666D01*
X165702380Y-76071428D01*
G04 #@! TO.C,D9*
X163202380Y-77775595D02*
X162202380Y-77775595D01*
X162202380Y-77537500D01*
X162250000Y-77394642D01*
X162345238Y-77299404D01*
X162440476Y-77251785D01*
X162630952Y-77204166D01*
X162773809Y-77204166D01*
X162964285Y-77251785D01*
X163059523Y-77299404D01*
X163154761Y-77394642D01*
X163202380Y-77537500D01*
X163202380Y-77775595D01*
X163202380Y-76727976D02*
X163202380Y-76537500D01*
X163154761Y-76442261D01*
X163107142Y-76394642D01*
X162964285Y-76299404D01*
X162773809Y-76251785D01*
X162392857Y-76251785D01*
X162297619Y-76299404D01*
X162250000Y-76347023D01*
X162202380Y-76442261D01*
X162202380Y-76632738D01*
X162250000Y-76727976D01*
X162297619Y-76775595D01*
X162392857Y-76823214D01*
X162630952Y-76823214D01*
X162726190Y-76775595D01*
X162773809Y-76727976D01*
X162821428Y-76632738D01*
X162821428Y-76442261D01*
X162773809Y-76347023D01*
X162726190Y-76299404D01*
X162630952Y-76251785D01*
G04 #@! TO.C,D8*
X159702380Y-77738095D02*
X158702380Y-77738095D01*
X158702380Y-77500000D01*
X158750000Y-77357142D01*
X158845238Y-77261904D01*
X158940476Y-77214285D01*
X159130952Y-77166666D01*
X159273809Y-77166666D01*
X159464285Y-77214285D01*
X159559523Y-77261904D01*
X159654761Y-77357142D01*
X159702380Y-77500000D01*
X159702380Y-77738095D01*
X159130952Y-76595238D02*
X159083333Y-76690476D01*
X159035714Y-76738095D01*
X158940476Y-76785714D01*
X158892857Y-76785714D01*
X158797619Y-76738095D01*
X158750000Y-76690476D01*
X158702380Y-76595238D01*
X158702380Y-76404761D01*
X158750000Y-76309523D01*
X158797619Y-76261904D01*
X158892857Y-76214285D01*
X158940476Y-76214285D01*
X159035714Y-76261904D01*
X159083333Y-76309523D01*
X159130952Y-76404761D01*
X159130952Y-76595238D01*
X159178571Y-76690476D01*
X159226190Y-76738095D01*
X159321428Y-76785714D01*
X159511904Y-76785714D01*
X159607142Y-76738095D01*
X159654761Y-76690476D01*
X159702380Y-76595238D01*
X159702380Y-76404761D01*
X159654761Y-76309523D01*
X159607142Y-76261904D01*
X159511904Y-76214285D01*
X159321428Y-76214285D01*
X159226190Y-76261904D01*
X159178571Y-76309523D01*
X159130952Y-76404761D01*
G04 #@! TO.C,D7*
X156202380Y-77738095D02*
X155202380Y-77738095D01*
X155202380Y-77500000D01*
X155250000Y-77357142D01*
X155345238Y-77261904D01*
X155440476Y-77214285D01*
X155630952Y-77166666D01*
X155773809Y-77166666D01*
X155964285Y-77214285D01*
X156059523Y-77261904D01*
X156154761Y-77357142D01*
X156202380Y-77500000D01*
X156202380Y-77738095D01*
X155202380Y-76833333D02*
X155202380Y-76166666D01*
X156202380Y-76595238D01*
G04 #@! TO.C,D6*
X152702380Y-77738095D02*
X151702380Y-77738095D01*
X151702380Y-77500000D01*
X151750000Y-77357142D01*
X151845238Y-77261904D01*
X151940476Y-77214285D01*
X152130952Y-77166666D01*
X152273809Y-77166666D01*
X152464285Y-77214285D01*
X152559523Y-77261904D01*
X152654761Y-77357142D01*
X152702380Y-77500000D01*
X152702380Y-77738095D01*
X151702380Y-76309523D02*
X151702380Y-76500000D01*
X151750000Y-76595238D01*
X151797619Y-76642857D01*
X151940476Y-76738095D01*
X152130952Y-76785714D01*
X152511904Y-76785714D01*
X152607142Y-76738095D01*
X152654761Y-76690476D01*
X152702380Y-76595238D01*
X152702380Y-76404761D01*
X152654761Y-76309523D01*
X152607142Y-76261904D01*
X152511904Y-76214285D01*
X152273809Y-76214285D01*
X152178571Y-76261904D01*
X152130952Y-76309523D01*
X152083333Y-76404761D01*
X152083333Y-76595238D01*
X152130952Y-76690476D01*
X152178571Y-76738095D01*
X152273809Y-76785714D01*
G04 #@! TO.C,D5*
X149202380Y-77738095D02*
X148202380Y-77738095D01*
X148202380Y-77500000D01*
X148250000Y-77357142D01*
X148345238Y-77261904D01*
X148440476Y-77214285D01*
X148630952Y-77166666D01*
X148773809Y-77166666D01*
X148964285Y-77214285D01*
X149059523Y-77261904D01*
X149154761Y-77357142D01*
X149202380Y-77500000D01*
X149202380Y-77738095D01*
X148202380Y-76261904D02*
X148202380Y-76738095D01*
X148678571Y-76785714D01*
X148630952Y-76738095D01*
X148583333Y-76642857D01*
X148583333Y-76404761D01*
X148630952Y-76309523D01*
X148678571Y-76261904D01*
X148773809Y-76214285D01*
X149011904Y-76214285D01*
X149107142Y-76261904D01*
X149154761Y-76309523D01*
X149202380Y-76404761D01*
X149202380Y-76642857D01*
X149154761Y-76738095D01*
X149107142Y-76785714D01*
G04 #@! TO.C,D4*
X145702380Y-77738095D02*
X144702380Y-77738095D01*
X144702380Y-77500000D01*
X144750000Y-77357142D01*
X144845238Y-77261904D01*
X144940476Y-77214285D01*
X145130952Y-77166666D01*
X145273809Y-77166666D01*
X145464285Y-77214285D01*
X145559523Y-77261904D01*
X145654761Y-77357142D01*
X145702380Y-77500000D01*
X145702380Y-77738095D01*
X145035714Y-76309523D02*
X145702380Y-76309523D01*
X144654761Y-76547619D02*
X145369047Y-76785714D01*
X145369047Y-76166666D01*
G04 #@! TO.C,D3*
X142202380Y-77738095D02*
X141202380Y-77738095D01*
X141202380Y-77500000D01*
X141250000Y-77357142D01*
X141345238Y-77261904D01*
X141440476Y-77214285D01*
X141630952Y-77166666D01*
X141773809Y-77166666D01*
X141964285Y-77214285D01*
X142059523Y-77261904D01*
X142154761Y-77357142D01*
X142202380Y-77500000D01*
X142202380Y-77738095D01*
X141202380Y-76833333D02*
X141202380Y-76214285D01*
X141583333Y-76547619D01*
X141583333Y-76404761D01*
X141630952Y-76309523D01*
X141678571Y-76261904D01*
X141773809Y-76214285D01*
X142011904Y-76214285D01*
X142107142Y-76261904D01*
X142154761Y-76309523D01*
X142202380Y-76404761D01*
X142202380Y-76690476D01*
X142154761Y-76785714D01*
X142107142Y-76833333D01*
G04 #@! TO.C,D2*
X99272380Y-109988095D02*
X98272380Y-109988095D01*
X98272380Y-109750000D01*
X98320000Y-109607142D01*
X98415238Y-109511904D01*
X98510476Y-109464285D01*
X98700952Y-109416666D01*
X98843809Y-109416666D01*
X99034285Y-109464285D01*
X99129523Y-109511904D01*
X99224761Y-109607142D01*
X99272380Y-109750000D01*
X99272380Y-109988095D01*
X98367619Y-109035714D02*
X98320000Y-108988095D01*
X98272380Y-108892857D01*
X98272380Y-108654761D01*
X98320000Y-108559523D01*
X98367619Y-108511904D01*
X98462857Y-108464285D01*
X98558095Y-108464285D01*
X98700952Y-108511904D01*
X99272380Y-109083333D01*
X99272380Y-108464285D01*
G04 #@! TO.C,D1*
X96272380Y-109988095D02*
X95272380Y-109988095D01*
X95272380Y-109750000D01*
X95320000Y-109607142D01*
X95415238Y-109511904D01*
X95510476Y-109464285D01*
X95700952Y-109416666D01*
X95843809Y-109416666D01*
X96034285Y-109464285D01*
X96129523Y-109511904D01*
X96224761Y-109607142D01*
X96272380Y-109750000D01*
X96272380Y-109988095D01*
X96272380Y-108464285D02*
X96272380Y-109035714D01*
X96272380Y-108750000D02*
X95272380Y-108750000D01*
X95415238Y-108845238D01*
X95510476Y-108940476D01*
X95558095Y-109035714D01*
G04 #@! TO.C,C8*
X117607142Y-99416666D02*
X117654761Y-99464285D01*
X117702380Y-99607142D01*
X117702380Y-99702380D01*
X117654761Y-99845238D01*
X117559523Y-99940476D01*
X117464285Y-99988095D01*
X117273809Y-100035714D01*
X117130952Y-100035714D01*
X116940476Y-99988095D01*
X116845238Y-99940476D01*
X116750000Y-99845238D01*
X116702380Y-99702380D01*
X116702380Y-99607142D01*
X116750000Y-99464285D01*
X116797619Y-99416666D01*
X117130952Y-98845238D02*
X117083333Y-98940476D01*
X117035714Y-98988095D01*
X116940476Y-99035714D01*
X116892857Y-99035714D01*
X116797619Y-98988095D01*
X116750000Y-98940476D01*
X116702380Y-98845238D01*
X116702380Y-98654761D01*
X116750000Y-98559523D01*
X116797619Y-98511904D01*
X116892857Y-98464285D01*
X116940476Y-98464285D01*
X117035714Y-98511904D01*
X117083333Y-98559523D01*
X117130952Y-98654761D01*
X117130952Y-98845238D01*
X117178571Y-98940476D01*
X117226190Y-98988095D01*
X117321428Y-99035714D01*
X117511904Y-99035714D01*
X117607142Y-98988095D01*
X117654761Y-98940476D01*
X117702380Y-98845238D01*
X117702380Y-98654761D01*
X117654761Y-98559523D01*
X117607142Y-98511904D01*
X117511904Y-98464285D01*
X117321428Y-98464285D01*
X117226190Y-98511904D01*
X117178571Y-98559523D01*
X117130952Y-98654761D01*
G04 #@! TO.C,C7*
X105857142Y-99416666D02*
X105904761Y-99464285D01*
X105952380Y-99607142D01*
X105952380Y-99702380D01*
X105904761Y-99845238D01*
X105809523Y-99940476D01*
X105714285Y-99988095D01*
X105523809Y-100035714D01*
X105380952Y-100035714D01*
X105190476Y-99988095D01*
X105095238Y-99940476D01*
X105000000Y-99845238D01*
X104952380Y-99702380D01*
X104952380Y-99607142D01*
X105000000Y-99464285D01*
X105047619Y-99416666D01*
X104952380Y-99083333D02*
X104952380Y-98416666D01*
X105952380Y-98845238D01*
G04 #@! TO.C,C6*
X177357142Y-100166666D02*
X177404761Y-100214285D01*
X177452380Y-100357142D01*
X177452380Y-100452380D01*
X177404761Y-100595238D01*
X177309523Y-100690476D01*
X177214285Y-100738095D01*
X177023809Y-100785714D01*
X176880952Y-100785714D01*
X176690476Y-100738095D01*
X176595238Y-100690476D01*
X176500000Y-100595238D01*
X176452380Y-100452380D01*
X176452380Y-100357142D01*
X176500000Y-100214285D01*
X176547619Y-100166666D01*
X176452380Y-99309523D02*
X176452380Y-99500000D01*
X176500000Y-99595238D01*
X176547619Y-99642857D01*
X176690476Y-99738095D01*
X176880952Y-99785714D01*
X177261904Y-99785714D01*
X177357142Y-99738095D01*
X177404761Y-99690476D01*
X177452380Y-99595238D01*
X177452380Y-99404761D01*
X177404761Y-99309523D01*
X177357142Y-99261904D01*
X177261904Y-99214285D01*
X177023809Y-99214285D01*
X176928571Y-99261904D01*
X176880952Y-99309523D01*
X176833333Y-99404761D01*
X176833333Y-99595238D01*
X176880952Y-99690476D01*
X176928571Y-99738095D01*
X177023809Y-99785714D01*
G04 #@! TO.C,C5*
X181357142Y-100916666D02*
X181404761Y-100964285D01*
X181452380Y-101107142D01*
X181452380Y-101202380D01*
X181404761Y-101345238D01*
X181309523Y-101440476D01*
X181214285Y-101488095D01*
X181023809Y-101535714D01*
X180880952Y-101535714D01*
X180690476Y-101488095D01*
X180595238Y-101440476D01*
X180500000Y-101345238D01*
X180452380Y-101202380D01*
X180452380Y-101107142D01*
X180500000Y-100964285D01*
X180547619Y-100916666D01*
X180452380Y-100011904D02*
X180452380Y-100488095D01*
X180928571Y-100535714D01*
X180880952Y-100488095D01*
X180833333Y-100392857D01*
X180833333Y-100154761D01*
X180880952Y-100059523D01*
X180928571Y-100011904D01*
X181023809Y-99964285D01*
X181261904Y-99964285D01*
X181357142Y-100011904D01*
X181404761Y-100059523D01*
X181452380Y-100154761D01*
X181452380Y-100392857D01*
X181404761Y-100488095D01*
X181357142Y-100535714D01*
G04 #@! TO.C,C3*
X113857142Y-83166666D02*
X113904761Y-83214285D01*
X113952380Y-83357142D01*
X113952380Y-83452380D01*
X113904761Y-83595238D01*
X113809523Y-83690476D01*
X113714285Y-83738095D01*
X113523809Y-83785714D01*
X113380952Y-83785714D01*
X113190476Y-83738095D01*
X113095238Y-83690476D01*
X113000000Y-83595238D01*
X112952380Y-83452380D01*
X112952380Y-83357142D01*
X113000000Y-83214285D01*
X113047619Y-83166666D01*
X112952380Y-82833333D02*
X112952380Y-82214285D01*
X113333333Y-82547619D01*
X113333333Y-82404761D01*
X113380952Y-82309523D01*
X113428571Y-82261904D01*
X113523809Y-82214285D01*
X113761904Y-82214285D01*
X113857142Y-82261904D01*
X113904761Y-82309523D01*
X113952380Y-82404761D01*
X113952380Y-82690476D01*
X113904761Y-82785714D01*
X113857142Y-82833333D01*
G04 #@! TO.C,C1*
X153107142Y-99916666D02*
X153154761Y-99964285D01*
X153202380Y-100107142D01*
X153202380Y-100202380D01*
X153154761Y-100345238D01*
X153059523Y-100440476D01*
X152964285Y-100488095D01*
X152773809Y-100535714D01*
X152630952Y-100535714D01*
X152440476Y-100488095D01*
X152345238Y-100440476D01*
X152250000Y-100345238D01*
X152202380Y-100202380D01*
X152202380Y-100107142D01*
X152250000Y-99964285D01*
X152297619Y-99916666D01*
X153202380Y-98964285D02*
X153202380Y-99535714D01*
X153202380Y-99250000D02*
X152202380Y-99250000D01*
X152345238Y-99345238D01*
X152440476Y-99440476D01*
X152488095Y-99535714D01*
G04 #@! TD*
M02*
