G04 #@! TF.GenerationSoftware,KiCad,Pcbnew,(5.1.8)-1*
G04 #@! TF.CreationDate,2021-12-10T10:53:11+02:00*
G04 #@! TF.ProjectId,controller,636f6e74-726f-46c6-9c65-722e6b696361,rev?*
G04 #@! TF.SameCoordinates,Original*
G04 #@! TF.FileFunction,Legend,Bot*
G04 #@! TF.FilePolarity,Positive*
%FSLAX46Y46*%
G04 Gerber Fmt 4.6, Leading zero omitted, Abs format (unit mm)*
G04 Created by KiCad (PCBNEW (5.1.8)-1) date 2021-12-10 10:53:11*
%MOMM*%
%LPD*%
G01*
G04 APERTURE LIST*
%ADD10C,0.300000*%
G04 APERTURE END LIST*
D10*
X155050000Y-59378571D02*
X154692857Y-60878571D01*
X154407142Y-59807142D01*
X154121428Y-60878571D01*
X153764285Y-59378571D01*
X153264285Y-60450000D02*
X152550000Y-60450000D01*
X153407142Y-60878571D02*
X152907142Y-59378571D01*
X152407142Y-60878571D01*
X151050000Y-60878571D02*
X151550000Y-60164285D01*
X151907142Y-60878571D02*
X151907142Y-59378571D01*
X151335714Y-59378571D01*
X151192857Y-59450000D01*
X151121428Y-59521428D01*
X151050000Y-59664285D01*
X151050000Y-59878571D01*
X151121428Y-60021428D01*
X151192857Y-60092857D01*
X151335714Y-60164285D01*
X151907142Y-60164285D01*
X150407142Y-60878571D02*
X150407142Y-59378571D01*
X149550000Y-60878571D01*
X149550000Y-59378571D01*
X148835714Y-60878571D02*
X148835714Y-59378571D01*
X148121428Y-60878571D02*
X148121428Y-59378571D01*
X147264285Y-60878571D01*
X147264285Y-59378571D01*
X145764285Y-59450000D02*
X145907142Y-59378571D01*
X146121428Y-59378571D01*
X146335714Y-59450000D01*
X146478571Y-59592857D01*
X146550000Y-59735714D01*
X146621428Y-60021428D01*
X146621428Y-60235714D01*
X146550000Y-60521428D01*
X146478571Y-60664285D01*
X146335714Y-60807142D01*
X146121428Y-60878571D01*
X145978571Y-60878571D01*
X145764285Y-60807142D01*
X145692857Y-60735714D01*
X145692857Y-60235714D01*
X145978571Y-60235714D01*
X145050000Y-60735714D02*
X144978571Y-60807142D01*
X145050000Y-60878571D01*
X145121428Y-60807142D01*
X145050000Y-60735714D01*
X145050000Y-60878571D01*
X145050000Y-60307142D02*
X145121428Y-59450000D01*
X145050000Y-59378571D01*
X144978571Y-59450000D01*
X145050000Y-60307142D01*
X145050000Y-59378571D01*
X143192857Y-60878571D02*
X143192857Y-59378571D01*
X143192857Y-60092857D02*
X142335714Y-60092857D01*
X142335714Y-60878571D02*
X142335714Y-59378571D01*
X141621428Y-60878571D02*
X141621428Y-59878571D01*
X141621428Y-59378571D02*
X141692857Y-59450000D01*
X141621428Y-59521428D01*
X141550000Y-59450000D01*
X141621428Y-59378571D01*
X141621428Y-59521428D01*
X140264285Y-59878571D02*
X140264285Y-61092857D01*
X140335714Y-61235714D01*
X140407142Y-61307142D01*
X140549999Y-61378571D01*
X140764285Y-61378571D01*
X140907142Y-61307142D01*
X140264285Y-60807142D02*
X140407142Y-60878571D01*
X140692857Y-60878571D01*
X140835714Y-60807142D01*
X140907142Y-60735714D01*
X140978571Y-60592857D01*
X140978571Y-60164285D01*
X140907142Y-60021428D01*
X140835714Y-59950000D01*
X140692857Y-59878571D01*
X140407142Y-59878571D01*
X140264285Y-59950000D01*
X139549999Y-60878571D02*
X139549999Y-59378571D01*
X138907142Y-60878571D02*
X138907142Y-60092857D01*
X138978571Y-59950000D01*
X139121428Y-59878571D01*
X139335714Y-59878571D01*
X139478571Y-59950000D01*
X139549999Y-60021428D01*
X137264285Y-59378571D02*
X136764285Y-60878571D01*
X136264285Y-59378571D01*
X135549999Y-60878571D02*
X135692857Y-60807142D01*
X135764285Y-60735714D01*
X135835714Y-60592857D01*
X135835714Y-60164285D01*
X135764285Y-60021428D01*
X135692857Y-59950000D01*
X135549999Y-59878571D01*
X135335714Y-59878571D01*
X135192857Y-59950000D01*
X135121428Y-60021428D01*
X135049999Y-60164285D01*
X135049999Y-60592857D01*
X135121428Y-60735714D01*
X135192857Y-60807142D01*
X135335714Y-60878571D01*
X135549999Y-60878571D01*
X134192857Y-60878571D02*
X134335714Y-60807142D01*
X134407142Y-60664285D01*
X134407142Y-59378571D01*
X133835714Y-59878571D02*
X133264285Y-59878571D01*
X133621428Y-59378571D02*
X133621428Y-60664285D01*
X133549999Y-60807142D01*
X133407142Y-60878571D01*
X133264285Y-60878571D01*
X132121428Y-60878571D02*
X132121428Y-60092857D01*
X132192857Y-59950000D01*
X132335714Y-59878571D01*
X132621428Y-59878571D01*
X132764285Y-59950000D01*
X132121428Y-60807142D02*
X132264285Y-60878571D01*
X132621428Y-60878571D01*
X132764285Y-60807142D01*
X132835714Y-60664285D01*
X132835714Y-60521428D01*
X132764285Y-60378571D01*
X132621428Y-60307142D01*
X132264285Y-60307142D01*
X132121428Y-60235714D01*
X130764285Y-59878571D02*
X130764285Y-61092857D01*
X130835714Y-61235714D01*
X130907142Y-61307142D01*
X131049999Y-61378571D01*
X131264285Y-61378571D01*
X131407142Y-61307142D01*
X130764285Y-60807142D02*
X130907142Y-60878571D01*
X131192857Y-60878571D01*
X131335714Y-60807142D01*
X131407142Y-60735714D01*
X131478571Y-60592857D01*
X131478571Y-60164285D01*
X131407142Y-60021428D01*
X131335714Y-59950000D01*
X131192857Y-59878571D01*
X130907142Y-59878571D01*
X130764285Y-59950000D01*
X129478571Y-60807142D02*
X129621428Y-60878571D01*
X129907142Y-60878571D01*
X130049999Y-60807142D01*
X130121428Y-60664285D01*
X130121428Y-60092857D01*
X130049999Y-59950000D01*
X129907142Y-59878571D01*
X129621428Y-59878571D01*
X129478571Y-59950000D01*
X129407142Y-60092857D01*
X129407142Y-60235714D01*
X130121428Y-60378571D01*
X127621428Y-59878571D02*
X127621428Y-61378571D01*
X127621428Y-59950000D02*
X127478571Y-59878571D01*
X127192857Y-59878571D01*
X127049999Y-59950000D01*
X126978571Y-60021428D01*
X126907142Y-60164285D01*
X126907142Y-60592857D01*
X126978571Y-60735714D01*
X127049999Y-60807142D01*
X127192857Y-60878571D01*
X127478571Y-60878571D01*
X127621428Y-60807142D01*
X126264285Y-60878571D02*
X126264285Y-59878571D01*
X126264285Y-60164285D02*
X126192857Y-60021428D01*
X126121428Y-59950000D01*
X125978571Y-59878571D01*
X125835714Y-59878571D01*
X124764285Y-60807142D02*
X124907142Y-60878571D01*
X125192857Y-60878571D01*
X125335714Y-60807142D01*
X125407142Y-60664285D01*
X125407142Y-60092857D01*
X125335714Y-59950000D01*
X125192857Y-59878571D01*
X124907142Y-59878571D01*
X124764285Y-59950000D01*
X124692857Y-60092857D01*
X124692857Y-60235714D01*
X125407142Y-60378571D01*
X124121428Y-60807142D02*
X123978571Y-60878571D01*
X123692857Y-60878571D01*
X123549999Y-60807142D01*
X123478571Y-60664285D01*
X123478571Y-60592857D01*
X123549999Y-60450000D01*
X123692857Y-60378571D01*
X123907142Y-60378571D01*
X124049999Y-60307142D01*
X124121428Y-60164285D01*
X124121428Y-60092857D01*
X124049999Y-59950000D01*
X123907142Y-59878571D01*
X123692857Y-59878571D01*
X123549999Y-59950000D01*
X122264285Y-60807142D02*
X122407142Y-60878571D01*
X122692857Y-60878571D01*
X122835714Y-60807142D01*
X122907142Y-60664285D01*
X122907142Y-60092857D01*
X122835714Y-59950000D01*
X122692857Y-59878571D01*
X122407142Y-59878571D01*
X122264285Y-59950000D01*
X122192857Y-60092857D01*
X122192857Y-60235714D01*
X122907142Y-60378571D01*
X121549999Y-59878571D02*
X121549999Y-60878571D01*
X121549999Y-60021428D02*
X121478571Y-59950000D01*
X121335714Y-59878571D01*
X121121428Y-59878571D01*
X120978571Y-59950000D01*
X120907142Y-60092857D01*
X120907142Y-60878571D01*
X120407142Y-59878571D02*
X119835714Y-59878571D01*
X120192857Y-59378571D02*
X120192857Y-60664285D01*
X120121428Y-60807142D01*
X119978571Y-60878571D01*
X119835714Y-60878571D01*
X117621428Y-60807142D02*
X117764285Y-60878571D01*
X118049999Y-60878571D01*
X118192857Y-60807142D01*
X118264285Y-60664285D01*
X118264285Y-60092857D01*
X118192857Y-59950000D01*
X118049999Y-59878571D01*
X117764285Y-59878571D01*
X117621428Y-59950000D01*
X117549999Y-60092857D01*
X117549999Y-60235714D01*
X118264285Y-60378571D01*
X117049999Y-59878571D02*
X116692857Y-60878571D01*
X116335714Y-59878571D01*
X115192857Y-60807142D02*
X115335714Y-60878571D01*
X115621428Y-60878571D01*
X115764285Y-60807142D01*
X115835714Y-60664285D01*
X115835714Y-60092857D01*
X115764285Y-59950000D01*
X115621428Y-59878571D01*
X115335714Y-59878571D01*
X115192857Y-59950000D01*
X115121428Y-60092857D01*
X115121428Y-60235714D01*
X115835714Y-60378571D01*
X114478571Y-59878571D02*
X114478571Y-60878571D01*
X114478571Y-60021428D02*
X114407142Y-59950000D01*
X114264285Y-59878571D01*
X114049999Y-59878571D01*
X113907142Y-59950000D01*
X113835714Y-60092857D01*
X113835714Y-60878571D01*
X112121428Y-59878571D02*
X111835714Y-60878571D01*
X111549999Y-60164285D01*
X111264285Y-60878571D01*
X110978571Y-59878571D01*
X110407142Y-60878571D02*
X110407142Y-59378571D01*
X109764285Y-60878571D02*
X109764285Y-60092857D01*
X109835714Y-59950000D01*
X109978571Y-59878571D01*
X110192857Y-59878571D01*
X110335714Y-59950000D01*
X110407142Y-60021428D01*
X108478571Y-60807142D02*
X108621428Y-60878571D01*
X108907142Y-60878571D01*
X109049999Y-60807142D01*
X109121428Y-60664285D01*
X109121428Y-60092857D01*
X109049999Y-59950000D01*
X108907142Y-59878571D01*
X108621428Y-59878571D01*
X108478571Y-59950000D01*
X108407142Y-60092857D01*
X108407142Y-60235714D01*
X109121428Y-60378571D01*
X107764285Y-59878571D02*
X107764285Y-60878571D01*
X107764285Y-60021428D02*
X107692857Y-59950000D01*
X107549999Y-59878571D01*
X107335714Y-59878571D01*
X107192857Y-59950000D01*
X107121428Y-60092857D01*
X107121428Y-60878571D01*
X105478571Y-59878571D02*
X104907142Y-59878571D01*
X105264285Y-59378571D02*
X105264285Y-60664285D01*
X105192857Y-60807142D01*
X105049999Y-60878571D01*
X104907142Y-60878571D01*
X104407142Y-60878571D02*
X104407142Y-59878571D01*
X104407142Y-60164285D02*
X104335714Y-60021428D01*
X104264285Y-59950000D01*
X104121428Y-59878571D01*
X103978571Y-59878571D01*
X103478571Y-60878571D02*
X103478571Y-59878571D01*
X103478571Y-59378571D02*
X103549999Y-59450000D01*
X103478571Y-59521428D01*
X103407142Y-59450000D01*
X103478571Y-59378571D01*
X103478571Y-59521428D01*
X102121428Y-60878571D02*
X102121428Y-60092857D01*
X102192857Y-59950000D01*
X102335714Y-59878571D01*
X102621428Y-59878571D01*
X102764285Y-59950000D01*
X102121428Y-60807142D02*
X102264285Y-60878571D01*
X102621428Y-60878571D01*
X102764285Y-60807142D01*
X102835714Y-60664285D01*
X102835714Y-60521428D01*
X102764285Y-60378571D01*
X102621428Y-60307142D01*
X102264285Y-60307142D01*
X102121428Y-60235714D01*
X100764285Y-60807142D02*
X100907142Y-60878571D01*
X101192857Y-60878571D01*
X101335714Y-60807142D01*
X101407142Y-60735714D01*
X101478571Y-60592857D01*
X101478571Y-60164285D01*
X101407142Y-60021428D01*
X101335714Y-59950000D01*
X101192857Y-59878571D01*
X100907142Y-59878571D01*
X100764285Y-59950000D01*
X100192857Y-60807142D02*
X100049999Y-60878571D01*
X99764285Y-60878571D01*
X99621428Y-60807142D01*
X99549999Y-60664285D01*
X99549999Y-60592857D01*
X99621428Y-60450000D01*
X99764285Y-60378571D01*
X99978571Y-60378571D01*
X100121428Y-60307142D01*
X100192857Y-60164285D01*
X100192857Y-60092857D01*
X100121428Y-59950000D01*
X99978571Y-59878571D01*
X99764285Y-59878571D01*
X99621428Y-59950000D01*
X97121428Y-60878571D02*
X97121428Y-60092857D01*
X97192857Y-59950000D01*
X97335714Y-59878571D01*
X97621428Y-59878571D01*
X97764285Y-59950000D01*
X97121428Y-60807142D02*
X97264285Y-60878571D01*
X97621428Y-60878571D01*
X97764285Y-60807142D01*
X97835714Y-60664285D01*
X97835714Y-60521428D01*
X97764285Y-60378571D01*
X97621428Y-60307142D01*
X97264285Y-60307142D01*
X97121428Y-60235714D01*
X96407142Y-60878571D02*
X96407142Y-59878571D01*
X96407142Y-60164285D02*
X96335714Y-60021428D01*
X96264285Y-59950000D01*
X96121428Y-59878571D01*
X95978571Y-59878571D01*
X94907142Y-60807142D02*
X95049999Y-60878571D01*
X95335714Y-60878571D01*
X95478571Y-60807142D01*
X95549999Y-60664285D01*
X95549999Y-60092857D01*
X95478571Y-59950000D01*
X95335714Y-59878571D01*
X95049999Y-59878571D01*
X94907142Y-59950000D01*
X94835714Y-60092857D01*
X94835714Y-60235714D01*
X95549999Y-60378571D01*
X93264285Y-59878571D02*
X92692857Y-59878571D01*
X93049999Y-59378571D02*
X93049999Y-60664285D01*
X92978571Y-60807142D01*
X92835714Y-60878571D01*
X92692857Y-60878571D01*
X91549999Y-59878571D02*
X91549999Y-60878571D01*
X92192857Y-59878571D02*
X92192857Y-60664285D01*
X92121428Y-60807142D01*
X91978571Y-60878571D01*
X91764285Y-60878571D01*
X91621428Y-60807142D01*
X91549999Y-60735714D01*
X90835714Y-60878571D02*
X90835714Y-59878571D01*
X90835714Y-60164285D02*
X90764285Y-60021428D01*
X90692857Y-59950000D01*
X90549999Y-59878571D01*
X90407142Y-59878571D01*
X89907142Y-59878571D02*
X89907142Y-60878571D01*
X89907142Y-60021428D02*
X89835714Y-59950000D01*
X89692857Y-59878571D01*
X89478571Y-59878571D01*
X89335714Y-59950000D01*
X89264285Y-60092857D01*
X89264285Y-60878571D01*
X87978571Y-60807142D02*
X88121428Y-60878571D01*
X88407142Y-60878571D01*
X88549999Y-60807142D01*
X88621428Y-60664285D01*
X88621428Y-60092857D01*
X88549999Y-59950000D01*
X88407142Y-59878571D01*
X88121428Y-59878571D01*
X87978571Y-59950000D01*
X87907142Y-60092857D01*
X87907142Y-60235714D01*
X88621428Y-60378571D01*
X86621428Y-60878571D02*
X86621428Y-59378571D01*
X86621428Y-60807142D02*
X86764285Y-60878571D01*
X87049999Y-60878571D01*
X87192857Y-60807142D01*
X87264285Y-60735714D01*
X87335714Y-60592857D01*
X87335714Y-60164285D01*
X87264285Y-60021428D01*
X87192857Y-59950000D01*
X87049999Y-59878571D01*
X86764285Y-59878571D01*
X86621428Y-59950000D01*
X84549999Y-60878571D02*
X84692857Y-60807142D01*
X84764285Y-60735714D01*
X84835714Y-60592857D01*
X84835714Y-60164285D01*
X84764285Y-60021428D01*
X84692857Y-59950000D01*
X84549999Y-59878571D01*
X84335714Y-59878571D01*
X84192857Y-59950000D01*
X84121428Y-60021428D01*
X84049999Y-60164285D01*
X84049999Y-60592857D01*
X84121428Y-60735714D01*
X84192857Y-60807142D01*
X84335714Y-60878571D01*
X84549999Y-60878571D01*
X83621428Y-59878571D02*
X83049999Y-59878571D01*
X83407142Y-60878571D02*
X83407142Y-59592857D01*
X83335714Y-59450000D01*
X83192857Y-59378571D01*
X83049999Y-59378571D01*
X82764285Y-59878571D02*
X82192857Y-59878571D01*
X82549999Y-60878571D02*
X82549999Y-59592857D01*
X82478571Y-59450000D01*
X82335714Y-59378571D01*
X82192857Y-59378571D01*
X81692857Y-60735714D02*
X81621428Y-60807142D01*
X81692857Y-60878571D01*
X81764285Y-60807142D01*
X81692857Y-60735714D01*
X81692857Y-60878571D01*
X81692857Y-60307142D02*
X81764285Y-59450000D01*
X81692857Y-59378571D01*
X81621428Y-59450000D01*
X81692857Y-60307142D01*
X81692857Y-59378571D01*
X112428571Y-86892857D02*
X112428571Y-87821428D01*
X113000000Y-87321428D01*
X113000000Y-87535714D01*
X113071428Y-87678571D01*
X113142857Y-87750000D01*
X113285714Y-87821428D01*
X113642857Y-87821428D01*
X113785714Y-87750000D01*
X113857142Y-87678571D01*
X113928571Y-87535714D01*
X113928571Y-87107142D01*
X113857142Y-86964285D01*
X113785714Y-86892857D01*
X112428571Y-88250000D02*
X113928571Y-88750000D01*
X112428571Y-89250000D01*
X112428571Y-89607142D02*
X112428571Y-90535714D01*
X113000000Y-90035714D01*
X113000000Y-90250000D01*
X113071428Y-90392857D01*
X113142857Y-90464285D01*
X113285714Y-90535714D01*
X113642857Y-90535714D01*
X113785714Y-90464285D01*
X113857142Y-90392857D01*
X113928571Y-90250000D01*
X113928571Y-89821428D01*
X113857142Y-89678571D01*
X113785714Y-89607142D01*
X112500000Y-72107142D02*
X112428571Y-71964285D01*
X112428571Y-71750000D01*
X112500000Y-71535714D01*
X112642857Y-71392857D01*
X112785714Y-71321428D01*
X113071428Y-71250000D01*
X113285714Y-71250000D01*
X113571428Y-71321428D01*
X113714285Y-71392857D01*
X113857142Y-71535714D01*
X113928571Y-71750000D01*
X113928571Y-71892857D01*
X113857142Y-72107142D01*
X113785714Y-72178571D01*
X113285714Y-72178571D01*
X113285714Y-71892857D01*
X113928571Y-72821428D02*
X112428571Y-72821428D01*
X113928571Y-73678571D01*
X112428571Y-73678571D01*
X113928571Y-74392857D02*
X112428571Y-74392857D01*
X112428571Y-74750000D01*
X112500000Y-74964285D01*
X112642857Y-75107142D01*
X112785714Y-75178571D01*
X113071428Y-75250000D01*
X113285714Y-75250000D01*
X113571428Y-75178571D01*
X113714285Y-75107142D01*
X113857142Y-74964285D01*
X113928571Y-74750000D01*
X113928571Y-74392857D01*
X53521428Y-82414285D02*
X53521428Y-83271428D01*
X53521428Y-82842857D02*
X55021428Y-82842857D01*
X54807142Y-82985714D01*
X54664285Y-83128571D01*
X54592857Y-83271428D01*
X53950000Y-81842857D02*
X53950000Y-81128571D01*
X53521428Y-81985714D02*
X55021428Y-81485714D01*
X53521428Y-80985714D01*
X44621428Y-82100000D02*
X44621428Y-81957142D01*
X44550000Y-81814285D01*
X44478571Y-81742857D01*
X44335714Y-81671428D01*
X44050000Y-81600000D01*
X43692857Y-81600000D01*
X43407142Y-81671428D01*
X43264285Y-81742857D01*
X43192857Y-81814285D01*
X43121428Y-81957142D01*
X43121428Y-82100000D01*
X43192857Y-82242857D01*
X43264285Y-82314285D01*
X43407142Y-82385714D01*
X43692857Y-82457142D01*
X44050000Y-82457142D01*
X44335714Y-82385714D01*
X44478571Y-82314285D01*
X44550000Y-82242857D01*
X44621428Y-82100000D01*
X43264285Y-80957142D02*
X43192857Y-80885714D01*
X43121428Y-80957142D01*
X43192857Y-81028571D01*
X43264285Y-80957142D01*
X43121428Y-80957142D01*
X44478571Y-80314285D02*
X44550000Y-80242857D01*
X44621428Y-80100000D01*
X44621428Y-79742857D01*
X44550000Y-79600000D01*
X44478571Y-79528571D01*
X44335714Y-79457142D01*
X44192857Y-79457142D01*
X43978571Y-79528571D01*
X43121428Y-80385714D01*
X43121428Y-79457142D01*
X44621428Y-78100000D02*
X44621428Y-78814285D01*
X43907142Y-78885714D01*
X43978571Y-78814285D01*
X44050000Y-78671428D01*
X44050000Y-78314285D01*
X43978571Y-78171428D01*
X43907142Y-78100000D01*
X43764285Y-78028571D01*
X43407142Y-78028571D01*
X43264285Y-78100000D01*
X43192857Y-78171428D01*
X43121428Y-78314285D01*
X43121428Y-78671428D01*
X43192857Y-78814285D01*
X43264285Y-78885714D01*
X43550000Y-77457142D02*
X43550000Y-76742857D01*
X43121428Y-77600000D02*
X44621428Y-77100000D01*
X43121428Y-76600000D01*
X81178571Y-75964285D02*
X81178571Y-75250000D01*
X79678571Y-75250000D01*
X81178571Y-85571428D02*
X79678571Y-85571428D01*
X81178571Y-86428571D01*
X79678571Y-86428571D01*
X104214285Y-33178571D02*
X104214285Y-34178571D01*
X104571428Y-32607142D02*
X104928571Y-33678571D01*
X104000000Y-33678571D01*
X84928571Y-32821428D02*
X84857142Y-32750000D01*
X84714285Y-32678571D01*
X84357142Y-32678571D01*
X84214285Y-32750000D01*
X84142857Y-32821428D01*
X84071428Y-32964285D01*
X84071428Y-33107142D01*
X84142857Y-33321428D01*
X85000000Y-34178571D01*
X84071428Y-34178571D01*
X144642857Y-33321428D02*
X144785714Y-33250000D01*
X144857142Y-33178571D01*
X144928571Y-33035714D01*
X144928571Y-32964285D01*
X144857142Y-32821428D01*
X144785714Y-32750000D01*
X144642857Y-32678571D01*
X144357142Y-32678571D01*
X144214285Y-32750000D01*
X144142857Y-32821428D01*
X144071428Y-32964285D01*
X144071428Y-33035714D01*
X144142857Y-33178571D01*
X144214285Y-33250000D01*
X144357142Y-33321428D01*
X144642857Y-33321428D01*
X144785714Y-33392857D01*
X144857142Y-33464285D01*
X144928571Y-33607142D01*
X144928571Y-33892857D01*
X144857142Y-34035714D01*
X144785714Y-34107142D01*
X144642857Y-34178571D01*
X144357142Y-34178571D01*
X144214285Y-34107142D01*
X144142857Y-34035714D01*
X144071428Y-33892857D01*
X144071428Y-33607142D01*
X144142857Y-33464285D01*
X144214285Y-33392857D01*
X144357142Y-33321428D01*
X165035714Y-34178571D02*
X165892857Y-34178571D01*
X165464285Y-34178571D02*
X165464285Y-32678571D01*
X165607142Y-32892857D01*
X165750000Y-33035714D01*
X165892857Y-33107142D01*
X164107142Y-32678571D02*
X163964285Y-32678571D01*
X163821428Y-32750000D01*
X163750000Y-32821428D01*
X163678571Y-32964285D01*
X163607142Y-33250000D01*
X163607142Y-33607142D01*
X163678571Y-33892857D01*
X163750000Y-34035714D01*
X163821428Y-34107142D01*
X163964285Y-34178571D01*
X164107142Y-34178571D01*
X164250000Y-34107142D01*
X164321428Y-34035714D01*
X164392857Y-33892857D01*
X164464285Y-33607142D01*
X164464285Y-33250000D01*
X164392857Y-32964285D01*
X164321428Y-32821428D01*
X164250000Y-32750000D01*
X164107142Y-32678571D01*
X114142857Y-32678571D02*
X114857142Y-32678571D01*
X114928571Y-33392857D01*
X114857142Y-33321428D01*
X114714285Y-33250000D01*
X114357142Y-33250000D01*
X114214285Y-33321428D01*
X114142857Y-33392857D01*
X114071428Y-33535714D01*
X114071428Y-33892857D01*
X114142857Y-34035714D01*
X114214285Y-34107142D01*
X114357142Y-34178571D01*
X114714285Y-34178571D01*
X114857142Y-34107142D01*
X114928571Y-34035714D01*
X74071428Y-34178571D02*
X74928571Y-34178571D01*
X74500000Y-34178571D02*
X74500000Y-32678571D01*
X74642857Y-32892857D01*
X74785714Y-33035714D01*
X74928571Y-33107142D01*
X154785714Y-34178571D02*
X154500000Y-34178571D01*
X154357142Y-34107142D01*
X154285714Y-34035714D01*
X154142857Y-33821428D01*
X154071428Y-33535714D01*
X154071428Y-32964285D01*
X154142857Y-32821428D01*
X154214285Y-32750000D01*
X154357142Y-32678571D01*
X154642857Y-32678571D01*
X154785714Y-32750000D01*
X154857142Y-32821428D01*
X154928571Y-32964285D01*
X154928571Y-33321428D01*
X154857142Y-33464285D01*
X154785714Y-33535714D01*
X154642857Y-33607142D01*
X154357142Y-33607142D01*
X154214285Y-33535714D01*
X154142857Y-33464285D01*
X154071428Y-33321428D01*
X135000000Y-32678571D02*
X134000000Y-32678571D01*
X134642857Y-34178571D01*
X124214285Y-32678571D02*
X124500000Y-32678571D01*
X124642857Y-32750000D01*
X124714285Y-32821428D01*
X124857142Y-33035714D01*
X124928571Y-33321428D01*
X124928571Y-33892857D01*
X124857142Y-34035714D01*
X124785714Y-34107142D01*
X124642857Y-34178571D01*
X124357142Y-34178571D01*
X124214285Y-34107142D01*
X124142857Y-34035714D01*
X124071428Y-33892857D01*
X124071428Y-33535714D01*
X124142857Y-33392857D01*
X124214285Y-33321428D01*
X124357142Y-33250000D01*
X124642857Y-33250000D01*
X124785714Y-33321428D01*
X124857142Y-33392857D01*
X124928571Y-33535714D01*
X95000000Y-32678571D02*
X94071428Y-32678571D01*
X94571428Y-33250000D01*
X94357142Y-33250000D01*
X94214285Y-33321428D01*
X94142857Y-33392857D01*
X94071428Y-33535714D01*
X94071428Y-33892857D01*
X94142857Y-34035714D01*
X94214285Y-34107142D01*
X94357142Y-34178571D01*
X94785714Y-34178571D01*
X94928571Y-34107142D01*
X95000000Y-34035714D01*
X161785714Y-34178571D02*
X162500000Y-34178571D01*
X162500000Y-32678571D01*
X167678571Y-34178571D02*
X167678571Y-32678571D01*
X166821428Y-34178571D01*
X166821428Y-32678571D01*
X151535714Y-34178571D02*
X152250000Y-34178571D01*
X152250000Y-32678571D01*
X157428571Y-34178571D02*
X157428571Y-32678571D01*
X156571428Y-34178571D01*
X156571428Y-32678571D01*
X141535714Y-34178571D02*
X142250000Y-34178571D01*
X142250000Y-32678571D01*
X147428571Y-34178571D02*
X147428571Y-32678571D01*
X146571428Y-34178571D01*
X146571428Y-32678571D01*
X131535714Y-34178571D02*
X132250000Y-34178571D01*
X132250000Y-32678571D01*
X137428571Y-34178571D02*
X137428571Y-32678571D01*
X136571428Y-34178571D01*
X136571428Y-32678571D01*
X121535714Y-34178571D02*
X122250000Y-34178571D01*
X122250000Y-32678571D01*
X127428571Y-34178571D02*
X127428571Y-32678571D01*
X126571428Y-34178571D01*
X126571428Y-32678571D01*
X111535714Y-34178571D02*
X112250000Y-34178571D01*
X112250000Y-32678571D01*
X117428571Y-34178571D02*
X117428571Y-32678571D01*
X116571428Y-34178571D01*
X116571428Y-32678571D01*
X107428571Y-34178571D02*
X107428571Y-32678571D01*
X106571428Y-34178571D01*
X106571428Y-32678571D01*
X101535714Y-34178571D02*
X102250000Y-34178571D01*
X102250000Y-32678571D01*
X91535714Y-34178571D02*
X92250000Y-34178571D01*
X92250000Y-32678571D01*
X97428571Y-34178571D02*
X97428571Y-32678571D01*
X96571428Y-34178571D01*
X96571428Y-32678571D01*
X81535714Y-34178571D02*
X82250000Y-34178571D01*
X82250000Y-32678571D01*
X87428571Y-34178571D02*
X87428571Y-32678571D01*
X86571428Y-34178571D01*
X86571428Y-32678571D01*
X71535714Y-34178571D02*
X72250000Y-34178571D01*
X72250000Y-32678571D01*
X77428571Y-34178571D02*
X77428571Y-32678571D01*
X76571428Y-34178571D01*
X76571428Y-32678571D01*
X50535714Y-34428571D02*
X51250000Y-34428571D01*
X51250000Y-32928571D01*
X56928571Y-34428571D02*
X56928571Y-32928571D01*
X56071428Y-34428571D01*
X56071428Y-32928571D01*
M02*
