M48
; DRILL file {KiCad (5.1.8)-1} date 11/11/21 09:43:32
; FORMAT={-:-/ absolute / inch / decimal}
; #@! TF.CreationDate,2021-11-11T09:43:32+02:00
; #@! TF.GenerationSoftware,Kicad,Pcbnew,(5.1.8)-1
; #@! TF.FileFunction,Plated,1,2,PTH
FMAT,2
INCH
T1C0.0118
T2C0.0315
T3C0.0394
T4C0.0512
T5C0.0591
%
G90
G05
T1
X2.2933Y-2.5886
X2.4902Y-2.5886
X2.5886Y-2.5886
X2.8051Y-2.5886
X3.002Y-2.5886
X3.1102Y-2.5886
X3.3169Y-2.5886
X3.5138Y-2.5886
X3.622Y-2.5886
X3.7894Y-4.3307
X3.8287Y-2.5886
X3.9075Y-4.3307
X4.0354Y-2.5886
X4.124Y-2.5886
X4.1634Y-3.9272
X4.1732Y-4.0945
X4.252Y-2.5886
X4.3504Y-3.6811
X4.4488Y-3.9665
X4.4685Y-3.6811
X4.5472Y-2.5886
X4.5571Y-3.061
X4.5571Y-3.0906
X4.5571Y-3.1201
X4.5571Y-3.1496
X4.5571Y-3.9272
X4.5866Y-3.061
X4.5866Y-3.0906
X4.5866Y-3.1201
X4.5866Y-3.1496
X4.6161Y-3.061
X4.6161Y-3.0906
X4.6161Y-3.1201
X4.6161Y-3.1496
X4.6161Y-3.9272
X4.6457Y-2.5886
X4.6654Y-3.4646
X4.6654Y-3.4941
X4.6654Y-3.5236
X4.6949Y-3.4646
X4.6949Y-3.4941
X4.6949Y-3.5236
X4.7244Y-3.4646
X4.7244Y-3.4941
X4.7244Y-3.5236
X4.7638Y-2.5886
X5.0098Y-2.6575
X5.0689Y-4.0945
X5.1083Y-2.6575
X5.1969Y-3.937
X5.3248Y-2.6575
X5.5512Y-4.1142
X5.5709Y-2.5886
X5.5906Y-4.1142
X5.6299Y-4.124
X5.6496Y-2.9528
X5.6693Y-2.5886
X5.6693Y-4.2323
X5.7874Y-2.5984
X5.7874Y-2.9528
X5.8661Y-3.2087
X5.8661Y-3.248
X5.8661Y-3.2874
X5.9252Y-2.9528
X5.9843Y-3.4055
X5.9843Y-3.4449
X5.9843Y-3.8386
X6.0433Y-3.8484
X6.0531Y-3.75
X6.0531Y-3.937
X6.0531Y-4.065
X6.063Y-2.9528
X6.063Y-3.9862
X6.0827Y-2.5886
X6.0925Y-2.7559
X6.1122Y-3.4055
X6.122Y-2.9331
X6.124Y-2.7559
X6.1319Y-3.8091
X6.1319Y-3.8583
X6.1319Y-3.9075
X6.1319Y-3.9469
X6.1516Y-4.0551
X6.1516Y-4.0846
X6.1555Y-2.7559
X6.1614Y-2.9331
X6.1811Y-2.5886
X6.1811Y-4.0945
X6.1909Y-2.7559
X6.2008Y-2.9528
X6.2106Y-4.0945
X6.2402Y-4.0945
X6.2697Y-4.0551
X6.2697Y-4.0846
X6.2795Y-3.8386
X6.2894Y-3.7795
X6.3287Y-4.0157
X6.3386Y-2.9528
X6.3386Y-4.0945
X6.3543Y-3.9764
X6.3583Y-3.75
X6.3681Y-3.2087
X6.3976Y-2.6575
X6.3976Y-4.0945
X6.4075Y-3.9862
X6.4075Y-4.0157
X6.4173Y-3.5138
X6.4272Y-3.4449
X6.437Y-3.9862
X6.437Y-4.0157
X6.4567Y-4.0945
X6.4665Y-3.7598
X6.4665Y-3.9862
X6.4665Y-4.0157
X6.4764Y-2.9528
X6.5157Y-2.8642
X6.5157Y-4.0945
X6.5453Y-2.6575
X6.5453Y-2.7559
X6.5748Y-4.0945
X6.5768Y-2.7559
X6.5846Y-3.6417
X6.5846Y-3.878
X6.6083Y-2.7559
X6.6142Y-2.9528
X6.6339Y-4.0945
X6.6437Y-2.6575
X6.6437Y-2.7559
X6.6732Y-2.8642
X6.6929Y-4.0945
X6.7028Y-3.7598
X6.752Y-2.9528
X6.752Y-4.0945
X6.7717Y-3.3071
X6.7717Y-3.4252
X6.7815Y-3.9075
X6.8209Y-4.065
X6.8307Y-4.0945
X6.8602Y-2.6575
X6.8602Y-4.0945
X6.8898Y-2.9528
X6.8898Y-4.0945
X6.9193Y-4.0945
X6.9587Y-4.1043
X6.9783Y-2.7559
X6.9882Y-4.1043
X7.0079Y-2.9331
X7.0098Y-2.7559
X7.0177Y-4.0551
X7.0276Y-3.1791
X7.0472Y-2.9331
X7.0472Y-4.0551
X7.0571Y-2.6575
X7.0768Y-4.0551
X7.0801Y-3.1955
X7.1555Y-2.6575
T2
X4.3209Y-1.8307
X4.5209Y-1.8307
X2.7854Y-1.8307
X2.9854Y-1.8307
X6.3681Y-1.8307
X6.5681Y-1.8307
X3.8091Y-1.8307
X4.0091Y-1.8307
X5.3445Y-1.8307
X5.5445Y-1.8307
X2.5295Y-3.7224
X2.8248Y-3.8287
X2.4409Y-3.3465
X2.9409Y-3.3465
X3.2972Y-1.8307
X3.4972Y-1.8307
X5.8563Y-1.8307
X6.0563Y-1.8307
X4.8327Y-1.8307
X5.0327Y-1.8307
X6.8406Y-1.6307
X6.8406Y-1.8307
X2.2736Y-1.8307
X2.4736Y-1.8307
T3
X2.2638Y-2.0472
X2.5591Y-2.0472
X5.8465Y-2.0472
X6.1417Y-2.0472
X4.1043Y-4.2815
X4.2815Y-4.2815
X2.4902Y-3.5335
X2.8839Y-3.5335
X4.5555Y-4.2618
X4.6555Y-4.2618
X4.7555Y-4.2618
X3.7992Y-2.0472
X4.0945Y-2.0472
X4.311Y-2.0472
X4.6063Y-2.0472
X2.5394Y-2.8839
X2.5394Y-3.1594
X2.8543Y-2.8839
X2.8543Y-3.1594
X4.9705Y-4.2618
X5.0705Y-4.2618
X5.1705Y-4.2618
X5.2705Y-4.2618
X6.8701Y-2.0472
X7.1654Y-2.0472
X2.7756Y-2.0472
X3.0709Y-2.0472
X3.1594Y-3.0807
X3.1594Y-3.2776
X4.3169Y-2.876
X4.3169Y-3.4823
X4.8228Y-2.0472
X5.1181Y-2.0472
X5.3346Y-2.0472
X5.6299Y-2.0472
X3.2874Y-2.0472
X3.5827Y-2.0472
X6.3583Y-2.0472
X6.6535Y-2.0472
T4
X4.0551Y-4.1831
X4.3307Y-4.1831
X4.8031Y-1.437
X5.0Y-1.437
X5.1969Y-1.437
X5.3937Y-1.437
X5.5906Y-1.437
X5.7874Y-1.437
X5.9843Y-1.437
X6.1811Y-1.437
X6.378Y-1.437
X6.5748Y-1.437
X2.0079Y-1.437
X2.2047Y-1.437
X2.8346Y-1.437
X3.0315Y-1.437
X3.2283Y-1.437
X3.4252Y-1.437
X3.622Y-1.437
X3.8189Y-1.437
X4.0157Y-1.437
X4.2126Y-1.437
X4.4094Y-1.437
X4.6063Y-1.437
T5
X2.1358Y-2.7953
X2.1358Y-3.685
X1.7126Y-2.7028
X1.7126Y-3.5925
T0
M30
