G04 #@! TF.GenerationSoftware,KiCad,Pcbnew,(5.1.8)-1*
G04 #@! TF.CreationDate,2021-11-11T09:43:21+02:00*
G04 #@! TF.ProjectId,controller,636f6e74-726f-46c6-9c65-722e6b696361,rev?*
G04 #@! TF.SameCoordinates,Original*
G04 #@! TF.FileFunction,Other,User*
%FSLAX46Y46*%
G04 Gerber Fmt 4.6, Leading zero omitted, Abs format (unit mm)*
G04 Created by KiCad (PCBNEW (5.1.8)-1) date 2021-11-11 09:43:21*
%MOMM*%
%LPD*%
G01*
G04 APERTURE LIST*
%ADD10C,0.050000*%
G04 APERTURE END LIST*
D10*
G04 #@! TO.C,TP5*
X115750000Y-89500000D02*
G75*
G03*
X115750000Y-89500000I-1250000J0D01*
G01*
G04 #@! TO.C,TP4*
X138750000Y-90750000D02*
G75*
G03*
X138750000Y-90750000I-1250000J0D01*
G01*
G04 #@! TO.C,TP3*
X141250000Y-90750000D02*
G75*
G03*
X141250000Y-90750000I-1250000J0D01*
G01*
G04 #@! TO.C,TP2*
X136250000Y-90750000D02*
G75*
G03*
X136250000Y-90750000I-1250000J0D01*
G01*
G04 #@! TO.C,TP1*
X133750000Y-90750000D02*
G75*
G03*
X133750000Y-90750000I-1250000J0D01*
G01*
G04 #@! TO.C,J6*
X48000000Y-41100000D02*
X59000000Y-41100000D01*
X48000000Y-32500000D02*
X48000000Y-41100000D01*
X59000000Y-32500000D02*
X48000000Y-32500000D01*
X59000000Y-41100000D02*
X59000000Y-32500000D01*
G04 #@! TO.C,J5*
X119000000Y-41100000D02*
X170000000Y-41100000D01*
X119000000Y-32500000D02*
X119000000Y-41100000D01*
X170000000Y-32500000D02*
X119000000Y-32500000D01*
X170000000Y-41100000D02*
X170000000Y-32500000D01*
G04 #@! TO.C,J4*
X69000000Y-41100000D02*
X120000000Y-41100000D01*
X69000000Y-32500000D02*
X69000000Y-41100000D01*
X120000000Y-32500000D02*
X69000000Y-32500000D01*
X120000000Y-41100000D02*
X120000000Y-32500000D01*
G04 #@! TO.C,R18*
X171900000Y-40370000D02*
X171900000Y-48350000D01*
X175600000Y-40370000D02*
X171900000Y-40370000D01*
X175600000Y-48350000D02*
X175600000Y-40370000D01*
X171900000Y-48350000D02*
X175600000Y-48350000D01*
G04 #@! TO.C,R17*
X167880000Y-44650000D02*
X159900000Y-44650000D01*
X167880000Y-48350000D02*
X167880000Y-44650000D01*
X159900000Y-48350000D02*
X167880000Y-48350000D01*
X159900000Y-44650000D02*
X159900000Y-48350000D01*
G04 #@! TO.C,R16*
X154880000Y-44650000D02*
X146900000Y-44650000D01*
X154880000Y-48350000D02*
X154880000Y-44650000D01*
X146900000Y-48350000D02*
X154880000Y-48350000D01*
X146900000Y-44650000D02*
X146900000Y-48350000D01*
G04 #@! TO.C,R15*
X141880000Y-44650000D02*
X133900000Y-44650000D01*
X141880000Y-48350000D02*
X141880000Y-44650000D01*
X133900000Y-48350000D02*
X141880000Y-48350000D01*
X133900000Y-44650000D02*
X133900000Y-48350000D01*
G04 #@! TO.C,R14*
X128880000Y-44650000D02*
X120900000Y-44650000D01*
X128880000Y-48350000D02*
X128880000Y-44650000D01*
X120900000Y-48350000D02*
X128880000Y-48350000D01*
X120900000Y-44650000D02*
X120900000Y-48350000D01*
G04 #@! TO.C,R13*
X115880000Y-44650000D02*
X107900000Y-44650000D01*
X115880000Y-48350000D02*
X115880000Y-44650000D01*
X107900000Y-48350000D02*
X115880000Y-48350000D01*
X107900000Y-44650000D02*
X107900000Y-48350000D01*
G04 #@! TO.C,R12*
X102880000Y-44650000D02*
X94900000Y-44650000D01*
X102880000Y-48350000D02*
X102880000Y-44650000D01*
X94900000Y-48350000D02*
X102880000Y-48350000D01*
X94900000Y-44650000D02*
X94900000Y-48350000D01*
G04 #@! TO.C,R11*
X89880000Y-44650000D02*
X81900000Y-44650000D01*
X89880000Y-48350000D02*
X89880000Y-44650000D01*
X81900000Y-48350000D02*
X89880000Y-48350000D01*
X81900000Y-44650000D02*
X81900000Y-48350000D01*
G04 #@! TO.C,R10*
X76880000Y-44650000D02*
X68900000Y-44650000D01*
X76880000Y-48350000D02*
X76880000Y-44650000D01*
X68900000Y-48350000D02*
X76880000Y-48350000D01*
X68900000Y-44650000D02*
X68900000Y-48350000D01*
G04 #@! TO.C,R9*
X63880000Y-44650000D02*
X55900000Y-44650000D01*
X63880000Y-48350000D02*
X63880000Y-44650000D01*
X55900000Y-48350000D02*
X63880000Y-48350000D01*
X55900000Y-44650000D02*
X55900000Y-48350000D01*
G04 #@! TO.C,R2*
X75750000Y-83150000D02*
X60950000Y-83150000D01*
X75750000Y-86850000D02*
X75750000Y-83150000D01*
X60950000Y-86850000D02*
X75750000Y-86850000D01*
X60950000Y-83150000D02*
X60950000Y-86850000D01*
G04 #@! TO.C,J1*
X113910000Y-106450000D02*
X113910000Y-110050000D01*
X122560000Y-106450000D02*
X113910000Y-106450000D01*
X122560000Y-110050000D02*
X122560000Y-106450000D01*
X113910000Y-110050000D02*
X122560000Y-110050000D01*
G04 #@! TO.C,C4*
X121000000Y-86900000D02*
X121000000Y-85250000D01*
X118000000Y-86900000D02*
X121000000Y-86900000D01*
X118000000Y-85250000D02*
X118000000Y-86900000D01*
X121000000Y-85250000D02*
X122850000Y-85250000D01*
X116150000Y-85250000D02*
X118000000Y-85250000D01*
X116150000Y-85250000D02*
X115000000Y-84100000D01*
X122850000Y-85250000D02*
X124000000Y-84100000D01*
X115000000Y-84100000D02*
X115000000Y-76250000D01*
X124000000Y-84100000D02*
X124000000Y-76250000D01*
X121000000Y-76250000D02*
X124000000Y-76250000D01*
X121000000Y-74600000D02*
X121000000Y-76250000D01*
X118000000Y-74600000D02*
X121000000Y-74600000D01*
X118000000Y-76250000D02*
X118000000Y-74600000D01*
X115000000Y-76250000D02*
X118000000Y-76250000D01*
G04 #@! TO.C,SW1*
X104350000Y-107050000D02*
X104350000Y-104500000D01*
X108650000Y-104500000D02*
X108650000Y-107050000D01*
X108400000Y-111550000D02*
X110500000Y-111550000D01*
X108400000Y-114850000D02*
X108400000Y-111550000D01*
X104600000Y-114850000D02*
X108400000Y-114850000D01*
X104600000Y-111550000D02*
X104600000Y-114850000D01*
X102500000Y-111550000D02*
X104600000Y-111550000D01*
X108650000Y-107050000D02*
X104350000Y-107050000D01*
X102500000Y-107650000D02*
X102500000Y-111550000D01*
X101650000Y-107650000D02*
X102500000Y-107650000D01*
X101650000Y-104500000D02*
X101650000Y-107650000D01*
X104350000Y-104500000D02*
X101650000Y-104500000D01*
X110500000Y-107600000D02*
X110500000Y-111550000D01*
X111350000Y-107600000D02*
X110500000Y-107600000D01*
X111350000Y-104500000D02*
X111350000Y-107600000D01*
X108650000Y-104500000D02*
X111350000Y-104500000D01*
G04 #@! TO.C,PS1*
X77700000Y-70500000D02*
X77700000Y-91000000D01*
X112200000Y-70500000D02*
X77700000Y-70500000D01*
X112200000Y-91000000D02*
X112200000Y-70500000D01*
X77700000Y-91000000D02*
X112200000Y-91000000D01*
G04 #@! TO.C,H5*
X182500000Y-78000000D02*
G75*
G03*
X182500000Y-78000000I-2750000J0D01*
G01*
G04 #@! TO.C,H3*
X141500000Y-78000000D02*
G75*
G03*
X141500000Y-78000000I-2750000J0D01*
G01*
G04 #@! TO.C,RN1*
X148650000Y-73550000D02*
X148650000Y-70450000D01*
X148650000Y-73550000D02*
X152350000Y-73550000D01*
X152350000Y-70450000D02*
X148650000Y-70450000D01*
X152350000Y-70450000D02*
X152350000Y-73550000D01*
G04 #@! TO.C,C11*
X81840000Y-49250000D02*
X81840000Y-54750000D01*
X81840000Y-54750000D02*
X92650000Y-54750000D01*
X92650000Y-54750000D02*
X92650000Y-49250000D01*
X92650000Y-49250000D02*
X81840000Y-49250000D01*
G04 #@! TO.C,RN3*
X171150000Y-73550000D02*
X171150000Y-70450000D01*
X171150000Y-73550000D02*
X174850000Y-73550000D01*
X174850000Y-70450000D02*
X171150000Y-70450000D01*
X174850000Y-70450000D02*
X174850000Y-73550000D01*
G04 #@! TO.C,RN2*
X160150000Y-73550000D02*
X160150000Y-70450000D01*
X160150000Y-73550000D02*
X163850000Y-73550000D01*
X163850000Y-70450000D02*
X160150000Y-70450000D01*
X163850000Y-70450000D02*
X163850000Y-73550000D01*
G04 #@! TO.C,C18*
X172840000Y-49250000D02*
X172840000Y-54750000D01*
X172840000Y-54750000D02*
X183650000Y-54750000D01*
X183650000Y-54750000D02*
X183650000Y-49250000D01*
X183650000Y-49250000D02*
X172840000Y-49250000D01*
G04 #@! TO.C,C17*
X159840000Y-49250000D02*
X159840000Y-54750000D01*
X159840000Y-54750000D02*
X170650000Y-54750000D01*
X170650000Y-54750000D02*
X170650000Y-49250000D01*
X170650000Y-49250000D02*
X159840000Y-49250000D01*
G04 #@! TO.C,C16*
X146840000Y-49250000D02*
X146840000Y-54750000D01*
X146840000Y-54750000D02*
X157650000Y-54750000D01*
X157650000Y-54750000D02*
X157650000Y-49250000D01*
X157650000Y-49250000D02*
X146840000Y-49250000D01*
G04 #@! TO.C,C15*
X133840000Y-49250000D02*
X133840000Y-54750000D01*
X133840000Y-54750000D02*
X144650000Y-54750000D01*
X144650000Y-54750000D02*
X144650000Y-49250000D01*
X144650000Y-49250000D02*
X133840000Y-49250000D01*
G04 #@! TO.C,C14*
X120840000Y-49250000D02*
X120840000Y-54750000D01*
X120840000Y-54750000D02*
X131650000Y-54750000D01*
X131650000Y-54750000D02*
X131650000Y-49250000D01*
X131650000Y-49250000D02*
X120840000Y-49250000D01*
G04 #@! TO.C,C13*
X107840000Y-49250000D02*
X107840000Y-54750000D01*
X107840000Y-54750000D02*
X118650000Y-54750000D01*
X118650000Y-54750000D02*
X118650000Y-49250000D01*
X118650000Y-49250000D02*
X107840000Y-49250000D01*
G04 #@! TO.C,C12*
X94840000Y-49250000D02*
X94840000Y-54750000D01*
X94840000Y-54750000D02*
X105650000Y-54750000D01*
X105650000Y-54750000D02*
X105650000Y-49250000D01*
X105650000Y-49250000D02*
X94840000Y-49250000D01*
G04 #@! TO.C,C10*
X68840000Y-49250000D02*
X68840000Y-54750000D01*
X68840000Y-54750000D02*
X79650000Y-54750000D01*
X79650000Y-54750000D02*
X79650000Y-49250000D01*
X79650000Y-49250000D02*
X68840000Y-49250000D01*
G04 #@! TO.C,C9*
X55840000Y-49250000D02*
X55840000Y-54750000D01*
X55840000Y-54750000D02*
X66650000Y-54750000D01*
X66650000Y-54750000D02*
X66650000Y-49250000D01*
X66650000Y-49250000D02*
X55840000Y-49250000D01*
G04 #@! TO.C,H6*
X45050000Y-97000000D02*
G75*
G03*
X45050000Y-97000000I-3050000J0D01*
G01*
G04 #@! TO.C,H4*
X183050000Y-97000000D02*
G75*
G03*
X183050000Y-97000000I-3050000J0D01*
G01*
G04 #@! TO.C,H2*
X183050000Y-46000000D02*
G75*
G03*
X183050000Y-46000000I-3050000J0D01*
G01*
G04 #@! TO.C,H1*
X45050000Y-46000000D02*
G75*
G03*
X45050000Y-46000000I-3050000J0D01*
G01*
G04 #@! TO.C,C2*
X61500000Y-92500000D02*
X75000000Y-92500000D01*
X61500000Y-87000000D02*
X61500000Y-92500000D01*
X75000000Y-87000000D02*
X61500000Y-87000000D01*
X75000000Y-92500000D02*
X75000000Y-87000000D01*
G04 #@! TO.C,J2*
X124450000Y-106450000D02*
X124450000Y-110050000D01*
X135650000Y-106450000D02*
X124450000Y-106450000D01*
X135650000Y-110050000D02*
X135650000Y-106450000D01*
X124450000Y-110050000D02*
X135650000Y-110050000D01*
G04 #@! TO.C,F2*
X54700000Y-69150000D02*
X55500000Y-69550000D01*
X53000000Y-69550000D02*
X53800000Y-69150000D01*
X52400000Y-70600000D02*
X52400000Y-70850000D01*
X52500000Y-70250000D02*
X52400000Y-70600000D01*
X53000000Y-69550000D02*
X52500000Y-70250000D01*
X54700000Y-69150000D02*
X53800000Y-69150000D01*
X56000000Y-70250000D02*
X55500000Y-69550000D01*
X56100000Y-70600000D02*
X56000000Y-70250000D01*
X56100000Y-70850000D02*
X56100000Y-70600000D01*
X53000000Y-95050000D02*
X53800000Y-95450000D01*
X52500000Y-94350000D02*
X53000000Y-95050000D01*
X52400000Y-94000000D02*
X52500000Y-94350000D01*
X52400000Y-93750000D02*
X52400000Y-94000000D01*
X56000000Y-94350000D02*
X56100000Y-94000000D01*
X55500000Y-95050000D02*
X56000000Y-94350000D01*
X54700000Y-95450000D02*
X55500000Y-95050000D01*
X53800000Y-95450000D02*
X54700000Y-95450000D01*
X56100000Y-93750000D02*
X56100000Y-94000000D01*
X52400000Y-93750000D02*
X49300000Y-93750000D01*
X56100000Y-93750000D02*
X59200000Y-93750000D01*
X56100000Y-70850000D02*
X59200000Y-70850000D01*
X59200000Y-70850000D02*
X59200000Y-93750000D01*
X49300000Y-93750000D02*
X49300000Y-70850000D01*
X49300000Y-70850000D02*
X52400000Y-70850000D01*
G04 #@! TO.C,F1*
X43050000Y-93100000D02*
X42250000Y-92700000D01*
X44750000Y-92700000D02*
X43950000Y-93100000D01*
X45350000Y-91650000D02*
X45350000Y-91400000D01*
X45250000Y-92000000D02*
X45350000Y-91650000D01*
X44750000Y-92700000D02*
X45250000Y-92000000D01*
X43050000Y-93100000D02*
X43950000Y-93100000D01*
X41750000Y-92000000D02*
X42250000Y-92700000D01*
X41650000Y-91650000D02*
X41750000Y-92000000D01*
X41650000Y-91400000D02*
X41650000Y-91650000D01*
X44750000Y-67200000D02*
X43950000Y-66800000D01*
X45250000Y-67900000D02*
X44750000Y-67200000D01*
X45350000Y-68250000D02*
X45250000Y-67900000D01*
X45350000Y-68500000D02*
X45350000Y-68250000D01*
X41750000Y-67900000D02*
X41650000Y-68250000D01*
X42250000Y-67200000D02*
X41750000Y-67900000D01*
X43050000Y-66800000D02*
X42250000Y-67200000D01*
X43950000Y-66800000D02*
X43050000Y-66800000D01*
X41650000Y-68500000D02*
X41650000Y-68250000D01*
X45350000Y-68500000D02*
X48450000Y-68500000D01*
X41650000Y-68500000D02*
X38550000Y-68500000D01*
X41650000Y-91400000D02*
X38550000Y-91400000D01*
X38550000Y-91400000D02*
X38550000Y-68500000D01*
X48450000Y-68500000D02*
X48450000Y-91400000D01*
X48450000Y-91400000D02*
X45350000Y-91400000D01*
G04 #@! TO.C,J3*
X147400000Y-110100000D02*
X147400000Y-104900000D01*
X147400000Y-104900000D02*
X137600000Y-104900000D01*
X137600000Y-104900000D02*
X137600000Y-110100000D01*
X137600000Y-110100000D02*
X147400000Y-110100000D01*
G04 #@! TO.C,U1*
X156500000Y-104470000D02*
X152000000Y-104470000D01*
X180500000Y-104470000D02*
X176000000Y-104470000D01*
X152000000Y-115750000D02*
X152000000Y-104470000D01*
X180500000Y-115750000D02*
X180500000Y-104470000D01*
X180500000Y-115750000D02*
X152000000Y-115750000D01*
X156500000Y-104470000D02*
X156500000Y-84250000D01*
X176000000Y-84250000D02*
X156500000Y-84250000D01*
X176000000Y-84250000D02*
X176000000Y-104470000D01*
G04 #@! TO.C,RV1*
X74250000Y-99050000D02*
X74250000Y-92750000D01*
X61750000Y-99050000D02*
X61750000Y-92750000D01*
X74250000Y-99050000D02*
X61750000Y-99050000D01*
X74250000Y-92750000D02*
X61750000Y-92750000D01*
G04 #@! TO.C,RN6*
X180350000Y-70450000D02*
X180350000Y-73550000D01*
X180350000Y-70450000D02*
X176650000Y-70450000D01*
X176650000Y-73550000D02*
X180350000Y-73550000D01*
X176650000Y-73550000D02*
X176650000Y-70450000D01*
G04 #@! TO.C,RN5*
X169350000Y-70450000D02*
X169350000Y-73550000D01*
X169350000Y-70450000D02*
X165650000Y-70450000D01*
X165650000Y-73550000D02*
X169350000Y-73550000D01*
X165650000Y-73550000D02*
X165650000Y-70450000D01*
G04 #@! TO.C,RN4*
X157850000Y-70450000D02*
X157850000Y-73550000D01*
X157850000Y-70450000D02*
X154150000Y-70450000D01*
X154150000Y-73550000D02*
X157850000Y-73550000D01*
X154150000Y-73550000D02*
X154150000Y-70450000D01*
G04 #@! TO.C,R8*
X100980000Y-104520000D02*
X100980000Y-107480000D01*
X99520000Y-104520000D02*
X100980000Y-104520000D01*
X99520000Y-107480000D02*
X99520000Y-104520000D01*
X100980000Y-107480000D02*
X99520000Y-107480000D01*
G04 #@! TO.C,R7*
X119480000Y-100270000D02*
X119480000Y-103230000D01*
X118020000Y-100270000D02*
X119480000Y-100270000D01*
X118020000Y-103230000D02*
X118020000Y-100270000D01*
X119480000Y-103230000D02*
X118020000Y-103230000D01*
G04 #@! TO.C,R6*
X97980000Y-104520000D02*
X97980000Y-107480000D01*
X96520000Y-104520000D02*
X97980000Y-104520000D01*
X96520000Y-107480000D02*
X96520000Y-104520000D01*
X97980000Y-107480000D02*
X96520000Y-107480000D01*
G04 #@! TO.C,R5*
X107980000Y-100270000D02*
X107980000Y-103230000D01*
X106520000Y-100270000D02*
X107980000Y-100270000D01*
X106520000Y-103230000D02*
X106520000Y-100270000D01*
X107980000Y-103230000D02*
X106520000Y-103230000D01*
G04 #@! TO.C,R4*
X128520000Y-103230000D02*
X128520000Y-100270000D01*
X129980000Y-103230000D02*
X128520000Y-103230000D01*
X129980000Y-100270000D02*
X129980000Y-103230000D01*
X128520000Y-100270000D02*
X129980000Y-100270000D01*
G04 #@! TO.C,R3*
X130020000Y-103230000D02*
X130020000Y-100270000D01*
X131480000Y-103230000D02*
X130020000Y-103230000D01*
X131480000Y-100270000D02*
X131480000Y-103230000D01*
X130020000Y-100270000D02*
X131480000Y-100270000D01*
G04 #@! TO.C,R1*
X150520000Y-103730000D02*
X150520000Y-100770000D01*
X151980000Y-103730000D02*
X150520000Y-103730000D01*
X151980000Y-100770000D02*
X151980000Y-103730000D01*
X150520000Y-100770000D02*
X151980000Y-100770000D01*
G04 #@! TO.C,FID3*
X181250000Y-38750000D02*
G75*
G03*
X181250000Y-38750000I-750000J0D01*
G01*
G04 #@! TO.C,FID2*
X183500000Y-103500000D02*
G75*
G03*
X183500000Y-103500000I-750000J0D01*
G01*
G04 #@! TO.C,FID1*
X42500000Y-103500000D02*
G75*
G03*
X42500000Y-103500000I-750000J0D01*
G01*
G04 #@! TO.C,D12*
X174270000Y-78480000D02*
X174270000Y-75520000D01*
X175730000Y-78480000D02*
X174270000Y-78480000D01*
X175730000Y-75520000D02*
X175730000Y-78480000D01*
X174270000Y-75520000D02*
X175730000Y-75520000D01*
G04 #@! TO.C,D11*
X170770000Y-78480000D02*
X170770000Y-75520000D01*
X172230000Y-78480000D02*
X170770000Y-78480000D01*
X172230000Y-75520000D02*
X172230000Y-78480000D01*
X170770000Y-75520000D02*
X172230000Y-75520000D01*
G04 #@! TO.C,D10*
X167270000Y-78480000D02*
X167270000Y-75520000D01*
X168730000Y-78480000D02*
X167270000Y-78480000D01*
X168730000Y-75520000D02*
X168730000Y-78480000D01*
X167270000Y-75520000D02*
X168730000Y-75520000D01*
G04 #@! TO.C,D9*
X163770000Y-78480000D02*
X163770000Y-75520000D01*
X165230000Y-78480000D02*
X163770000Y-78480000D01*
X165230000Y-75520000D02*
X165230000Y-78480000D01*
X163770000Y-75520000D02*
X165230000Y-75520000D01*
G04 #@! TO.C,D8*
X160270000Y-78480000D02*
X160270000Y-75520000D01*
X161730000Y-78480000D02*
X160270000Y-78480000D01*
X161730000Y-75520000D02*
X161730000Y-78480000D01*
X160270000Y-75520000D02*
X161730000Y-75520000D01*
G04 #@! TO.C,D7*
X156770000Y-78480000D02*
X156770000Y-75520000D01*
X158230000Y-78480000D02*
X156770000Y-78480000D01*
X158230000Y-75520000D02*
X158230000Y-78480000D01*
X156770000Y-75520000D02*
X158230000Y-75520000D01*
G04 #@! TO.C,D6*
X153270000Y-78480000D02*
X153270000Y-75520000D01*
X154730000Y-78480000D02*
X153270000Y-78480000D01*
X154730000Y-75520000D02*
X154730000Y-78480000D01*
X153270000Y-75520000D02*
X154730000Y-75520000D01*
G04 #@! TO.C,D5*
X149770000Y-78480000D02*
X149770000Y-75520000D01*
X151230000Y-78480000D02*
X149770000Y-78480000D01*
X151230000Y-75520000D02*
X151230000Y-78480000D01*
X149770000Y-75520000D02*
X151230000Y-75520000D01*
G04 #@! TO.C,D4*
X146270000Y-78480000D02*
X146270000Y-75520000D01*
X147730000Y-78480000D02*
X146270000Y-78480000D01*
X147730000Y-75520000D02*
X147730000Y-78480000D01*
X146270000Y-75520000D02*
X147730000Y-75520000D01*
G04 #@! TO.C,D3*
X142770000Y-78480000D02*
X142770000Y-75520000D01*
X144230000Y-78480000D02*
X142770000Y-78480000D01*
X144230000Y-75520000D02*
X144230000Y-78480000D01*
X142770000Y-75520000D02*
X144230000Y-75520000D01*
G04 #@! TO.C,D2*
X100980000Y-107770000D02*
X100980000Y-110730000D01*
X99520000Y-107770000D02*
X100980000Y-107770000D01*
X99520000Y-110730000D02*
X99520000Y-107770000D01*
X100980000Y-110730000D02*
X99520000Y-110730000D01*
G04 #@! TO.C,D1*
X97980000Y-107770000D02*
X97980000Y-110730000D01*
X96520000Y-107770000D02*
X97980000Y-107770000D01*
X96520000Y-110730000D02*
X96520000Y-107770000D01*
X97980000Y-110730000D02*
X96520000Y-110730000D01*
G04 #@! TO.C,C8*
X116520000Y-103230000D02*
X116520000Y-100270000D01*
X117980000Y-103230000D02*
X116520000Y-103230000D01*
X117980000Y-100270000D02*
X117980000Y-103230000D01*
X116520000Y-100270000D02*
X117980000Y-100270000D01*
G04 #@! TO.C,C7*
X105020000Y-103230000D02*
X105020000Y-100270000D01*
X106480000Y-103230000D02*
X105020000Y-103230000D01*
X106480000Y-100270000D02*
X106480000Y-103230000D01*
X105020000Y-100270000D02*
X106480000Y-100270000D01*
G04 #@! TO.C,C6*
X176270000Y-103980000D02*
X176270000Y-101020000D01*
X177730000Y-103980000D02*
X176270000Y-103980000D01*
X177730000Y-101020000D02*
X177730000Y-103980000D01*
X176270000Y-101020000D02*
X177730000Y-101020000D01*
G04 #@! TO.C,C5*
X177850000Y-104800000D02*
X177850000Y-100200000D01*
X180150000Y-104800000D02*
X177850000Y-104800000D01*
X180150000Y-100200000D02*
X180150000Y-104800000D01*
X177850000Y-100200000D02*
X180150000Y-100200000D01*
G04 #@! TO.C,C3*
X114230000Y-79020000D02*
X114230000Y-81980000D01*
X112770000Y-79020000D02*
X114230000Y-79020000D01*
X112770000Y-81980000D02*
X112770000Y-79020000D01*
X114230000Y-81980000D02*
X112770000Y-81980000D01*
G04 #@! TO.C,C1*
X152020000Y-103730000D02*
X152020000Y-100770000D01*
X153480000Y-103730000D02*
X152020000Y-103730000D01*
X153480000Y-100770000D02*
X153480000Y-103730000D01*
X152020000Y-100770000D02*
X153480000Y-100770000D01*
G04 #@! TD*
M02*
